arial.ufo
<glyph name="exclam" format="2">
  <advance width="569"/>
  <unicode hex="0021"/>
  <outline>
    <contour>
      <point x="231" y="364" type="line"/>
      <point x="176" y="1141" type="line"/>
      <point x="176" y="1466" type="line"/>
      <point x="399" y="1466" type="line"/>
      <point x="399" y="1141" type="line"/>
      <point x="347" y="364" type="line"/>
    </contour>
    <contour>
      <point x="184" y="0" type="line"/>
      <point x="184" y="205" type="line"/>
      <point x="391" y="205" type="line"/>
      <point x="391" y="0" type="line"/>
    </contour>
  </outline>
</glyph>
<glyph name="quotedbl" format="2">
  <advance width="727"/>
  <unicode hex="0022"/>
  <outline>
    <contour>
      <point x="144" y="947" type="line"/>
      <point x="94" y="1226" type="line"/>
      <point x="94" y="1466" type="line"/>
      <point x="299" y="1466" type="line"/>
      <point x="299" y="1226" type="line"/>
      <point x="254" y="947" type="line"/>
    </contour>
    <contour>
      <point x="475" y="947" type="line"/>
      <point x="426" y="1226" type="line"/>
      <point x="426" y="1466" type="line"/>
      <point x="631" y="1466" type="line"/>
      <point x="631" y="1226" type="line"/>
      <point x="583" y="947" type="line"/>
    </contour>
  </outline>
</glyph>
<glyph name="numbersign" format="2">
  <advance width="1139"/>
  <unicode hex="0023"/>
  <outline>
    <contour>
      <point x="103" y="-25" type="line"/>
      <point x="190" y="401" type="line"/>
      <point x="21" y="401" type="line"/>
      <point x="21" y="550" type="line"/>
      <point x="220" y="550" type="line"/>
      <point x="294" y="913" type="line"/>
      <point x="21" y="913" type="line"/>
      <point x="21" y="1062" type="line"/>
      <point x="324" y="1062" type="line"/>
      <point x="411" y="1491" type="line"/>
      <point x="561" y="1491" type="line"/>
      <point x="474" y="1062" type="line"/>
      <point x="789" y="1062" type="line"/>
      <point x="876" y="1491" type="line"/>
      <point x="1027" y="1491" type="line"/>
      <point x="940" y="1062" type="line"/>
      <point x="1113" y="1062" type="line"/>
      <point x="1113" y="913" type="line"/>
      <point x="910" y="913" type="line"/>
      <point x="835" y="550" type="line"/>
      <point x="1113" y="550" type="line"/>
      <point x="1113" y="401" type="line"/>
      <point x="805" y="401" type="line"/>
      <point x="718" y="-25" type="line"/>
      <point x="568" y="-25" type="line"/>
      <point x="654" y="401" type="line"/>
      <point x="340" y="401" type="line"/>
      <point x="253" y="-25" type="line"/>
    </contour>
    <contour>
      <point x="370" y="550" type="line"/>
      <point x="684" y="550" type="line"/>
      <point x="759" y="913" type="line"/>
      <point x="444" y="913" type="line"/>
    </contour>
  </outline>
</glyph>
<glyph name="dollar" format="2">
  <advance width="1139"/>
  <unicode hex="0024"/>
  <outline>
    <contour>
      <point x="510" y="-211" type="line"/>
      <point x="510" y="-31" type="line"/>
      <point x="375" y="-14"/>
      <point x="206" y="73"/>
      <point x="83" y="267"/>
      <point x="73" y="407" type="qcurve"/>
      <point x="254" y="441" type="line"/>
      <point x="275" y="296"/>
      <point x="328" y="228" type="qcurve"/>
      <point x="404" y="132"/>
      <point x="510" y="121" type="qcurve"/>
      <point x="510" y="694" type="line"/>
      <point x="399" y="715"/>
      <point x="283" y="780" type="qcurve"/>
      <point x="197" y="828"/>
      <point x="104" y="998"/>
      <point x="104" y="1106" type="qcurve"/>
      <point x="104" y="1298"/>
      <point x="240" y="1417" type="qcurve"/>
      <point x="331" y="1497"/>
      <point x="510" y="1515" type="qcurve"/>
      <point x="510" y="1601" type="line"/>
      <point x="616" y="1601" type="line"/>
      <point x="616" y="1515" type="line"/>
      <point x="773" y="1500"/>
      <point x="865" y="1423" type="qcurve"/>
      <point x="983" y="1325"/>
      <point x="1007" y="1154" type="qcurve"/>
      <point x="821" y="1126" type="line"/>
      <point x="805" y="1232"/>
      <point x="704" y="1345"/>
      <point x="616" y="1363" type="qcurve"/>
      <point x="616" y="844" type="line"/>
      <point x="752" y="810"/>
      <point x="796" y="791" type="qcurve"/>
      <point x="880" y="754"/>
      <point x="986" y="648"/>
      <point x="1043" y="502"/>
      <point x="1043" y="417" type="qcurve"/>
      <point x="1043" y="230"/>
      <point x="805" y="-20"/>
      <point x="616" y="-29" type="qcurve"/>
      <point x="616" y="-211" type="line"/>
    </contour>
    <contour>
      <point x="510" y="1365" type="line"/>
      <point x="405" y="1349"/>
      <point x="284" y="1213"/>
      <point x="284" y="1120" type="qcurve"/>
      <point x="284" y="1028"/>
      <point x="387" y="904"/>
      <point x="510" y="867" type="qcurve"/>
    </contour>
    <contour>
      <point x="616" y="121" type="line"/>
      <point x="721" y="134"/>
      <point x="858" y="290"/>
      <point x="858" y="405" type="qcurve"/>
      <point x="858" y="503"/>
      <point x="761" y="622"/>
      <point x="616" y="669" type="qcurve"/>
    </contour>
  </outline>
</glyph>
<glyph name="percent" format="2">
  <advance width="1821"/>
  <unicode hex="0025"/>
  <outline>
    <contour>
      <point x="119" y="1114" type="qcurve"/>
      <point x="119" y="1271"/>
      <point x="277" y="1491"/>
      <point x="427" y="1491" type="qcurve"/>
      <point x="565" y="1491"/>
      <point x="746" y="1294"/>
      <point x="746" y="1103" type="qcurve"/>
      <point x="746" y="917"/>
      <point x="563" y="716"/>
      <point x="429" y="716" type="qcurve"/>
      <point x="296" y="716"/>
      <point x="119" y="914"/>
    </contour>
    <contour>
      <point x="432" y="1367" type="qcurve"/>
      <point x="365" y="1367"/>
      <point x="276" y="1251"/>
      <point x="276" y="1096" type="qcurve"/>
      <point x="276" y="955"/>
      <point x="366" y="840"/>
      <point x="432" y="840" type="qcurve"/>
      <point x="500" y="840"/>
      <point x="589" y="956"/>
      <point x="589" y="1110" type="qcurve"/>
      <point x="589" y="1252"/>
      <point x="499" y="1367"/>
    </contour>
    <contour>
      <point x="433" y="-54" type="line"/>
      <point x="1235" y="1491" type="line"/>
      <point x="1381" y="1491" type="line"/>
      <point x="582" y="-54" type="line"/>
    </contour>
    <contour>
      <point x="1067" y="344" type="qcurve"/>
      <point x="1067" y="502"/>
      <point x="1225" y="721"/>
      <point x="1376" y="721" type="qcurve"/>
      <point x="1514" y="721"/>
      <point x="1695" y="524"/>
      <point x="1695" y="333" type="qcurve"/>
      <point x="1695" y="147"/>
      <point x="1512" y="-54"/>
      <point x="1377" y="-54" type="qcurve"/>
      <point x="1244" y="-54"/>
      <point x="1067" y="145"/>
    </contour>
    <contour>
      <point x="1381" y="597" type="qcurve"/>
      <point x="1313" y="597"/>
      <point x="1224" y="481"/>
      <point x="1224" y="326" type="qcurve"/>
      <point x="1224" y="186"/>
      <point x="1314" y="70"/>
      <point x="1380" y="70" type="qcurve"/>
      <point x="1449" y="70"/>
      <point x="1538" y="186"/>
      <point x="1538" y="340" type="qcurve"/>
      <point x="1538" y="482"/>
      <point x="1448" y="597"/>
    </contour>
  </outline>
</glyph>
<glyph name="ampersand" format="2">
  <advance width="1366"/>
  <unicode hex="0026"/>
  <outline>
    <contour>
      <point x="973" y="173" type="qcurve"/>
      <point x="884" y="74"/>
      <point x="674" y="-25"/>
      <point x="552" y="-25" type="qcurve"/>
      <point x="327" y="-25"/>
      <point x="195" y="127" type="qcurve"/>
      <point x="88" y="251"/>
      <point x="88" y="404" type="qcurve"/>
      <point x="88" y="540"/>
      <point x="263" y="759"/>
      <point x="437" y="842" type="qcurve"/>
      <point x="338" y="956"/>
      <point x="272" y="1098"/>
      <point x="272" y="1164" type="qcurve"/>
      <point x="272" y="1296"/>
      <point x="479" y="1491"/>
      <point x="636" y="1491" type="qcurve"/>
      <point x="786" y="1491"/>
      <point x="977" y="1307"/>
      <point x="977" y="1178" type="qcurve"/>
      <point x="977" y="969"/>
      <point x="700" y="821" type="qcurve"/>
      <point x="963" y="486" type="line"/>
      <point x="1008" y="574"/>
      <point x="1033" y="690" type="qcurve"/>
      <point x="1220" y="650" type="line"/>
      <point x="1172" y="458"/>
      <point x="1090" y="334" type="qcurve"/>
      <point x="1191" y="200"/>
      <point x="1319" y="109" type="qcurve"/>
      <point x="1198" y="-34" type="line"/>
      <point x="1089" y="36"/>
    </contour>
    <contour>
      <point x="607" y="937" type="line"/>
      <point x="724" y="1006"/>
      <point x="793" y="1110"/>
      <point x="793" y="1173" type="qcurve"/>
      <point x="793" y="1248"/>
      <point x="698" y="1343"/>
      <point x="627" y="1343" type="qcurve"/>
      <point x="554" y="1343"/>
      <point x="457" y="1249"/>
      <point x="457" y="1181" type="qcurve"/>
      <point x="457" y="1147"/>
      <point x="492" y="1072"/>
      <point x="527" y="1030" type="qcurve"/>
    </contour>
    <contour>
      <point x="860" y="315" type="qcurve"/>
      <point x="530" y="724" type="line"/>
      <point x="384" y="637"/>
      <point x="282" y="488"/>
      <point x="282" y="415" type="qcurve"/>
      <point x="282" y="326"/>
      <point x="424" y="134"/>
      <point x="554" y="134" type="qcurve"/>
      <point x="635" y="134"/>
      <point x="808" y="235"/>
    </contour>
  </outline>
</glyph>
<glyph name="quotesingle" format="2">
  <advance width="391"/>
  <unicode hex="0027"/>
  <outline>
    <contour>
      <point x="136" y="947" type="line"/>
      <point x="90" y="1221" type="line"/>
      <point x="90" y="1466" type="line"/>
      <point x="295" y="1466" type="line"/>
      <point x="295" y="1221" type="line"/>
      <point x="247" y="947" type="line"/>
    </contour>
  </outline>
</glyph>
<glyph name="parenleft" format="2">
  <advance width="682"/>
  <unicode hex="0028"/>
  <outline>
    <contour>
      <point x="479" y="-431" type="line"/>
      <point x="330" y="-243"/>
      <point x="124" y="261"/>
      <point x="124" y="531" type="qcurve"/>
      <point x="124" y="769"/>
      <point x="201" y="987" type="qcurve"/>
      <point x="291" y="1240"/>
      <point x="479" y="1491" type="qcurve"/>
      <point x="608" y="1491" type="line"/>
      <point x="487" y="1283"/>
      <point x="448" y="1194" type="qcurve"/>
      <point x="387" y="1056"/>
      <point x="352" y="906" type="qcurve"/>
      <point x="309" y="719"/>
      <point x="309" y="530" type="qcurve"/>
      <point x="309" y="49"/>
      <point x="608" y="-431" type="qcurve"/>
    </contour>
  </outline>
</glyph>
<glyph name="parenright" format="2">
  <advance width="682"/>
  <unicode hex="0029"/>
  <outline>
    <contour>
      <point x="253" y="-431" type="qcurve"/>
      <point x="124" y="-431" type="line"/>
      <point x="423" y="49"/>
      <point x="423" y="530" type="qcurve"/>
      <point x="423" y="718"/>
      <point x="380" y="903" type="qcurve"/>
      <point x="346" y="1053"/>
      <point x="285" y="1191" type="qcurve"/>
      <point x="246" y="1281"/>
      <point x="124" y="1491" type="qcurve"/>
      <point x="253" y="1491" type="line"/>
      <point x="441" y="1240"/>
      <point x="531" y="987" type="qcurve"/>
      <point x="608" y="769"/>
      <point x="608" y="531" type="qcurve"/>
      <point x="608" y="261"/>
      <point x="401" y="-243"/>
    </contour>
  </outline>
</glyph>
<glyph name="asterisk" format="2">
  <advance width="797"/>
  <unicode hex="002A"/>
  <outline>
    <contour>
      <point x="64" y="1197" type="qcurve"/>
      <point x="110" y="1339" type="line"/>
      <point x="269" y="1283"/>
      <point x="341" y="1242" type="qcurve"/>
      <point x="322" y="1423"/>
      <point x="321" y="1491" type="qcurve"/>
      <point x="466" y="1491" type="line"/>
      <point x="463" y="1392"/>
      <point x="443" y="1243" type="qcurve"/>
      <point x="546" y="1295"/>
      <point x="679" y="1339" type="qcurve"/>
      <point x="725" y="1197" type="line"/>
      <point x="598" y="1155"/>
      <point x="476" y="1141" type="qcurve"/>
      <point x="537" y="1088"/>
      <point x="648" y="952" type="qcurve"/>
      <point x="528" y="867" type="line"/>
      <point x="470" y="946"/>
      <point x="391" y="1082" type="qcurve"/>
      <point x="317" y="941"/>
      <point x="261" y="867" type="qcurve"/>
      <point x="143" y="952" type="line"/>
      <point x="259" y="1095"/>
      <point x="309" y="1141" type="qcurve"/>
      <point x="180" y="1166"/>
    </contour>
  </outline>
</glyph>
<glyph name="plus" format="2">
  <advance width="1196"/>
  <unicode hex="002B"/>
  <outline>
    <contour>
      <point x="513" y="237" type="line"/>
      <point x="513" y="639" type="line"/>
      <point x="114" y="639" type="line"/>
      <point x="114" y="807" type="line"/>
      <point x="513" y="807" type="line"/>
      <point x="513" y="1206" type="line"/>
      <point x="683" y="1206" type="line"/>
      <point x="683" y="807" type="line"/>
      <point x="1082" y="807" type="line"/>
      <point x="1082" y="639" type="line"/>
      <point x="683" y="639" type="line"/>
      <point x="683" y="237" type="line"/>
    </contour>
  </outline>
</glyph>
<glyph name="comma" format="2">
  <advance width="569"/>
  <unicode hex="002C"/>
  <outline>
    <contour>
      <point x="182" y="0" type="line"/>
      <point x="182" y="205" type="line"/>
      <point x="387" y="205" type="line"/>
      <point x="387" y="0" type="line"/>
      <point x="387" y="-113"/>
      <point x="307" y="-252"/>
      <point x="220" y="-290" type="qcurve"/>
      <point x="170" y="-213" type="line"/>
      <point x="227" y="-188"/>
      <point x="281" y="-91"/>
      <point x="284" y="0" type="qcurve"/>
    </contour>
  </outline>
</glyph>
<glyph name="hyphen" format="2">
  <advance width="682"/>
  <unicode hex="002D"/>
  <unicode hex="00AD"/>
  <outline>
    <contour>
      <point x="65" y="440" type="line"/>
      <point x="65" y="621" type="line"/>
      <point x="618" y="621" type="line"/>
      <point x="618" y="440" type="line"/>
    </contour>
  </outline>
</glyph>
<glyph name="period" format="2">
  <advance width="569"/>
  <unicode hex="002E"/>
  <outline>
    <contour>
      <point x="186" y="0" type="line"/>
      <point x="186" y="205" type="line"/>
      <point x="391" y="205" type="line"/>
      <point x="391" y="0" type="line"/>
    </contour>
  </outline>
</glyph>
<glyph name="slash" format="2">
  <advance width="569"/>
  <unicode hex="002F"/>
  <outline>
    <contour>
      <point x="0" y="-25" type="line"/>
      <point x="425" y="1491" type="line"/>
      <point x="569" y="1491" type="line"/>
      <point x="145" y="-25" type="line"/>
    </contour>
  </outline>
</glyph>
<glyph name="zero" format="2">
  <advance width="1139"/>
  <unicode hex="0030"/>
  <outline>
    <contour>
      <point x="85" y="723" type="qcurve"/>
      <point x="85" y="983"/>
      <point x="192" y="1300"/>
      <point x="403" y="1472"/>
      <point x="563" y="1472" type="qcurve"/>
      <point x="681" y="1472"/>
      <point x="859" y="1377"/>
      <point x="975" y="1198"/>
      <point x="1041" y="941"/>
      <point x="1041" y="723" type="qcurve"/>
      <point x="1041" y="465"/>
      <point x="935" y="148"/>
      <point x="724" y="-25"/>
      <point x="563" y="-25" type="qcurve"/>
      <point x="351" y="-25"/>
      <point x="230" y="127" type="qcurve"/>
      <point x="85" y="310"/>
    </contour>
    <contour>
      <point x="270" y="723" type="qcurve"/>
      <point x="270" y="362"/>
      <point x="439" y="123"/>
      <point x="563" y="123" type="qcurve"/>
      <point x="687" y="123"/>
      <point x="856" y="363"/>
      <point x="856" y="723" type="qcurve"/>
      <point x="856" y="1085"/>
      <point x="687" y="1323"/>
      <point x="561" y="1323" type="qcurve"/>
      <point x="437" y="1323"/>
      <point x="363" y="1218" type="qcurve"/>
      <point x="270" y="1084"/>
    </contour>
  </outline>
</glyph>
<glyph name="one" format="2">
  <advance width="1139"/>
  <unicode hex="0031"/>
  <outline>
    <contour>
      <point x="763" y="0" type="line"/>
      <point x="583" y="0" type="line"/>
      <point x="583" y="1147" type="line"/>
      <point x="518" y="1085"/>
      <point x="307" y="961"/>
      <point x="223" y="930" type="qcurve"/>
      <point x="223" y="1104" type="line"/>
      <point x="374" y="1175"/>
      <point x="600" y="1377"/>
      <point x="647" y="1472" type="qcurve"/>
      <point x="763" y="1472" type="line"/>
    </contour>
  </outline>
</glyph>
<glyph name="two" format="2">
  <advance width="1139"/>
  <unicode hex="0032"/>
  <outline>
    <contour>
      <point x="1031" y="173" type="line"/>
      <point x="1031" y="0" type="line"/>
      <point x="62" y="0" type="line"/>
      <point x="60" y="65"/>
      <point x="83" y="125" type="qcurve"/>
      <point x="120" y="224"/>
      <point x="283" y="416"/>
      <point x="437" y="542" type="qcurve"/>
      <point x="676" y="738"/>
      <point x="844" y="967"/>
      <point x="844" y="1069" type="qcurve"/>
      <point x="844" y="1176"/>
      <point x="691" y="1323"/>
      <point x="568" y="1323" type="qcurve"/>
      <point x="438" y="1323"/>
      <point x="282" y="1167"/>
      <point x="281" y="1029" type="qcurve"/>
      <point x="96" y="1048" type="line"/>
      <point x="115" y="1255"/>
      <point x="363" y="1472"/>
      <point x="572" y="1472" type="qcurve"/>
      <point x="783" y="1472"/>
      <point x="1029" y="1238"/>
      <point x="1029" y="1065" type="qcurve"/>
      <point x="1029" y="977"/>
      <point x="957" y="807"/>
      <point x="790" y="619"/>
      <point x="596" y="455" type="qcurve"/>
      <point x="434" y="319"/>
      <point x="342" y="222"/>
      <point x="312" y="173" type="qcurve"/>
    </contour>
  </outline>
</glyph>
<glyph name="three" format="2">
  <advance width="1139"/>
  <unicode hex="0033"/>
  <outline>
    <contour>
      <point x="86" y="387" type="qcurve"/>
      <point x="266" y="411" type="line"/>
      <point x="297" y="258"/>
      <point x="446" y="123"/>
      <point x="553" y="123" type="qcurve"/>
      <point x="680" y="123"/>
      <point x="855" y="299"/>
      <point x="855" y="429" type="qcurve"/>
      <point x="855" y="553"/>
      <point x="693" y="714"/>
      <point x="568" y="714" type="qcurve"/>
      <point x="517" y="714"/>
      <point x="441" y="694" type="qcurve"/>
      <point x="461" y="852" type="line"/>
      <point x="479" y="850"/>
      <point x="490" y="850" type="qcurve"/>
      <point x="605" y="850"/>
      <point x="789" y="970"/>
      <point x="789" y="1095" type="qcurve"/>
      <point x="789" y="1194"/>
      <point x="655" y="1324"/>
      <point x="549" y="1324" type="qcurve"/>
      <point x="444" y="1324"/>
      <point x="304" y="1192"/>
      <point x="284" y="1060" type="qcurve"/>
      <point x="104" y="1092" type="line"/>
      <point x="137" y="1273"/>
      <point x="371" y="1472"/>
      <point x="545" y="1472" type="qcurve"/>
      <point x="665" y="1472"/>
      <point x="867" y="1369"/>
      <point x="974" y="1191"/>
      <point x="974" y="1091" type="qcurve"/>
      <point x="974" y="996"/>
      <point x="872" y="840"/>
      <point x="772" y="794" type="qcurve"/>
      <point x="902" y="764"/>
      <point x="1046" y="575"/>
      <point x="1046" y="433" type="qcurve"/>
      <point x="1046" y="241"/>
      <point x="766" y="-26"/>
      <point x="552" y="-26" type="qcurve"/>
      <point x="359" y="-26"/>
      <point x="104" y="204"/>
    </contour>
  </outline>
</glyph>
<glyph name="four" format="2">
  <advance width="1139"/>
  <unicode hex="0034"/>
  <outline>
    <contour>
      <point x="662" y="0" type="line"/>
      <point x="662" y="351" type="line"/>
      <point x="26" y="351" type="line"/>
      <point x="26" y="516" type="line"/>
      <point x="695" y="1466" type="line"/>
      <point x="842" y="1466" type="line"/>
      <point x="842" y="516" type="line"/>
      <point x="1040" y="516" type="line"/>
      <point x="1040" y="351" type="line"/>
      <point x="842" y="351" type="line"/>
      <point x="842" y="0" type="line"/>
    </contour>
    <contour>
      <point x="662" y="516" type="line"/>
      <point x="662" y="1177" type="line"/>
      <point x="203" y="516" type="line"/>
    </contour>
  </outline>
</glyph>
<glyph name="five" format="2">
  <advance width="1139"/>
  <unicode hex="0035"/>
  <outline>
    <contour>
      <point x="85" y="384" type="qcurve"/>
      <point x="274" y="400" type="line"/>
      <point x="295" y="262"/>
      <point x="448" y="123"/>
      <point x="556" y="123" type="qcurve"/>
      <point x="686" y="123"/>
      <point x="866" y="319"/>
      <point x="866" y="481" type="qcurve"/>
      <point x="866" y="635"/>
      <point x="693" y="813"/>
      <point x="553" y="813" type="qcurve"/>
      <point x="466" y="813"/>
      <point x="326" y="734"/>
      <point x="286" y="671" type="qcurve"/>
      <point x="117" y="693" type="line"/>
      <point x="259" y="1446" type="line"/>
      <point x="988" y="1446" type="line"/>
      <point x="988" y="1274" type="line"/>
      <point x="403" y="1274" type="line"/>
      <point x="324" y="880" type="line"/>
      <point x="456" y="972"/>
      <point x="601" y="972" type="qcurve"/>
      <point x="793" y="972"/>
      <point x="1057" y="706"/>
      <point x="1057" y="497" type="qcurve"/>
      <point x="1057" y="298"/>
      <point x="941" y="153" type="qcurve"/>
      <point x="800" y="-25"/>
      <point x="556" y="-25" type="qcurve"/>
      <point x="356" y="-25"/>
      <point x="103" y="199"/>
    </contour>
  </outline>
</glyph>
<glyph name="six" format="2">
  <advance width="1139"/>
  <unicode hex="0036"/>
  <outline>
    <contour>
      <point x="1019" y="1107" type="qcurve"/>
      <point x="840" y="1093" type="line"/>
      <point x="816" y="1199"/>
      <point x="772" y="1247" type="qcurve"/>
      <point x="699" y="1324"/>
      <point x="592" y="1324" type="qcurve"/>
      <point x="506" y="1324"/>
      <point x="441" y="1276" type="qcurve"/>
      <point x="356" y="1214"/>
      <point x="258" y="976"/>
      <point x="256" y="756" type="qcurve"/>
      <point x="321" y="855"/>
      <point x="509" y="951"/>
      <point x="612" y="951" type="qcurve"/>
      <point x="792" y="951"/>
      <point x="1045" y="686"/>
      <point x="1045" y="476" type="qcurve"/>
      <point x="1045" y="338"/>
      <point x="926" y="101"/>
      <point x="718" y="-25"/>
      <point x="586" y="-25" type="qcurve"/>
      <point x="361" y="-25"/>
      <point x="77" y="306"/>
      <point x="77" y="686" type="qcurve"/>
      <point x="77" y="1111"/>
      <point x="234" y="1304" type="qcurve"/>
      <point x="371" y="1472"/>
      <point x="603" y="1472" type="qcurve"/>
      <point x="776" y="1472"/>
      <point x="997" y="1278"/>
    </contour>
    <contour>
      <point x="284" y="475" type="qcurve"/>
      <point x="284" y="382"/>
      <point x="363" y="212"/>
      <point x="505" y="123"/>
      <point x="583" y="123" type="qcurve"/>
      <point x="697" y="123"/>
      <point x="861" y="307"/>
      <point x="861" y="465" type="qcurve"/>
      <point x="861" y="617"/>
      <point x="699" y="792"/>
      <point x="576" y="792" type="qcurve"/>
      <point x="454" y="792"/>
      <point x="284" y="617"/>
    </contour>
  </outline>
</glyph>
<glyph name="seven" format="2">
  <advance width="1139"/>
  <unicode hex="0037"/>
  <outline>
    <contour>
      <point x="97" y="1274" type="line"/>
      <point x="97" y="1447" type="line"/>
      <point x="1046" y="1447" type="line"/>
      <point x="1046" y="1307" type="line"/>
      <point x="906" y="1158"/>
      <point x="631" y="664"/>
      <point x="556" y="403" type="qcurve"/>
      <point x="502" y="219"/>
      <point x="487" y="0" type="qcurve"/>
      <point x="302" y="0" type="line"/>
      <point x="305" y="173"/>
      <point x="435" y="663"/>
      <point x="678" y="1118"/>
      <point x="815" y="1274" type="qcurve"/>
    </contour>
  </outline>
</glyph>
<glyph name="eight" format="2">
  <advance width="1139"/>
  <unicode hex="0038"/>
  <outline>
    <contour>
      <point x="362" y="795" type="qcurve"/>
      <point x="250" y="836"/>
      <point x="142" y="988"/>
      <point x="142" y="1094" type="qcurve"/>
      <point x="142" y="1254"/>
      <point x="372" y="1472"/>
      <point x="563" y="1472" type="qcurve"/>
      <point x="755" y="1472"/>
      <point x="989" y="1249"/>
      <point x="989" y="1089" type="qcurve"/>
      <point x="989" y="987"/>
      <point x="882" y="836"/>
      <point x="773" y="795" type="qcurve"/>
      <point x="908" y="751"/>
      <point x="1049" y="555"/>
      <point x="1049" y="419" type="qcurve"/>
      <point x="1049" y="231"/>
      <point x="783" y="-25"/>
      <point x="566" y="-25" type="qcurve"/>
      <point x="349" y="-25"/>
      <point x="83" y="232"/>
      <point x="83" y="424" type="qcurve"/>
      <point x="83" y="567"/>
      <point x="228" y="760"/>
    </contour>
    <contour>
      <point x="326" y="1100" type="qcurve"/>
      <point x="326" y="996"/>
      <point x="460" y="864"/>
      <point x="567" y="864" type="qcurve"/>
      <point x="671" y="864"/>
      <point x="804" y="995"/>
      <point x="804" y="1090" type="qcurve"/>
      <point x="804" y="1189"/>
      <point x="667" y="1324"/>
      <point x="565" y="1324" type="qcurve"/>
      <point x="462" y="1324"/>
      <point x="326" y="1192"/>
    </contour>
    <contour>
      <point x="268" y="423" type="qcurve"/>
      <point x="268" y="346"/>
      <point x="341" y="202"/>
      <point x="485" y="123"/>
      <point x="568" y="123" type="qcurve"/>
      <point x="697" y="123"/>
      <point x="865" y="289"/>
      <point x="865" y="417" type="qcurve"/>
      <point x="865" y="547"/>
      <point x="692" y="717"/>
      <point x="562" y="717" type="qcurve"/>
      <point x="435" y="717"/>
      <point x="268" y="549"/>
    </contour>
  </outline>
</glyph>
<glyph name="nine" format="2">
  <advance width="1139"/>
  <unicode hex="0039"/>
  <outline>
    <contour>
      <point x="112" y="339" type="qcurve"/>
      <point x="285" y="355" type="line"/>
      <point x="307" y="233"/>
      <point x="431" y="123"/>
      <point x="528" y="123" type="qcurve"/>
      <point x="611" y="123"/>
      <point x="736" y="199"/>
      <point x="816" y="326"/>
      <point x="870" y="542"/>
      <point x="870" y="654" type="qcurve"/>
      <point x="870" y="666"/>
      <point x="869" y="690" type="qcurve"/>
      <point x="815" y="604"/>
      <point x="628" y="497"/>
      <point x="519" y="497" type="qcurve"/>
      <point x="337" y="497"/>
      <point x="85" y="761"/>
      <point x="85" y="977" type="qcurve"/>
      <point x="85" y="1200"/>
      <point x="348" y="1472"/>
      <point x="546" y="1472" type="qcurve"/>
      <point x="689" y="1472"/>
      <point x="926" y="1318"/>
      <point x="1049" y="1033"/>
      <point x="1049" y="763" type="qcurve"/>
      <point x="1049" y="482"/>
      <point x="927" y="149"/>
      <point x="686" y="-25"/>
      <point x="524" y="-25" type="qcurve"/>
      <point x="352" y="-25"/>
      <point x="134" y="166"/>
    </contour>
    <contour>
      <point x="849" y="986" type="qcurve"/>
      <point x="849" y="1141"/>
      <point x="684" y="1323"/>
      <point x="568" y="1323" type="qcurve"/>
      <point x="448" y="1323"/>
      <point x="270" y="1127"/>
      <point x="270" y="971" type="qcurve"/>
      <point x="270" y="831"/>
      <point x="439" y="656"/>
      <point x="563" y="656" type="qcurve"/>
      <point x="688" y="656"/>
      <point x="849" y="831"/>
    </contour>
  </outline>
</glyph>
<glyph name="colon" format="2">
  <advance width="569"/>
  <unicode hex="003A"/>
  <outline>
    <contour>
      <point x="185" y="857" type="line"/>
      <point x="185" y="1062" type="line"/>
      <point x="390" y="1062" type="line"/>
      <point x="390" y="857" type="line"/>
    </contour>
    <contour>
      <point x="185" y="0" type="line"/>
      <point x="185" y="205" type="line"/>
      <point x="390" y="205" type="line"/>
      <point x="390" y="0" type="line"/>
    </contour>
  </outline>
</glyph>
<glyph name="semicolon" format="2">
  <advance width="569"/>
  <unicode hex="003B"/>
  <unicode hex="037E"/>
  <outline>
    <contour>
      <point x="182" y="857" type="line"/>
      <point x="182" y="1062" type="line"/>
      <point x="387" y="1062" type="line"/>
      <point x="387" y="857" type="line"/>
    </contour>
    <contour>
      <point x="182" y="0" type="line"/>
      <point x="182" y="205" type="line"/>
      <point x="387" y="205" type="line"/>
      <point x="387" y="0" type="line"/>
      <point x="387" y="-113"/>
      <point x="307" y="-252"/>
      <point x="220" y="-290" type="qcurve"/>
      <point x="170" y="-213" type="line"/>
      <point x="227" y="-188"/>
      <point x="281" y="-91"/>
      <point x="284" y="0" type="qcurve"/>
    </contour>
  </outline>
</glyph>
<glyph name="less" format="2">
  <advance width="1196"/>
  <unicode hex="003C"/>
  <outline>
    <contour>
      <point x="112" y="641" type="line"/>
      <point x="112" y="809" type="line"/>
      <point x="1083" y="1219" type="line"/>
      <point x="1083" y="1040" type="line"/>
      <point x="313" y="724" type="line"/>
      <point x="1083" y="405" type="line"/>
      <point x="1083" y="226" type="line"/>
    </contour>
  </outline>
</glyph>
<glyph name="equal" format="2">
  <advance width="1196"/>
  <unicode hex="003D"/>
  <outline>
    <contour>
      <point x="1082" y="862" type="line"/>
      <point x="114" y="862" type="line"/>
      <point x="114" y="1030" type="line"/>
      <point x="1082" y="1030" type="line"/>
    </contour>
    <contour>
      <point x="1082" y="417" type="line"/>
      <point x="114" y="417" type="line"/>
      <point x="114" y="585" type="line"/>
      <point x="1082" y="585" type="line"/>
    </contour>
  </outline>
</glyph>
<glyph name="greater" format="2">
  <advance width="1196"/>
  <unicode hex="003E"/>
  <outline>
    <contour>
      <point x="1083" y="641" type="line"/>
      <point x="112" y="226" type="line"/>
      <point x="112" y="405" type="line"/>
      <point x="881" y="724" type="line"/>
      <point x="112" y="1040" type="line"/>
      <point x="112" y="1219" type="line"/>
      <point x="1083" y="809" type="line"/>
    </contour>
  </outline>
</glyph>
<glyph name="question" format="2">
  <advance width="1139"/>
  <unicode hex="003F"/>
  <outline>
    <contour>
      <point x="472" y="361" type="line"/>
      <point x="471" y="397"/>
      <point x="471" y="415" type="qcurve"/>
      <point x="471" y="521"/>
      <point x="501" y="598" type="qcurve"/>
      <point x="523" y="656"/>
      <point x="572" y="715" type="qcurve"/>
      <point x="608" y="758"/>
      <point x="795" y="923"/>
      <point x="851" y="1021"/>
      <point x="851" y="1079" type="qcurve"/>
      <point x="851" y="1184"/>
      <point x="687" y="1343"/>
      <point x="568" y="1343" type="qcurve"/>
      <point x="453" y="1343"/>
      <point x="299" y="1199"/>
      <point x="275" y="1046" type="qcurve"/>
      <point x="90" y="1068" type="line"/>
      <point x="115" y="1273"/>
      <point x="362" y="1491"/>
      <point x="565" y="1491" type="qcurve"/>
      <point x="780" y="1491"/>
      <point x="1036" y="1257"/>
      <point x="1036" y="1091" type="qcurve"/>
      <point x="1036" y="995"/>
      <point x="946" y="833"/>
      <point x="815" y="717" type="qcurve"/>
      <point x="727" y="639"/>
      <point x="673" y="565"/>
      <point x="647" y="469"/>
      <point x="645" y="361" type="qcurve"/>
    </contour>
    <contour>
      <point x="461" y="0" type="line"/>
      <point x="461" y="205" type="line"/>
      <point x="666" y="205" type="line"/>
      <point x="666" y="0" type="line"/>
    </contour>
  </outline>
</glyph>
<glyph name="at" format="2">
  <advance width="2079"/>
  <unicode hex="0040"/>
  <outline>
    <contour>
      <point x="1161" y="163" type="qcurve"/>
      <point x="1096" y="88"/>
      <point x="935" y="-3"/>
      <point x="854" y="-3" type="qcurve"/>
      <point x="765" y="-3"/>
      <point x="597" y="101"/>
      <point x="492" y="317"/>
      <point x="492" y="446" type="qcurve"/>
      <point x="492" y="605"/>
      <point x="655" y="924"/>
      <point x="897" y="1084"/>
      <point x="1011" y="1084" type="qcurve"/>
      <point x="1098" y="1084"/>
      <point x="1256" y="993"/>
      <point x="1313" y="900" type="qcurve"/>
      <point x="1347" y="1055" type="line"/>
      <point x="1526" y="1055" type="line"/>
      <point x="1382" y="384" type="line"/>
      <point x="1352" y="244"/>
      <point x="1352" y="229" type="qcurve"/>
      <point x="1352" y="202"/>
      <point x="1393" y="163"/>
      <point x="1422" y="163" type="qcurve"/>
      <point x="1475" y="163"/>
      <point x="1561" y="224" type="qcurve"/>
      <point x="1675" y="304"/>
      <point x="1808" y="573"/>
      <point x="1808" y="716" type="qcurve"/>
      <point x="1808" y="883"/>
      <point x="1637" y="1173"/>
      <point x="1298" y="1347"/>
      <point x="1093" y="1347" type="qcurve"/>
      <point x="859" y="1347"/>
      <point x="472" y="1128"/>
      <point x="259" y="719"/>
      <point x="259" y="485" type="qcurve"/>
      <point x="259" y="240"/>
      <point x="472" y="-114"/>
      <point x="875" y="-283"/>
      <point x="1120" y="-283" type="qcurve"/>
      <point x="1382" y="-283"/>
      <point x="1736" y="-107"/>
      <point x="1824" y="19" type="qcurve"/>
      <point x="2005" y="19" type="line"/>
      <point x="1954" y="-86"/>
      <point x="1706" y="-304"/>
      <point x="1364" y="-431"/>
      <point x="1123" y="-431" type="qcurve"/>
      <point x="901" y="-431"/>
      <point x="526" y="-317"/>
      <point x="262" y="-88"/>
      <point x="195" y="61" type="qcurve"/>
      <point x="111" y="250"/>
      <point x="111" y="469" type="qcurve"/>
      <point x="111" y="713"/>
      <point x="211" y="934" type="qcurve"/>
      <point x="333" y="1205"/>
      <point x="782" y="1493"/>
      <point x="1102" y="1493" type="qcurve"/>
      <point x="1350" y="1493"/>
      <point x="1745" y="1290"/>
      <point x="1859" y="1089" type="qcurve"/>
      <point x="1956" y="916"/>
      <point x="1956" y="713" type="qcurve"/>
      <point x="1956" y="423"/>
      <point x="1752" y="198" type="qcurve"/>
      <point x="1570" y="-4"/>
      <point x="1354" y="-4" type="qcurve"/>
      <point x="1285" y="-4"/>
      <point x="1200" y="38"/>
      <point x="1180" y="77" type="qcurve"/>
      <point x="1167" y="102"/>
    </contour>
    <contour>
      <point x="677" y="434" type="qcurve"/>
      <point x="677" y="297"/>
      <point x="807" y="145"/>
      <point x="891" y="145" type="qcurve"/>
      <point x="947" y="145"/>
      <point x="1071" y="212"/>
      <point x="1184" y="344"/>
      <point x="1256" y="547"/>
      <point x="1256" y="649" type="qcurve"/>
      <point x="1256" y="785"/>
      <point x="1121" y="935"/>
      <point x="1024" y="935" type="qcurve"/>
      <point x="960" y="935"/>
      <point x="847" y="870"/>
      <point x="741" y="726"/>
      <point x="677" y="520"/>
    </contour>
  </outline>
</glyph>
<glyph name="A" format="2">
  <advance width="1366"/>
  <unicode hex="0041"/>
  <outline>
    <contour>
      <point x="-3" y="0" type="line"/>
      <point x="560" y="1466" type="line"/>
      <point x="769" y="1466" type="line"/>
      <point x="1369" y="0" type="line"/>
      <point x="1148" y="0" type="line"/>
      <point x="977" y="444" type="line"/>
      <point x="364" y="444" type="line"/>
      <point x="203" y="0" type="line"/>
    </contour>
    <contour>
      <point x="420" y="602" type="line"/>
      <point x="917" y="602" type="line"/>
      <point x="764" y="1008" type="line"/>
      <point x="694" y="1193"/>
      <point x="660" y="1312" type="qcurve"/>
      <point x="632" y="1171"/>
      <point x="581" y="1032" type="qcurve"/>
    </contour>
  </outline>
</glyph>
<glyph name="B" format="2">
  <advance width="1366"/>
  <unicode hex="0042"/>
  <outline>
    <contour>
      <point x="150" y="0" type="line"/>
      <point x="150" y="1466" type="line"/>
      <point x="700" y="1466" type="line"/>
      <point x="868" y="1466"/>
      <point x="1071" y="1377"/>
      <point x="1186" y="1192"/>
      <point x="1186" y="1091" type="qcurve"/>
      <point x="1186" y="997"/>
      <point x="1084" y="831"/>
      <point x="981" y="780" type="qcurve"/>
      <point x="1114" y="741"/>
      <point x="1257" y="553"/>
      <point x="1257" y="425" type="qcurve"/>
      <point x="1257" y="322"/>
      <point x="1170" y="145"/>
      <point x="1042" y="49"/>
      <point x="849" y="0"/>
      <point x="709" y="0" type="qcurve"/>
    </contour>
    <contour>
      <point x="344" y="850" type="line"/>
      <point x="661" y="850" type="line"/>
      <point x="790" y="850"/>
      <point x="846" y="867" type="qcurve"/>
      <point x="920" y="889"/>
      <point x="995" y="991"/>
      <point x="995" y="1068" type="qcurve"/>
      <point x="995" y="1141"/>
      <point x="925" y="1252"/>
      <point x="795" y="1293"/>
      <point x="637" y="1293" type="qcurve"/>
      <point x="344" y="1293" type="line"/>
    </contour>
    <contour>
      <point x="344" y="173" type="line"/>
      <point x="709" y="173" type="line"/>
      <point x="803" y="173"/>
      <point x="841" y="180" type="qcurve"/>
      <point x="908" y="192"/>
      <point x="998" y="248"/>
      <point x="1056" y="355"/>
      <point x="1056" y="425" type="qcurve"/>
      <point x="1056" y="507"/>
      <point x="972" y="628"/>
      <point x="823" y="677"/>
      <point x="683" y="677" type="qcurve"/>
      <point x="344" y="677" type="line"/>
    </contour>
  </outline>
</glyph>
<glyph name="C" format="2">
  <advance width="1479"/>
  <unicode hex="0043"/>
  <outline>
    <contour>
      <point x="1204" y="514" type="qcurve"/>
      <point x="1398" y="465" type="line"/>
      <point x="1337" y="226"/>
      <point x="1020" y="-25"/>
      <point x="791" y="-25" type="qcurve"/>
      <point x="554" y="-25"/>
      <point x="257" y="168"/>
      <point x="102" y="534"/>
      <point x="102" y="744" type="qcurve"/>
      <point x="102" y="973"/>
      <point x="277" y="1314"/>
      <point x="600" y="1491"/>
      <point x="794" y="1491" type="qcurve"/>
      <point x="1014" y="1491"/>
      <point x="1314" y="1267"/>
      <point x="1373" y="1064" type="qcurve"/>
      <point x="1182" y="1019" type="line"/>
      <point x="1131" y="1179"/>
      <point x="937" y="1325"/>
      <point x="790" y="1325" type="qcurve"/>
      <point x="621" y="1325"/>
      <point x="394" y="1163"/>
      <point x="302" y="890"/>
      <point x="302" y="745" type="qcurve"/>
      <point x="302" y="558"/>
      <point x="411" y="279"/>
      <point x="641" y="141"/>
      <point x="775" y="141" type="qcurve"/>
      <point x="938" y="141"/>
      <point x="1164" y="329"/>
    </contour>
  </outline>
</glyph>
<glyph name="D" format="2">
  <advance width="1479"/>
  <unicode hex="0044"/>
  <outline>
    <contour>
      <point x="158" y="0" type="line"/>
      <point x="158" y="1466" type="line"/>
      <point x="663" y="1466" type="line"/>
      <point x="834" y="1466"/>
      <point x="924" y="1445" type="qcurve"/>
      <point x="1050" y="1416"/>
      <point x="1139" y="1340" type="qcurve"/>
      <point x="1255" y="1242"/>
      <point x="1370" y="937"/>
      <point x="1370" y="741" type="qcurve"/>
      <point x="1370" y="574"/>
      <point x="1292" y="316"/>
      <point x="1170" y="147"/>
      <point x="1025" y="50"/>
      <point x="820" y="0"/>
      <point x="687" y="0" type="qcurve"/>
    </contour>
    <contour>
      <point x="352" y="173" type="line"/>
      <point x="665" y="173" type="line"/>
      <point x="810" y="173"/>
      <point x="975" y="227"/>
      <point x="1024" y="276" type="qcurve"/>
      <point x="1093" y="345"/>
      <point x="1170" y="578"/>
      <point x="1170" y="744" type="qcurve"/>
      <point x="1170" y="974"/>
      <point x="1019" y="1221"/>
      <point x="911" y="1263" type="qcurve"/>
      <point x="833" y="1293"/>
      <point x="660" y="1293" type="qcurve"/>
      <point x="352" y="1293" type="line"/>
    </contour>
  </outline>
</glyph>
<glyph name="E" format="2">
  <advance width="1366"/>
  <unicode hex="0045"/>
  <outline>
    <contour>
      <point x="162" y="0" type="line"/>
      <point x="162" y="1466" type="line"/>
      <point x="1222" y="1466" type="line"/>
      <point x="1222" y="1293" type="line"/>
      <point x="356" y="1293" type="line"/>
      <point x="356" y="844" type="line"/>
      <point x="1167" y="844" type="line"/>
      <point x="1167" y="672" type="line"/>
      <point x="356" y="672" type="line"/>
      <point x="356" y="173" type="line"/>
      <point x="1256" y="173" type="line"/>
      <point x="1256" y="0" type="line"/>
    </contour>
  </outline>
</glyph>
<glyph name="F" format="2">
  <advance width="1251"/>
  <unicode hex="0046"/>
  <outline>
    <contour>
      <point x="168" y="0" type="line"/>
      <point x="168" y="1466" type="line"/>
      <point x="1157" y="1466" type="line"/>
      <point x="1157" y="1293" type="line"/>
      <point x="362" y="1293" type="line"/>
      <point x="362" y="839" type="line"/>
      <point x="1050" y="839" type="line"/>
      <point x="1050" y="666" type="line"/>
      <point x="362" y="666" type="line"/>
      <point x="362" y="0" type="line"/>
    </contour>
  </outline>
</glyph>
<glyph name="G" format="2">
  <advance width="1593"/>
  <unicode hex="0047"/>
  <outline>
    <contour>
      <point x="844" y="575" type="line"/>
      <point x="844" y="747" type="line"/>
      <point x="1465" y="748" type="line"/>
      <point x="1465" y="204" type="line"/>
      <point x="1322" y="90"/>
      <point x="1018" y="-25"/>
      <point x="858" y="-25" type="qcurve"/>
      <point x="642" y="-25"/>
      <point x="289" y="160"/>
      <point x="109" y="510"/>
      <point x="109" y="726" type="qcurve"/>
      <point x="109" y="940"/>
      <point x="288" y="1311"/>
      <point x="624" y="1491"/>
      <point x="843" y="1491" type="qcurve"/>
      <point x="1002" y="1491"/>
      <point x="1259" y="1388"/>
      <point x="1405" y="1204"/>
      <point x="1443" y="1056" type="qcurve"/>
      <point x="1268" y="1008" type="line"/>
      <point x="1235" y="1120"/>
      <point x="1137" y="1248"/>
      <point x="955" y="1325"/>
      <point x="844" y="1325" type="qcurve"/>
      <point x="711" y="1325"/>
      <point x="517" y="1244"/>
      <point x="398" y="1112"/>
      <point x="365" y="1033" type="qcurve"/>
      <point x="309" y="897"/>
      <point x="309" y="738" type="qcurve"/>
      <point x="309" y="542"/>
      <point x="444" y="278"/>
      <point x="702" y="150"/>
      <point x="847" y="150" type="qcurve"/>
      <point x="973" y="150"/>
      <point x="1213" y="247"/>
      <point x="1275" y="302" type="qcurve"/>
      <point x="1275" y="575" type="line"/>
    </contour>
  </outline>
</glyph>
<glyph name="H" format="2">
  <advance width="1479"/>
  <unicode hex="0048"/>
  <outline>
    <contour>
      <point x="164" y="0" type="line"/>
      <point x="164" y="1466" type="line"/>
      <point x="358" y="1466" type="line"/>
      <point x="358" y="864" type="line"/>
      <point x="1120" y="864" type="line"/>
      <point x="1120" y="1466" type="line"/>
      <point x="1314" y="1466" type="line"/>
      <point x="1314" y="0" type="line"/>
      <point x="1120" y="0" type="line"/>
      <point x="1120" y="691" type="line"/>
      <point x="358" y="691" type="line"/>
      <point x="358" y="0" type="line"/>
    </contour>
  </outline>
</glyph>
<glyph name="I" format="2">
  <advance width="569"/>
  <unicode hex="0049"/>
  <outline>
    <contour>
      <point x="191" y="0" type="line"/>
      <point x="191" y="1466" type="line"/>
      <point x="385" y="1466" type="line"/>
      <point x="385" y="0" type="line"/>
    </contour>
  </outline>
</glyph>
<glyph name="J" format="2">
  <advance width="1024"/>
  <unicode hex="004A"/>
  <outline>
    <contour>
      <point x="59" y="416" type="qcurve"/>
      <point x="234" y="440" type="line"/>
      <point x="241" y="272"/>
      <point x="353" y="148"/>
      <point x="452" y="148" type="qcurve"/>
      <point x="525" y="148"/>
      <point x="631" y="215"/>
      <point x="671" y="330"/>
      <point x="671" y="456" type="qcurve"/>
      <point x="671" y="1466" type="line"/>
      <point x="865" y="1466" type="line"/>
      <point x="865" y="467" type="line"/>
      <point x="865" y="283"/>
      <point x="776" y="81"/>
      <point x="583" y="-25"/>
      <point x="453" y="-25" type="qcurve"/>
      <point x="260" y="-25"/>
      <point x="55" y="197"/>
    </contour>
  </outline>
</glyph>
<glyph name="K" format="2">
  <advance width="1366"/>
  <unicode hex="004B"/>
  <outline>
    <contour>
      <point x="150" y="0" type="line"/>
      <point x="150" y="1466" type="line"/>
      <point x="344" y="1466" type="line"/>
      <point x="344" y="739" type="line"/>
      <point x="1072" y="1466" type="line"/>
      <point x="1335" y="1466" type="line"/>
      <point x="720" y="872" type="line"/>
      <point x="1362" y="0" type="line"/>
      <point x="1106" y="0" type="line"/>
      <point x="584" y="742" type="line"/>
      <point x="344" y="508" type="line"/>
      <point x="344" y="0" type="line"/>
    </contour>
  </outline>
</glyph>
<glyph name="L" format="2">
  <advance width="1139"/>
  <unicode hex="004C"/>
  <outline>
    <contour>
      <point x="150" y="0" type="line"/>
      <point x="150" y="1466" type="line"/>
      <point x="344" y="1466" type="line"/>
      <point x="344" y="173" type="line"/>
      <point x="1066" y="173" type="line"/>
      <point x="1066" y="0" type="line"/>
    </contour>
  </outline>
</glyph>
<glyph name="M" format="2">
  <advance width="1706"/>
  <unicode hex="004D"/>
  <outline>
    <contour>
      <point x="152" y="0" type="line"/>
      <point x="152" y="1466" type="line"/>
      <point x="444" y="1466" type="line"/>
      <point x="791" y="428" type="line"/>
      <point x="839" y="283"/>
      <point x="861" y="211" type="qcurve"/>
      <point x="886" y="291"/>
      <point x="939" y="446" type="qcurve"/>
      <point x="1290" y="1466" type="line"/>
      <point x="1551" y="1466" type="line"/>
      <point x="1551" y="0" type="line"/>
      <point x="1364" y="0" type="line"/>
      <point x="1364" y="1227" type="line"/>
      <point x="938" y="0" type="line"/>
      <point x="763" y="0" type="line"/>
      <point x="339" y="1248" type="line"/>
      <point x="339" y="0" type="line"/>
    </contour>
  </outline>
</glyph>
<glyph name="N" format="2">
  <advance width="1479"/>
  <unicode hex="004E"/>
  <outline>
    <contour>
      <point x="156" y="0" type="line"/>
      <point x="156" y="1466" type="line"/>
      <point x="355" y="1466" type="line"/>
      <point x="1125" y="315" type="line"/>
      <point x="1125" y="1466" type="line"/>
      <point x="1311" y="1466" type="line"/>
      <point x="1311" y="0" type="line"/>
      <point x="1112" y="0" type="line"/>
      <point x="342" y="1152" type="line"/>
      <point x="342" y="0" type="line"/>
    </contour>
  </outline>
</glyph>
<glyph name="O" format="2">
  <advance width="1593"/>
  <unicode hex="004F"/>
  <outline>
    <contour>
      <point x="99" y="714" type="qcurve"/>
      <point x="99" y="1079"/>
      <point x="491" y="1492"/>
      <point x="801" y="1492" type="qcurve"/>
      <point x="1004" y="1492"/>
      <point x="1330" y="1298"/>
      <point x="1501" y="951"/>
      <point x="1501" y="731" type="qcurve"/>
      <point x="1501" y="508"/>
      <point x="1321" y="156"/>
      <point x="991" y="-25"/>
      <point x="800" y="-25" type="qcurve"/>
      <point x="593" y="-25"/>
      <point x="267" y="175"/>
      <point x="99" y="521"/>
    </contour>
    <contour>
      <point x="299" y="711" type="qcurve"/>
      <point x="299" y="446"/>
      <point x="584" y="141"/>
      <point x="799" y="141" type="qcurve"/>
      <point x="1018" y="141"/>
      <point x="1301" y="449"/>
      <point x="1301" y="732" type="qcurve"/>
      <point x="1301" y="911"/>
      <point x="1180" y="1178"/>
      <point x="947" y="1325"/>
      <point x="802" y="1325" type="qcurve"/>
      <point x="596" y="1325"/>
      <point x="299" y="1042"/>
    </contour>
  </outline>
</glyph>
<glyph name="P" format="2">
  <advance width="1366"/>
  <unicode hex="0050"/>
  <outline>
    <contour>
      <point x="158" y="0" type="line"/>
      <point x="158" y="1466" type="line"/>
      <point x="711" y="1466" type="line"/>
      <point x="857" y="1466"/>
      <point x="934" y="1452" type="qcurve"/>
      <point x="1042" y="1434"/>
      <point x="1188" y="1333"/>
      <point x="1277" y="1151"/>
      <point x="1277" y="1042" type="qcurve"/>
      <point x="1277" y="855"/>
      <point x="1039" y="596"/>
      <point x="728" y="596" type="qcurve"/>
      <point x="352" y="596" type="line"/>
      <point x="352" y="0" type="line"/>
    </contour>
    <contour>
      <point x="352" y="769" type="line"/>
      <point x="731" y="769" type="line"/>
      <point x="919" y="769"/>
      <point x="1077" y="909"/>
      <point x="1077" y="1036" type="qcurve"/>
      <point x="1077" y="1128"/>
      <point x="984" y="1259"/>
      <point x="908" y="1280" type="qcurve"/>
      <point x="859" y="1293"/>
      <point x="727" y="1293" type="qcurve"/>
      <point x="352" y="1293" type="line"/>
    </contour>
  </outline>
</glyph>
<glyph name="Q" format="2">
  <advance width="1593"/>
  <unicode hex="0051"/>
  <outline>
    <contour>
      <point x="1269" y="157" type="qcurve"/>
      <point x="1404" y="64"/>
      <point x="1518" y="21" type="qcurve"/>
      <point x="1461" y="-114" type="line"/>
      <point x="1303" y="-57"/>
      <point x="1146" y="66" type="qcurve"/>
      <point x="983" y="-25"/>
      <point x="786" y="-25" type="qcurve"/>
      <point x="587" y="-25"/>
      <point x="263" y="167"/>
      <point x="88" y="515"/>
      <point x="88" y="733" type="qcurve"/>
      <point x="88" y="950"/>
      <point x="264" y="1306"/>
      <point x="589" y="1492"/>
      <point x="790" y="1492" type="qcurve"/>
      <point x="993" y="1492"/>
      <point x="1319" y="1299"/>
      <point x="1490" y="952"/>
      <point x="1490" y="734" type="qcurve"/>
      <point x="1490" y="553"/>
      <point x="1380" y="264"/>
    </contour>
    <contour>
      <point x="842" y="405" type="line"/>
      <point x="1010" y="358"/>
      <point x="1119" y="265" type="qcurve"/>
      <point x="1290" y="421"/>
      <point x="1290" y="734" type="qcurve"/>
      <point x="1290" y="912"/>
      <point x="1169" y="1178"/>
      <point x="936" y="1325"/>
      <point x="791" y="1325" type="qcurve"/>
      <point x="574" y="1325"/>
      <point x="288" y="1028"/>
      <point x="288" y="733" type="qcurve"/>
      <point x="288" y="447"/>
      <point x="571" y="141"/>
      <point x="791" y="141" type="qcurve"/>
      <point x="895" y="141"/>
      <point x="987" y="180" type="qcurve"/>
      <point x="896" y="239"/>
      <point x="795" y="264" type="qcurve"/>
    </contour>
  </outline>
</glyph>
<glyph name="R" format="2">
  <advance width="1479"/>
  <unicode hex="0052"/>
  <outline>
    <contour>
      <point x="161" y="0" type="line"/>
      <point x="161" y="1466" type="line"/>
      <point x="811" y="1466" type="line"/>
      <point x="1007" y="1466"/>
      <point x="1211" y="1387"/>
      <point x="1333" y="1187"/>
      <point x="1333" y="1066" type="qcurve"/>
      <point x="1333" y="910"/>
      <point x="1131" y="696"/>
      <point x="920" y="667" type="qcurve"/>
      <point x="997" y="630"/>
      <point x="1037" y="594" type="qcurve"/>
      <point x="1122" y="516"/>
      <point x="1198" y="399" type="qcurve"/>
      <point x="1453" y="0" type="line"/>
      <point x="1209" y="0" type="line"/>
      <point x="1015" y="305" type="line"/>
      <point x="930" y="437"/>
      <point x="820" y="577"/>
      <point x="733" y="633"/>
      <point x="688" y="644" type="qcurve"/>
      <point x="655" y="651"/>
      <point x="580" y="651" type="qcurve"/>
      <point x="355" y="651" type="line"/>
      <point x="355" y="0" type="line"/>
    </contour>
    <contour>
      <point x="355" y="819" type="line"/>
      <point x="772" y="819" type="line"/>
      <point x="905" y="819"/>
      <point x="1055" y="874"/>
      <point x="1133" y="995"/>
      <point x="1133" y="1066" type="qcurve"/>
      <point x="1133" y="1170"/>
      <point x="982" y="1304"/>
      <point x="819" y="1304" type="qcurve"/>
      <point x="355" y="1304" type="line"/>
    </contour>
  </outline>
</glyph>
<glyph name="S" format="2">
  <advance width="1366"/>
  <unicode hex="0053"/>
  <outline>
    <contour>
      <point x="92" y="471" type="qcurve"/>
      <point x="275" y="487" type="line"/>
      <point x="288" y="377"/>
      <point x="383" y="236"/>
      <point x="583" y="149"/>
      <point x="708" y="149" type="qcurve"/>
      <point x="819" y="149"/>
      <point x="989" y="215"/>
      <point x="1072" y="330"/>
      <point x="1072" y="398" type="qcurve"/>
      <point x="1072" y="467"/>
      <point x="992" y="570"/>
      <point x="900" y="605" type="qcurve"/>
      <point x="841" y="628"/>
      <point x="437" y="725"/>
      <point x="356" y="768" type="qcurve"/>
      <point x="251" y="823"/>
      <point x="148" y="986"/>
      <point x="148" y="1087" type="qcurve"/>
      <point x="148" y="1198"/>
      <point x="274" y="1391"/>
      <point x="516" y="1491"/>
      <point x="664" y="1491" type="qcurve"/>
      <point x="827" y="1491"/>
      <point x="1076" y="1386"/>
      <point x="1210" y="1182"/>
      <point x="1215" y="1053" type="qcurve"/>
      <point x="1029" y="1039" type="line"/>
      <point x="1014" y="1178"/>
      <point x="841" y="1320"/>
      <point x="672" y="1320" type="qcurve"/>
      <point x="496" y="1320"/>
      <point x="335" y="1191"/>
      <point x="335" y="1100" type="qcurve"/>
      <point x="335" y="1021"/>
      <point x="392" y="970" type="qcurve"/>
      <point x="448" y="919"/>
      <point x="921" y="812"/>
      <point x="1009" y="772" type="qcurve"/>
      <point x="1137" y="713"/>
      <point x="1259" y="532"/>
      <point x="1259" y="414" type="qcurve"/>
      <point x="1259" y="297"/>
      <point x="1125" y="90"/>
      <point x="874" y="-25"/>
      <point x="717" y="-25" type="qcurve"/>
      <point x="518" y="-25"/>
      <point x="249" y="91"/>
      <point x="96" y="324"/>
    </contour>
  </outline>
</glyph>
<glyph name="T" format="2">
  <advance width="1251"/>
  <unicode hex="0054"/>
  <outline>
    <contour>
      <point x="531" y="0" type="line"/>
      <point x="531" y="1293" type="line"/>
      <point x="48" y="1293" type="line"/>
      <point x="48" y="1466" type="line"/>
      <point x="1210" y="1466" type="line"/>
      <point x="1210" y="1293" type="line"/>
      <point x="725" y="1293" type="line"/>
      <point x="725" y="0" type="line"/>
    </contour>
  </outline>
</glyph>
<glyph name="U" format="2">
  <advance width="1479"/>
  <unicode hex="0055"/>
  <outline>
    <contour>
      <point x="1120" y="1466" type="line"/>
      <point x="1314" y="1466" type="line"/>
      <point x="1314" y="619" type="line"/>
      <point x="1314" y="398"/>
      <point x="1214" y="138"/>
      <point x="953" y="-25"/>
      <point x="741" y="-25" type="qcurve"/>
      <point x="535" y="-25"/>
      <point x="273" y="117"/>
      <point x="161" y="386"/>
      <point x="161" y="619" type="qcurve"/>
      <point x="161" y="1466" type="line"/>
      <point x="355" y="1466" type="line"/>
      <point x="355" y="620" type="line"/>
      <point x="355" y="429"/>
      <point x="426" y="248"/>
      <point x="599" y="150"/>
      <point x="724" y="150" type="qcurve"/>
      <point x="938" y="150"/>
      <point x="1120" y="344"/>
      <point x="1120" y="620" type="qcurve"/>
    </contour>
  </outline>
</glyph>
<glyph name="V" format="2">
  <advance width="1366"/>
  <unicode hex="0056"/>
  <outline>
    <contour>
      <point x="577" y="0" type="line"/>
      <point x="9" y="1466" type="line"/>
      <point x="219" y="1466" type="line"/>
      <point x="600" y="401" type="line"/>
      <point x="646" y="273"/>
      <point x="677" y="161" type="qcurve"/>
      <point x="711" y="281"/>
      <point x="756" y="401" type="qcurve"/>
      <point x="1152" y="1466" type="line"/>
      <point x="1350" y="1466" type="line"/>
      <point x="776" y="0" type="line"/>
    </contour>
  </outline>
</glyph>
<glyph name="W" format="2">
  <advance width="1933"/>
  <unicode hex="0057"/>
  <outline>
    <contour>
      <point x="414" y="0" type="line"/>
      <point x="25" y="1466" type="line"/>
      <point x="224" y="1466" type="line"/>
      <point x="447" y="505" type="line"/>
      <point x="483" y="354"/>
      <point x="509" y="205" type="qcurve"/>
      <point x="565" y="440"/>
      <point x="575" y="476" type="qcurve"/>
      <point x="854" y="1466" type="line"/>
      <point x="1088" y="1466" type="line"/>
      <point x="1298" y="724" type="line"/>
      <point x="1377" y="448"/>
      <point x="1412" y="205" type="qcurve"/>
      <point x="1440" y="344"/>
      <point x="1485" y="524" type="qcurve"/>
      <point x="1715" y="1466" type="line"/>
      <point x="1910" y="1466" type="line"/>
      <point x="1508" y="0" type="line"/>
      <point x="1321" y="0" type="line"/>
      <point x="1012" y="1117" type="line"/>
      <point x="973" y="1257"/>
      <point x="966" y="1289" type="qcurve"/>
      <point x="943" y="1188"/>
      <point x="923" y="1117" type="qcurve"/>
      <point x="612" y="0" type="line"/>
    </contour>
  </outline>
</glyph>
<glyph name="X" format="2">
  <advance width="1366"/>
  <unicode hex="0058"/>
  <outline>
    <contour>
      <point x="9" y="0" type="line"/>
      <point x="576" y="764" type="line"/>
      <point x="76" y="1466" type="line"/>
      <point x="307" y="1466" type="line"/>
      <point x="573" y="1090" type="line"/>
      <point x="656" y="973"/>
      <point x="691" y="910" type="qcurve"/>
      <point x="740" y="990"/>
      <point x="807" y="1077" type="qcurve"/>
      <point x="1102" y="1466" type="line"/>
      <point x="1313" y="1466" type="line"/>
      <point x="798" y="775" type="line"/>
      <point x="1353" y="0" type="line"/>
      <point x="1113" y="0" type="line"/>
      <point x="744" y="523" type="line"/>
      <point x="713" y="568"/>
      <point x="680" y="621" type="qcurve"/>
      <point x="631" y="541"/>
      <point x="610" y="511" type="qcurve"/>
      <point x="242" y="0" type="line"/>
    </contour>
  </outline>
</glyph>
<glyph name="Y" format="2">
  <advance width="1366"/>
  <unicode hex="0059"/>
  <outline>
    <contour>
      <point x="571" y="0" type="line"/>
      <point x="571" y="621" type="line"/>
      <point x="6" y="1466" type="line"/>
      <point x="242" y="1466" type="line"/>
      <point x="531" y="1024" type="line"/>
      <point x="611" y="900"/>
      <point x="680" y="776" type="qcurve"/>
      <point x="746" y="891"/>
      <point x="840" y="1035" type="qcurve"/>
      <point x="1124" y="1466" type="line"/>
      <point x="1350" y="1466" type="line"/>
      <point x="765" y="621" type="line"/>
      <point x="765" y="0" type="line"/>
    </contour>
  </outline>
</glyph>
<glyph name="Z" format="2">
  <advance width="1251"/>
  <unicode hex="005A"/>
  <outline>
    <contour>
      <point x="41" y="0" type="line"/>
      <point x="41" y="180" type="line"/>
      <point x="792" y="1119" type="line"/>
      <point x="872" y="1219"/>
      <point x="944" y="1293" type="qcurve"/>
      <point x="126" y="1293" type="line"/>
      <point x="126" y="1466" type="line"/>
      <point x="1176" y="1466" type="line"/>
      <point x="1176" y="1293" type="line"/>
      <point x="353" y="276" type="line"/>
      <point x="264" y="173" type="line"/>
      <point x="1200" y="173" type="line"/>
      <point x="1200" y="0" type="line"/>
    </contour>
  </outline>
</glyph>
<glyph name="bracketleft" format="2">
  <advance width="569"/>
  <unicode hex="005B"/>
  <outline>
    <contour>
      <point x="139" y="-407" type="line"/>
      <point x="139" y="1466" type="line"/>
      <point x="536" y="1466" type="line"/>
      <point x="536" y="1317" type="line"/>
      <point x="319" y="1317" type="line"/>
      <point x="319" y="-258" type="line"/>
      <point x="536" y="-258" type="line"/>
      <point x="536" y="-407" type="line"/>
    </contour>
  </outline>
</glyph>
<glyph name="backslash" format="2">
  <advance width="569"/>
  <unicode hex="005C"/>
  <outline>
    <contour>
      <point x="425" y="-25" type="line"/>
      <point x="0" y="1491" type="line"/>
      <point x="145" y="1491" type="line"/>
      <point x="569" y="-25" type="line"/>
    </contour>
  </outline>
</glyph>
<glyph name="bracketright" format="2">
  <advance width="569"/>
  <unicode hex="005D"/>
  <outline>
    <contour>
      <point x="436" y="-407" type="line"/>
      <point x="39" y="-407" type="line"/>
      <point x="39" y="-258" type="line"/>
      <point x="256" y="-258" type="line"/>
      <point x="256" y="1317" type="line"/>
      <point x="39" y="1317" type="line"/>
      <point x="39" y="1466" type="line"/>
      <point x="436" y="1466" type="line"/>
    </contour>
  </outline>
</glyph>
<glyph name="asciicircum" format="2">
  <advance width="961"/>
  <unicode hex="005E"/>
  <outline>
    <contour>
      <point x="239" y="690" type="line"/>
      <point x="54" y="690" type="line"/>
      <point x="407" y="1491" type="line"/>
      <point x="552" y="1491" type="line"/>
      <point x="907" y="690" type="line"/>
      <point x="726" y="690" type="line"/>
      <point x="479" y="1287" type="line"/>
    </contour>
  </outline>
</glyph>
<glyph name="underscore" format="2">
  <advance width="1139"/>
  <unicode hex="005F"/>
  <outline>
    <contour>
      <point x="-31" y="-407" type="line"/>
      <point x="-31" y="-277" type="line"/>
      <point x="1162" y="-277" type="line"/>
      <point x="1162" y="-407" type="line"/>
    </contour>
  </outline>
</glyph>
<glyph name="grave" format="2">
  <advance width="682"/>
  <unicode hex="0060"/>
  <outline>
    <contour>
      <point x="465" y="1194" type="line"/>
      <point x="320" y="1194" type="line"/>
      <point x="89" y="1474" type="line"/>
      <point x="330" y="1474" type="line"/>
    </contour>
  </outline>
</glyph>
<glyph name="a" format="2">
  <advance width="1139"/>
  <unicode hex="0061"/>
  <outline>
    <contour>
      <point x="828" y="131" type="qcurve"/>
      <point x="728" y="46"/>
      <point x="543" y="-24"/>
      <point x="437" y="-24" type="qcurve"/>
      <point x="262" y="-24"/>
      <point x="74" y="147"/>
      <point x="74" y="280" type="qcurve"/>
      <point x="74" y="358"/>
      <point x="145" y="487"/>
      <point x="260" y="565"/>
      <point x="332" y="585" type="qcurve"/>
      <point x="385" y="599"/>
      <point x="492" y="612" type="qcurve"/>
      <point x="710" y="638"/>
      <point x="813" y="674" type="qcurve"/>
      <point x="814" y="711"/>
      <point x="814" y="721" type="qcurve"/>
      <point x="814" y="831"/>
      <point x="763" y="876" type="qcurve"/>
      <point x="694" y="937"/>
      <point x="558" y="937" type="qcurve"/>
      <point x="431" y="937"/>
      <point x="310" y="848"/>
      <point x="281" y="735" type="qcurve"/>
      <point x="105" y="759" type="line"/>
      <point x="129" y="872"/>
      <point x="239" y="1011"/>
      <point x="447" y="1086"/>
      <point x="584" y="1086" type="qcurve"/>
      <point x="720" y="1086"/>
      <point x="890" y="1022"/>
      <point x="970" y="925"/>
      <point x="986" y="851" type="qcurve"/>
      <point x="995" y="805"/>
      <point x="995" y="685" type="qcurve"/>
      <point x="995" y="445" type="line"/>
      <point x="995" y="194"/>
      <point x="1018" y="61"/>
      <point x="1052" y="0" type="qcurve"/>
      <point x="864" y="0" type="line"/>
      <point x="836" y="56"/>
    </contour>
    <contour>
      <point x="813" y="533" type="line"/>
      <point x="715" y="493"/>
      <point x="519" y="465" type="qcurve"/>
      <point x="408" y="449"/>
      <point x="316" y="409"/>
      <point x="266" y="332"/>
      <point x="266" y="285" type="qcurve"/>
      <point x="266" y="213"/>
      <point x="375" y="117"/>
      <point x="480" y="117" type="qcurve"/>
      <point x="584" y="117"/>
      <point x="746" y="208"/>
      <point x="784" y="287" type="qcurve"/>
      <point x="813" y="348"/>
      <point x="813" y="467" type="qcurve"/>
    </contour>
  </outline>
</glyph>
<glyph name="b" format="2">
  <advance width="1139"/>
  <unicode hex="0062"/>
  <outline>
    <contour>
      <point x="301" y="0" type="line"/>
      <point x="134" y="0" type="line"/>
      <point x="134" y="1466" type="line"/>
      <point x="314" y="1466" type="line"/>
      <point x="314" y="943" type="line"/>
      <point x="428" y="1086"/>
      <point x="605" y="1086" type="qcurve"/>
      <point x="703" y="1086"/>
      <point x="878" y="1007"/>
      <point x="991" y="864"/>
      <point x="1055" y="662"/>
      <point x="1055" y="547" type="qcurve"/>
      <point x="1055" y="274"/>
      <point x="785" y="-24"/>
      <point x="596" y="-24" type="qcurve"/>
      <point x="408" y="-24"/>
      <point x="301" y="133" type="qcurve"/>
    </contour>
    <contour>
      <point x="299" y="539" type="qcurve"/>
      <point x="299" y="348"/>
      <point x="351" y="263" type="qcurve"/>
      <point x="436" y="124"/>
      <point x="581" y="124" type="qcurve"/>
      <point x="699" y="124"/>
      <point x="871" y="329"/>
      <point x="871" y="532" type="qcurve"/>
      <point x="871" y="740"/>
      <point x="706" y="938"/>
      <point x="589" y="938" type="qcurve"/>
      <point x="471" y="938"/>
      <point x="299" y="733"/>
    </contour>
  </outline>
</glyph>
<glyph name="c" format="2">
  <advance width="1024"/>
  <unicode hex="0063"/>
  <outline>
    <contour>
      <point x="828" y="389" type="qcurve"/>
      <point x="1005" y="366" type="line"/>
      <point x="976" y="183"/>
      <point x="737" y="-24"/>
      <point x="563" y="-24" type="qcurve"/>
      <point x="345" y="-24"/>
      <point x="80" y="261"/>
      <point x="80" y="527" type="qcurve"/>
      <point x="80" y="699"/>
      <point x="194" y="957"/>
      <point x="427" y="1086"/>
      <point x="564" y="1086" type="qcurve"/>
      <point x="737" y="1086"/>
      <point x="957" y="911"/>
      <point x="988" y="750" type="qcurve"/>
      <point x="813" y="723" type="line"/>
      <point x="788" y="830"/>
      <point x="661" y="938"/>
      <point x="571" y="938" type="qcurve"/>
      <point x="435" y="938"/>
      <point x="265" y="743"/>
      <point x="265" y="532" type="qcurve"/>
      <point x="265" y="318"/>
      <point x="429" y="124"/>
      <point x="561" y="124" type="qcurve"/>
      <point x="667" y="124"/>
      <point x="809" y="254"/>
    </contour>
  </outline>
</glyph>
<glyph name="d" format="2">
  <advance width="1139"/>
  <unicode hex="0064"/>
  <outline>
    <contour>
      <point x="824" y="0" type="line"/>
      <point x="824" y="134" type="line"/>
      <point x="723" y="-24"/>
      <point x="527" y="-24" type="qcurve"/>
      <point x="400" y="-24"/>
      <point x="187" y="116"/>
      <point x="70" y="367"/>
      <point x="70" y="530" type="qcurve"/>
      <point x="70" y="689"/>
      <point x="176" y="948"/>
      <point x="388" y="1086"/>
      <point x="519" y="1086" type="qcurve"/>
      <point x="615" y="1086"/>
      <point x="765" y="1005"/>
      <point x="812" y="940" type="qcurve"/>
      <point x="812" y="1466" type="line"/>
      <point x="991" y="1466" type="line"/>
      <point x="991" y="0" type="line"/>
    </contour>
    <contour>
      <point x="255" y="530" type="qcurve"/>
      <point x="255" y="326"/>
      <point x="427" y="124"/>
      <point x="544" y="124" type="qcurve"/>
      <point x="662" y="124"/>
      <point x="827" y="317"/>
      <point x="827" y="515" type="qcurve"/>
      <point x="827" y="733"/>
      <point x="659" y="937"/>
      <point x="536" y="937" type="qcurve"/>
      <point x="416" y="937"/>
      <point x="255" y="741"/>
    </contour>
  </outline>
</glyph>
<glyph name="e" format="2">
  <advance width="1139"/>
  <unicode hex="0065"/>
  <outline>
    <contour>
      <point x="862" y="342" type="qcurve"/>
      <point x="1048" y="319" type="line"/>
      <point x="1004" y="156"/>
      <point x="766" y="-24"/>
      <point x="581" y="-24" type="qcurve"/>
      <point x="348" y="-24"/>
      <point x="75" y="263"/>
      <point x="75" y="522" type="qcurve"/>
      <point x="75" y="790"/>
      <point x="351" y="1086"/>
      <point x="571" y="1086" type="qcurve"/>
      <point x="784" y="1086"/>
      <point x="1054" y="796"/>
      <point x="1054" y="533" type="qcurve"/>
      <point x="1054" y="517"/>
      <point x="1053" y="485" type="qcurve"/>
      <point x="261" y="485" type="line"/>
      <point x="271" y="310"/>
      <point x="449" y="124"/>
      <point x="582" y="124" type="qcurve"/>
      <point x="681" y="124"/>
      <point x="821" y="228"/>
    </contour>
    <contour>
      <point x="271" y="633" type="qcurve"/>
      <point x="864" y="633" type="line"/>
      <point x="852" y="767"/>
      <point x="796" y="834" type="qcurve"/>
      <point x="710" y="938"/>
      <point x="573" y="938" type="qcurve"/>
      <point x="449" y="938"/>
      <point x="280" y="772"/>
    </contour>
  </outline>
</glyph>
<glyph name="f" format="2">
  <advance width="569"/>
  <unicode hex="0066"/>
  <outline>
    <contour>
      <point x="178" y="0" type="line"/>
      <point x="178" y="922" type="line"/>
      <point x="19" y="922" type="line"/>
      <point x="19" y="1062" type="line"/>
      <point x="178" y="1062" type="line"/>
      <point x="178" y="1175" type="line"/>
      <point x="178" y="1282"/>
      <point x="197" y="1334" type="qcurve"/>
      <point x="223" y="1404"/>
      <point x="354" y="1491"/>
      <point x="472" y="1491" type="qcurve"/>
      <point x="548" y="1491"/>
      <point x="640" y="1473" type="qcurve"/>
      <point x="613" y="1316" type="line"/>
      <point x="557" y="1326"/>
      <point x="507" y="1326" type="qcurve"/>
      <point x="425" y="1326"/>
      <point x="357" y="1256"/>
      <point x="357" y="1160" type="qcurve"/>
      <point x="357" y="1062" type="line"/>
      <point x="564" y="1062" type="line"/>
      <point x="564" y="922" type="line"/>
      <point x="357" y="922" type="line"/>
      <point x="357" y="0" type="line"/>
    </contour>
  </outline>
</glyph>
<glyph name="g" format="2">
  <advance width="1139"/>
  <unicode hex="0067"/>
  <outline>
    <contour>
      <point x="102" y="-88" type="qcurve"/>
      <point x="277" y="-114" type="line"/>
      <point x="288" y="-195"/>
      <point x="338" y="-232" type="qcurve"/>
      <point x="405" y="-282"/>
      <point x="521" y="-282" type="qcurve"/>
      <point x="646" y="-282"/>
      <point x="782" y="-182"/>
      <point x="806" y="-92" type="qcurve"/>
      <point x="820" y="-37"/>
      <point x="819" y="139" type="qcurve"/>
      <point x="701" y="0"/>
      <point x="525" y="0" type="qcurve"/>
      <point x="306" y="0"/>
      <point x="66" y="316"/>
      <point x="66" y="537" type="qcurve"/>
      <point x="66" y="689"/>
      <point x="176" y="946"/>
      <point x="385" y="1086"/>
      <point x="526" y="1086" type="qcurve"/>
      <point x="714" y="1086"/>
      <point x="836" y="934" type="qcurve"/>
      <point x="836" y="1062" type="line"/>
      <point x="1002" y="1062" type="line"/>
      <point x="1002" y="144" type="line"/>
      <point x="1002" y="-104"/>
      <point x="901" y="-311"/>
      <point x="682" y="-431"/>
      <point x="522" y="-431" type="qcurve"/>
      <point x="332" y="-431"/>
      <point x="98" y="-260"/>
    </contour>
    <contour>
      <point x="251" y="550" type="qcurve"/>
      <point x="251" y="341"/>
      <point x="417" y="149"/>
      <point x="542" y="149" type="qcurve"/>
      <point x="666" y="149"/>
      <point x="834" y="340"/>
      <point x="834" y="544" type="qcurve"/>
      <point x="834" y="739"/>
      <point x="661" y="937"/>
      <point x="539" y="937" type="qcurve"/>
      <point x="419" y="937"/>
      <point x="251" y="742"/>
    </contour>
  </outline>
</glyph>
<glyph name="h" format="2">
  <advance width="1139"/>
  <unicode hex="0068"/>
  <outline>
    <contour>
      <point x="135" y="0" type="line"/>
      <point x="135" y="1466" type="line"/>
      <point x="315" y="1466" type="line"/>
      <point x="315" y="940" type="line"/>
      <point x="441" y="1086"/>
      <point x="633" y="1086" type="qcurve"/>
      <point x="751" y="1086"/>
      <point x="925" y="993"/>
      <point x="1000" y="829"/>
      <point x="1000" y="673" type="qcurve"/>
      <point x="1000" y="0" type="line"/>
      <point x="820" y="0" type="line"/>
      <point x="820" y="673" type="line"/>
      <point x="820" y="808"/>
      <point x="703" y="931"/>
      <point x="596" y="931" type="qcurve"/>
      <point x="516" y="931"/>
      <point x="375" y="848"/>
      <point x="315" y="706"/>
      <point x="315" y="581" type="qcurve"/>
      <point x="315" y="0" type="line"/>
    </contour>
  </outline>
</glyph>
<glyph name="i" format="2">
  <advance width="455"/>
  <unicode hex="0069"/>
  <outline>
    <contour>
      <point x="136" y="1259" type="line"/>
      <point x="136" y="1466" type="line"/>
      <point x="316" y="1466" type="line"/>
      <point x="316" y="1259" type="line"/>
    </contour>
    <contour>
      <point x="136" y="0" type="line"/>
      <point x="136" y="1062" type="line"/>
      <point x="316" y="1062" type="line"/>
      <point x="316" y="0" type="line"/>
    </contour>
  </outline>
</glyph>
<glyph name="j" format="2">
  <advance width="455"/>
  <unicode hex="006A"/>
  <outline>
    <contour>
      <point x="134" y="1257" type="line"/>
      <point x="134" y="1466" type="line"/>
      <point x="314" y="1466" type="line"/>
      <point x="314" y="1257" type="line"/>
    </contour>
    <contour>
      <point x="-94" y="-412" type="qcurve"/>
      <point x="-60" y="-259" type="line"/>
      <point x="-6" y="-273"/>
      <point x="25" y="-273" type="qcurve"/>
      <point x="80" y="-273"/>
      <point x="134" y="-200"/>
      <point x="134" y="-54" type="qcurve"/>
      <point x="134" y="1062" type="line"/>
      <point x="314" y="1062" type="line"/>
      <point x="314" y="-58" type="line"/>
      <point x="314" y="-254"/>
      <point x="263" y="-331" type="qcurve"/>
      <point x="198" y="-431"/>
      <point x="47" y="-431" type="qcurve"/>
      <point x="-26" y="-431"/>
    </contour>
  </outline>
</glyph>
<glyph name="k" format="2">
  <advance width="1024"/>
  <unicode hex="006B"/>
  <outline>
    <contour>
      <point x="136" y="0" type="line"/>
      <point x="136" y="1466" type="line"/>
      <point x="316" y="1466" type="line"/>
      <point x="316" y="630" type="line"/>
      <point x="742" y="1062" type="line"/>
      <point x="975" y="1062" type="line"/>
      <point x="569" y="668" type="line"/>
      <point x="1016" y="0" type="line"/>
      <point x="794" y="0" type="line"/>
      <point x="443" y="543" type="line"/>
      <point x="316" y="421" type="line"/>
      <point x="316" y="0" type="line"/>
    </contour>
  </outline>
</glyph>
<glyph name="l" format="2">
  <advance width="455"/>
  <unicode hex="006C"/>
  <outline>
    <contour>
      <point x="131" y="0" type="line"/>
      <point x="131" y="1466" type="line"/>
      <point x="311" y="1466" type="line"/>
      <point x="311" y="0" type="line"/>
    </contour>
  </outline>
</glyph>
<glyph name="m" format="2">
  <advance width="1706"/>
  <unicode hex="006D"/>
  <outline>
    <contour>
      <point x="135" y="0" type="line"/>
      <point x="135" y="1062" type="line"/>
      <point x="296" y="1062" type="line"/>
      <point x="296" y="913" type="line"/>
      <point x="346" y="991"/>
      <point x="512" y="1086"/>
      <point x="618" y="1086" type="qcurve"/>
      <point x="736" y="1086"/>
      <point x="887" y="988"/>
      <point x="918" y="900" type="qcurve"/>
      <point x="1044" y="1086"/>
      <point x="1246" y="1086" type="qcurve"/>
      <point x="1404" y="1086"/>
      <point x="1574" y="911"/>
      <point x="1574" y="729" type="qcurve"/>
      <point x="1574" y="0" type="line"/>
      <point x="1395" y="0" type="line"/>
      <point x="1395" y="669" type="line"/>
      <point x="1395" y="777"/>
      <point x="1360" y="872"/>
      <point x="1268" y="930"/>
      <point x="1206" y="930" type="qcurve"/>
      <point x="1094" y="930"/>
      <point x="946" y="781"/>
      <point x="946" y="617" type="qcurve"/>
      <point x="946" y="0" type="line"/>
      <point x="766" y="0" type="line"/>
      <point x="766" y="690" type="line"/>
      <point x="766" y="810"/>
      <point x="678" y="930"/>
      <point x="578" y="930" type="qcurve"/>
      <point x="502" y="930"/>
      <point x="373" y="850"/>
      <point x="315" y="696"/>
      <point x="315" y="551" type="qcurve"/>
      <point x="315" y="0" type="line"/>
    </contour>
  </outline>
</glyph>
<glyph name="n" format="2">
  <advance width="1139"/>
  <unicode hex="006E"/>
  <outline>
    <contour>
      <point x="135" y="0" type="line"/>
      <point x="135" y="1062" type="line"/>
      <point x="297" y="1062" type="line"/>
      <point x="297" y="911" type="line"/>
      <point x="414" y="1086"/>
      <point x="635" y="1086" type="qcurve"/>
      <point x="731" y="1086"/>
      <point x="892" y="1017"/>
      <point x="972" y="905"/>
      <point x="988" y="828" type="qcurve"/>
      <point x="998" y="778"/>
      <point x="998" y="653" type="qcurve"/>
      <point x="998" y="0" type="line"/>
      <point x="818" y="0" type="line"/>
      <point x="818" y="646" type="line"/>
      <point x="818" y="756"/>
      <point x="776" y="865"/>
      <point x="669" y="930"/>
      <point x="597" y="930" type="qcurve"/>
      <point x="482" y="930"/>
      <point x="315" y="784"/>
      <point x="315" y="580" type="qcurve"/>
      <point x="315" y="0" type="line"/>
    </contour>
  </outline>
</glyph>
<glyph name="o" format="2">
  <advance width="1139"/>
  <unicode hex="006F"/>
  <outline>
    <contour>
      <point x="68" y="531" type="qcurve"/>
      <point x="68" y="826"/>
      <point x="232" y="968" type="qcurve"/>
      <point x="369" y="1086"/>
      <point x="566" y="1086" type="qcurve"/>
      <point x="785" y="1086"/>
      <point x="1063" y="799"/>
      <point x="1063" y="546" type="qcurve"/>
      <point x="1063" y="341"/>
      <point x="940" y="106"/>
      <point x="705" y="-24"/>
      <point x="566" y="-24" type="qcurve"/>
      <point x="343" y="-24"/>
      <point x="68" y="262"/>
    </contour>
    <contour>
      <point x="253" y="531" type="qcurve"/>
      <point x="253" y="327"/>
      <point x="431" y="124"/>
      <point x="566" y="124" type="qcurve"/>
      <point x="700" y="124"/>
      <point x="878" y="328"/>
      <point x="878" y="537" type="qcurve"/>
      <point x="878" y="734"/>
      <point x="699" y="937"/>
      <point x="566" y="937" type="qcurve"/>
      <point x="431" y="937"/>
      <point x="253" y="735"/>
    </contour>
  </outline>
</glyph>
<glyph name="p" format="2">
  <advance width="1139"/>
  <unicode hex="0070"/>
  <outline>
    <contour>
      <point x="135" y="-407" type="line"/>
      <point x="135" y="1062" type="line"/>
      <point x="299" y="1062" type="line"/>
      <point x="299" y="924" type="line"/>
      <point x="357" y="1005"/>
      <point x="503" y="1086"/>
      <point x="607" y="1086" type="qcurve"/>
      <point x="743" y="1086"/>
      <point x="951" y="946"/>
      <point x="1057" y="691"/>
      <point x="1057" y="539" type="qcurve"/>
      <point x="1057" y="376"/>
      <point x="940" y="115"/>
      <point x="717" y="-24"/>
      <point x="594" y="-24" type="qcurve"/>
      <point x="504" y="-24"/>
      <point x="361" y="52"/>
      <point x="315" y="110" type="qcurve"/>
      <point x="315" y="-407" type="line"/>
    </contour>
    <contour>
      <point x="298" y="525" type="qcurve"/>
      <point x="298" y="320"/>
      <point x="464" y="124"/>
      <point x="582" y="124" type="qcurve"/>
      <point x="702" y="124"/>
      <point x="873" y="327"/>
      <point x="873" y="540" type="qcurve"/>
      <point x="873" y="743"/>
      <point x="706" y="945"/>
      <point x="590" y="945" type="qcurve"/>
      <point x="475" y="945"/>
      <point x="298" y="730"/>
    </contour>
  </outline>
</glyph>
<glyph name="q" format="2">
  <advance width="1139"/>
  <unicode hex="0071"/>
  <outline>
    <contour>
      <point x="812" y="-407" type="line"/>
      <point x="812" y="113" type="line"/>
      <point x="770" y="54"/>
      <point x="619" y="-24"/>
      <point x="534" y="-24" type="qcurve"/>
      <point x="345" y="-24"/>
      <point x="72" y="278"/>
      <point x="72" y="541" type="qcurve"/>
      <point x="72" y="701"/>
      <point x="183" y="955"/>
      <point x="394" y="1086"/>
      <point x="520" y="1086" type="qcurve"/>
      <point x="717" y="1086"/>
      <point x="830" y="920" type="qcurve"/>
      <point x="830" y="1062" type="line"/>
      <point x="992" y="1062" type="line"/>
      <point x="992" y="-407" type="line"/>
    </contour>
    <contour>
      <point x="257" y="534" type="qcurve"/>
      <point x="257" y="329"/>
      <point x="429" y="124"/>
      <point x="549" y="124" type="qcurve"/>
      <point x="664" y="124"/>
      <point x="830" y="319"/>
      <point x="830" y="518" type="qcurve"/>
      <point x="830" y="730"/>
      <point x="655" y="944"/>
      <point x="537" y="944" type="qcurve"/>
      <point x="420" y="944"/>
      <point x="257" y="745"/>
    </contour>
  </outline>
</glyph>
<glyph name="r" format="2">
  <advance width="682"/>
  <unicode hex="0072"/>
  <outline>
    <contour>
      <point x="133" y="0" type="line"/>
      <point x="133" y="1062" type="line"/>
      <point x="295" y="1062" type="line"/>
      <point x="295" y="901" type="line"/>
      <point x="357" y="1014"/>
      <point x="462" y="1086"/>
      <point x="525" y="1086" type="qcurve"/>
      <point x="616" y="1086"/>
      <point x="710" y="1028" type="qcurve"/>
      <point x="648" y="861" type="line"/>
      <point x="582" y="900"/>
      <point x="516" y="900" type="qcurve"/>
      <point x="457" y="900"/>
      <point x="363" y="829"/>
      <point x="343" y="766" type="qcurve"/>
      <point x="313" y="670"/>
      <point x="313" y="556" type="qcurve"/>
      <point x="313" y="0" type="line"/>
    </contour>
  </outline>
</glyph>
<glyph name="s" format="2">
  <advance width="1024"/>
  <unicode hex="0073"/>
  <outline>
    <contour>
      <point x="63" y="317" type="qcurve"/>
      <point x="241" y="345" type="line"/>
      <point x="256" y="238"/>
      <point x="393" y="124"/>
      <point x="516" y="124" type="qcurve"/>
      <point x="640" y="124"/>
      <point x="760" y="225"/>
      <point x="760" y="293" type="qcurve"/>
      <point x="760" y="354"/>
      <point x="707" y="389" type="qcurve"/>
      <point x="670" y="413"/>
      <point x="523" y="450" type="qcurve"/>
      <point x="325" y="500"/>
      <point x="172" y="573"/>
      <point x="93" y="702"/>
      <point x="93" y="780" type="qcurve"/>
      <point x="93" y="851"/>
      <point x="158" y="972"/>
      <point x="214" y="1012" type="qcurve"/>
      <point x="256" y="1043"/>
      <point x="401" y="1086"/>
      <point x="484" y="1086" type="qcurve"/>
      <point x="609" y="1086"/>
      <point x="798" y="1014"/>
      <point x="888" y="891"/>
      <point x="905" y="788" type="qcurve"/>
      <point x="729" y="764" type="line"/>
      <point x="717" y="846"/>
      <point x="602" y="938"/>
      <point x="497" y="938" type="qcurve"/>
      <point x="373" y="938"/>
      <point x="267" y="856"/>
      <point x="267" y="801" type="qcurve"/>
      <point x="267" y="766"/>
      <point x="289" y="738" type="qcurve"/>
      <point x="311" y="709"/>
      <point x="358" y="690" type="qcurve"/>
      <point x="385" y="680"/>
      <point x="517" y="644" type="qcurve"/>
      <point x="708" y="593"/>
      <point x="859" y="528"/>
      <point x="945" y="404"/>
      <point x="945" y="312" type="qcurve"/>
      <point x="945" y="222"/>
      <point x="840" y="63"/>
      <point x="642" y="-24"/>
      <point x="517" y="-24" type="qcurve"/>
      <point x="310" y="-24"/>
      <point x="93" y="148"/>
    </contour>
  </outline>
</glyph>
<glyph name="t" format="2">
  <advance width="569"/>
  <unicode hex="0074"/>
  <outline>
    <contour>
      <point x="528" y="161" type="qcurve"/>
      <point x="554" y="2" type="line"/>
      <point x="478" y="-14"/>
      <point x="418" y="-14" type="qcurve"/>
      <point x="320" y="-14"/>
      <point x="212" y="48"/>
      <point x="168" y="149"/>
      <point x="168" y="311" type="qcurve"/>
      <point x="168" y="922" type="line"/>
      <point x="36" y="922" type="line"/>
      <point x="36" y="1062" type="line"/>
      <point x="168" y="1062" type="line"/>
      <point x="168" y="1325" type="line"/>
      <point x="347" y="1433" type="line"/>
      <point x="347" y="1062" type="line"/>
      <point x="528" y="1062" type="line"/>
      <point x="528" y="922" type="line"/>
      <point x="347" y="922" type="line"/>
      <point x="347" y="301" type="line"/>
      <point x="347" y="224"/>
      <point x="366" y="180"/>
      <point x="409" y="154"/>
      <point x="449" y="154" type="qcurve"/>
      <point x="479" y="154"/>
    </contour>
  </outline>
</glyph>
<glyph name="u" format="2">
  <advance width="1139"/>
  <unicode hex="0075"/>
  <outline>
    <contour>
      <point x="831" y="0" type="line"/>
      <point x="831" y="156" type="line"/>
      <point x="707" y="-24"/>
      <point x="494" y="-24" type="qcurve"/>
      <point x="400" y="-24"/>
      <point x="237" y="48"/>
      <point x="158" y="157"/>
      <point x="142" y="236" type="qcurve"/>
      <point x="131" y="289"/>
      <point x="131" y="404" type="qcurve"/>
      <point x="131" y="1062" type="line"/>
      <point x="311" y="1062" type="line"/>
      <point x="311" y="473" type="line"/>
      <point x="311" y="332"/>
      <point x="322" y="283" type="qcurve"/>
      <point x="339" y="212"/>
      <point x="449" y="131"/>
      <point x="530" y="131" type="qcurve"/>
      <point x="611" y="131"/>
      <point x="753" y="214"/>
      <point x="812" y="357"/>
      <point x="812" y="493" type="qcurve"/>
      <point x="812" y="1062" type="line"/>
      <point x="992" y="1062" type="line"/>
      <point x="992" y="0" type="line"/>
    </contour>
  </outline>
</glyph>
<glyph name="v" format="2">
  <advance width="1024"/>
  <unicode hex="0076"/>
  <outline>
    <contour>
      <point x="430" y="0" type="line"/>
      <point x="26" y="1062" type="line"/>
      <point x="216" y="1062" type="line"/>
      <point x="444" y="426" type="line"/>
      <point x="481" y="323"/>
      <point x="512" y="212" type="qcurve"/>
      <point x="536" y="296"/>
      <point x="579" y="414" type="qcurve"/>
      <point x="815" y="1062" type="line"/>
      <point x="1000" y="1062" type="line"/>
      <point x="598" y="0" type="line"/>
    </contour>
  </outline>
</glyph>
<glyph name="w" format="2">
  <advance width="1479"/>
  <unicode hex="0077"/>
  <outline>
    <contour>
      <point x="331" y="0" type="line"/>
      <point x="6" y="1062" type="line"/>
      <point x="192" y="1062" type="line"/>
      <point x="361" y="449" type="line"/>
      <point x="424" y="221" type="line"/>
      <point x="428" y="238"/>
      <point x="479" y="440" type="qcurve"/>
      <point x="648" y="1062" type="line"/>
      <point x="833" y="1062" type="line"/>
      <point x="992" y="446" type="line"/>
      <point x="1045" y="243" type="line"/>
      <point x="1106" y="448" type="line"/>
      <point x="1288" y="1062" type="line"/>
      <point x="1463" y="1062" type="line"/>
      <point x="1131" y="0" type="line"/>
      <point x="944" y="0" type="line"/>
      <point x="775" y="636" type="line"/>
      <point x="734" y="817" type="line"/>
      <point x="519" y="0" type="line"/>
    </contour>
  </outline>
</glyph>
<glyph name="x" format="2">
  <advance width="1024"/>
  <unicode hex="0078"/>
  <outline>
    <contour>
      <point x="15" y="0" type="line"/>
      <point x="403" y="552" type="line"/>
      <point x="44" y="1062" type="line"/>
      <point x="269" y="1062" type="line"/>
      <point x="432" y="813" type="line"/>
      <point x="478" y="742"/>
      <point x="506" y="694" type="qcurve"/>
      <point x="550" y="760"/>
      <point x="587" y="811" type="qcurve"/>
      <point x="766" y="1062" type="line"/>
      <point x="981" y="1062" type="line"/>
      <point x="614" y="562" type="line"/>
      <point x="1009" y="0" type="line"/>
      <point x="788" y="0" type="line"/>
      <point x="570" y="330" type="line"/>
      <point x="512" y="419" type="line"/>
      <point x="233" y="0" type="line"/>
    </contour>
  </outline>
</glyph>
<glyph name="y" format="2">
  <advance width="1024"/>
  <unicode hex="0079"/>
  <outline>
    <contour>
      <point x="127" y="-409" type="qcurve"/>
      <point x="107" y="-240" type="line"/>
      <point x="166" y="-256"/>
      <point x="210" y="-256" type="qcurve"/>
      <point x="270" y="-256"/>
      <point x="342" y="-216"/>
      <point x="365" y="-180" type="qcurve"/>
      <point x="382" y="-153"/>
      <point x="420" y="-46" type="qcurve"/>
      <point x="425" y="-31"/>
      <point x="436" y="-2" type="qcurve"/>
      <point x="33" y="1062" type="line"/>
      <point x="227" y="1062" type="line"/>
      <point x="448" y="447" type="line"/>
      <point x="491" y="330"/>
      <point x="525" y="201" type="qcurve"/>
      <point x="556" y="325"/>
      <point x="599" y="443" type="qcurve"/>
      <point x="826" y="1062" type="line"/>
      <point x="1006" y="1062" type="line"/>
      <point x="602" y="-18" type="line"/>
      <point x="537" y="-193"/>
      <point x="501" y="-259" type="qcurve"/>
      <point x="453" y="-348"/>
      <point x="329" y="-431"/>
      <point x="243" y="-431" type="qcurve"/>
      <point x="191" y="-431"/>
    </contour>
  </outline>
</glyph>
<glyph name="z" format="2">
  <advance width="1024"/>
  <unicode hex="007A"/>
  <outline>
    <contour>
      <point x="40" y="0" type="line"/>
      <point x="40" y="146" type="line"/>
      <point x="716" y="922" type="line"/>
      <point x="601" y="916"/>
      <point x="513" y="916" type="qcurve"/>
      <point x="80" y="916" type="line"/>
      <point x="80" y="1062" type="line"/>
      <point x="948" y="1062" type="line"/>
      <point x="948" y="943" type="line"/>
      <point x="373" y="269" type="line"/>
      <point x="262" y="146" type="line"/>
      <point x="383" y="155"/>
      <point x="489" y="155" type="qcurve"/>
      <point x="980" y="155" type="line"/>
      <point x="980" y="0" type="line"/>
    </contour>
  </outline>
</glyph>
<glyph name="braceleft" format="2">
  <advance width="684"/>
  <unicode hex="007B"/>
  <outline>
    <contour>
      <point x="57" y="612" type="line"/>
      <point x="134" y="614"/>
      <point x="231" y="693"/>
      <point x="263" y="831"/>
      <point x="265" y="1165"/>
      <point x="270" y="1218" type="qcurve"/>
      <point x="279" y="1302"/>
      <point x="328" y="1404"/>
      <point x="400" y="1465"/>
      <point x="456" y="1481" type="qcurve"/>
      <point x="494" y="1491"/>
      <point x="580" y="1491" type="qcurve"/>
      <point x="636" y="1491" type="line"/>
      <point x="636" y="1334" type="line"/>
      <point x="605" y="1334" type="line"/>
      <point x="501" y="1334"/>
      <point x="433" y="1259"/>
      <point x="433" y="1129" type="qcurve"/>
      <point x="433" y="867"/>
      <point x="422" y="798" type="qcurve"/>
      <point x="404" y="691"/>
      <point x="317" y="575"/>
      <point x="224" y="530" type="qcurve"/>
      <point x="334" y="484"/>
      <point x="433" y="295"/>
      <point x="433" y="80" type="qcurve"/>
      <point x="433" y="-115"/>
      <point x="437" y="-152" type="qcurve"/>
      <point x="445" y="-220"/>
      <point x="510" y="-274"/>
      <point x="605" y="-274" type="qcurve"/>
      <point x="636" y="-274" type="line"/>
      <point x="636" y="-431" type="line"/>
      <point x="580" y="-431" type="line"/>
      <point x="482" y="-431"/>
      <point x="438" y="-415" type="qcurve"/>
      <point x="374" y="-392"/>
      <point x="290" y="-289"/>
      <point x="265" y="-131"/>
      <point x="263" y="229"/>
      <point x="231" y="367"/>
      <point x="134" y="447"/>
      <point x="57" y="449" type="qcurve"/>
    </contour>
  </outline>
</glyph>
<glyph name="bar" format="2">
  <advance width="532"/>
  <unicode hex="007C"/>
  <outline>
    <contour>
      <point x="188" y="-431" type="line"/>
      <point x="188" y="1491" type="line"/>
      <point x="345" y="1491" type="line"/>
      <point x="345" y="-431" type="line"/>
    </contour>
  </outline>
</glyph>
<glyph name="braceright" format="2">
  <advance width="684"/>
  <unicode hex="007D"/>
  <outline>
    <contour>
      <point x="626" y="612" type="qcurve"/>
      <point x="626" y="449" type="line"/>
      <point x="549" y="447"/>
      <point x="452" y="367"/>
      <point x="420" y="230"/>
      <point x="418" y="-104"/>
      <point x="413" y="-157" type="qcurve"/>
      <point x="404" y="-242"/>
      <point x="355" y="-343"/>
      <point x="283" y="-404"/>
      <point x="227" y="-420" type="qcurve"/>
      <point x="189" y="-431"/>
      <point x="103" y="-431" type="qcurve"/>
      <point x="47" y="-431" type="line"/>
      <point x="47" y="-274" type="line"/>
      <point x="78" y="-274" type="line"/>
      <point x="182" y="-274"/>
      <point x="250" y="-199"/>
      <point x="250" y="-68" type="qcurve"/>
      <point x="250" y="182"/>
      <point x="259" y="249" type="qcurve"/>
      <point x="275" y="360"/>
      <point x="371" y="493"/>
      <point x="459" y="530" type="qcurve"/>
      <point x="344" y="585"/>
      <point x="250" y="766"/>
      <point x="250" y="981" type="qcurve"/>
      <point x="250" y="1176"/>
      <point x="245" y="1214" type="qcurve"/>
      <point x="238" y="1281"/>
      <point x="173" y="1334"/>
      <point x="78" y="1334" type="qcurve"/>
      <point x="47" y="1334" type="line"/>
      <point x="47" y="1491" type="line"/>
      <point x="103" y="1491" type="line"/>
      <point x="201" y="1491"/>
      <point x="245" y="1475" type="qcurve"/>
      <point x="309" y="1453"/>
      <point x="393" y="1349"/>
      <point x="418" y="1191"/>
      <point x="420" y="831"/>
      <point x="452" y="694"/>
      <point x="549" y="614"/>
    </contour>
  </outline>
</glyph>
<glyph name="asciitilde" format="2">
  <advance width="1196"/>
  <unicode hex="007E"/>
  <outline>
    <contour>
      <point x="87" y="557" type="qcurve"/>
      <point x="87" y="762" type="line"/>
      <point x="193" y="882"/>
      <point x="365" y="882" type="qcurve"/>
      <point x="425" y="882"/>
      <point x="557" y="847"/>
      <point x="679" y="795" type="qcurve"/>
      <point x="748" y="766"/>
      <point x="817" y="748"/>
      <point x="852" y="748" type="qcurve"/>
      <point x="917" y="748"/>
      <point x="1056" y="826"/>
      <point x="1110" y="885" type="qcurve"/>
      <point x="1110" y="673" type="line"/>
      <point x="1046" y="613"/>
      <point x="915" y="559"/>
      <point x="833" y="559" type="qcurve"/>
      <point x="773" y="559"/>
      <point x="664" y="587"/>
      <point x="427" y="693"/>
      <point x="348" y="693" type="qcurve"/>
      <point x="284" y="693"/>
      <point x="171" y="638"/>
    </contour>
  </outline>
</glyph>
<glyph name="exclamdown" format="2">
  <advance width="682"/>
  <unicode hex="00A1"/>
  <outline>
    <contour>
      <point x="447" y="1062" type="line"/>
      <point x="447" y="857" type="line"/>
      <point x="240" y="857" type="line"/>
      <point x="240" y="1062" type="line"/>
    </contour>
    <contour>
      <point x="400" y="697" type="line"/>
      <point x="455" y="-79" type="line"/>
      <point x="455" y="-404" type="line"/>
      <point x="232" y="-404" type="line"/>
      <point x="232" y="-79" type="line"/>
      <point x="284" y="697" type="line"/>
    </contour>
  </outline>
</glyph>
<glyph name="cent" format="2">
  <advance width="1139"/>
  <unicode hex="00A2"/>
  <outline>
    <contour>
      <point x="744" y="894" type="qcurve"/>
      <point x="522" y="128" type="line"/>
      <point x="555" y="119"/>
      <point x="583" y="119" type="qcurve"/>
      <point x="687" y="119"/>
      <point x="838" y="261"/>
      <point x="855" y="389" type="qcurve"/>
      <point x="1034" y="369" type="line"/>
      <point x="1001" y="184"/>
      <point x="754" y="-28"/>
      <point x="586" y="-28" type="qcurve"/>
      <point x="537" y="-28"/>
      <point x="483" y="-14" type="qcurve"/>
      <point x="365" y="-409" type="line"/>
      <point x="253" y="-377" type="line"/>
      <point x="368" y="21" type="line"/>
      <point x="253" y="76"/>
      <point x="107" y="333"/>
      <point x="107" y="526" type="qcurve"/>
      <point x="107" y="704"/>
      <point x="224" y="959"/>
      <point x="457" y="1087"/>
      <point x="578" y="1087" type="qcurve"/>
      <point x="614" y="1087"/>
      <point x="678" y="1079" type="qcurve"/>
      <point x="791" y="1466" type="line"/>
      <point x="901" y="1434" type="line"/>
      <point x="789" y="1047" type="line"/>
      <point x="888" y="1004"/>
      <point x="994" y="859"/>
      <point x="1015" y="750" type="qcurve"/>
      <point x="840" y="723" type="line"/>
      <point x="814" y="835"/>
    </contour>
    <contour>
      <point x="638" y="940" type="line"/>
      <point x="606" y="943"/>
      <point x="588" y="943" type="qcurve"/>
      <point x="506" y="943"/>
      <point x="363" y="852"/>
      <point x="292" y="661"/>
      <point x="292" y="535" type="qcurve"/>
      <point x="292" y="403"/>
      <point x="356" y="221"/>
      <point x="415" y="177" type="qcurve"/>
    </contour>
  </outline>
</glyph>
<glyph name="sterling" format="2">
  <advance width="1139"/>
  <unicode hex="00A3"/>
  <outline>
    <contour>
      <point x="396" y="809" type="qcurve"/>
      <point x="711" y="809" type="line"/>
      <point x="711" y="661" type="line"/>
      <point x="427" y="661" type="line"/>
      <point x="446" y="617"/>
      <point x="446" y="573" type="qcurve"/>
      <point x="446" y="486"/>
      <point x="363" y="292"/>
      <point x="268" y="191" type="qcurve"/>
      <point x="347" y="213"/>
      <point x="412" y="213" type="qcurve"/>
      <point x="495" y="213"/>
      <point x="599" y="188" type="qcurve"/>
      <point x="771" y="147"/>
      <point x="832" y="147" type="qcurve"/>
      <point x="906" y="147"/>
      <point x="1024" y="203" type="qcurve"/>
      <point x="1082" y="38" type="line"/>
      <point x="990" y="-1"/>
      <point x="889" y="-25"/>
      <point x="839" y="-25" type="qcurve"/>
      <point x="797" y="-25"/>
      <point x="754" y="-17" type="qcurve"/>
      <point x="727" y="-12"/>
      <point x="522" y="51"/>
      <point x="492" y="57" type="qcurve"/>
      <point x="445" y="65"/>
      <point x="398" y="65" type="qcurve"/>
      <point x="326" y="65"/>
      <point x="163" y="15"/>
      <point x="96" y="-28" type="qcurve"/>
      <point x="27" y="145" type="line"/>
      <point x="123" y="198"/>
      <point x="257" y="395"/>
      <point x="257" y="537" type="qcurve"/>
      <point x="257" y="598"/>
      <point x="240" y="661" type="qcurve"/>
      <point x="44" y="661" type="line"/>
      <point x="44" y="809" type="line"/>
      <point x="198" y="809" type="line"/>
      <point x="165" y="921"/>
      <point x="147" y="1024"/>
      <point x="147" y="1073" type="qcurve"/>
      <point x="147" y="1281"/>
      <point x="301" y="1398" type="qcurve"/>
      <point x="425" y="1491"/>
      <point x="601" y="1491" type="qcurve"/>
      <point x="782" y="1491"/>
      <point x="1017" y="1292"/>
      <point x="1044" y="1112" type="qcurve"/>
      <point x="865" y="1085" type="line"/>
      <point x="850" y="1205"/>
      <point x="701" y="1343"/>
      <point x="597" y="1343" type="qcurve"/>
      <point x="486" y="1343"/>
      <point x="339" y="1200"/>
      <point x="339" y="1099" type="qcurve"/>
      <point x="339" y="988"/>
    </contour>
  </outline>
</glyph>
<glyph name="currency" format="2">
  <advance width="1139"/>
  <unicode hex="00A4"/>
  <outline>
    <contour>
      <point x="213" y="961" type="qcurve"/>
      <point x="74" y="1097" type="line"/>
      <point x="189" y="1216" type="line"/>
      <point x="328" y="1077" type="line"/>
      <point x="434" y="1149"/>
      <point x="565" y="1149" type="qcurve"/>
      <point x="697" y="1149"/>
      <point x="802" y="1077" type="qcurve"/>
      <point x="941" y="1216" type="line"/>
      <point x="1057" y="1097" type="line"/>
      <point x="918" y="961" type="line"/>
      <point x="989" y="851"/>
      <point x="989" y="726" type="qcurve"/>
      <point x="989" y="600"/>
      <point x="918" y="490" type="qcurve"/>
      <point x="1057" y="354" type="line"/>
      <point x="941" y="235" type="line"/>
      <point x="802" y="375" type="line"/>
      <point x="697" y="302"/>
      <point x="565" y="302" type="qcurve"/>
      <point x="434" y="302"/>
      <point x="328" y="375" type="qcurve"/>
      <point x="189" y="235" type="line"/>
      <point x="74" y="354" type="line"/>
      <point x="213" y="490" type="line"/>
      <point x="142" y="600"/>
      <point x="142" y="726" type="qcurve"/>
      <point x="142" y="851"/>
    </contour>
    <contour>
      <point x="305" y="726" type="qcurve"/>
      <point x="305" y="618"/>
      <point x="457" y="466"/>
      <point x="564" y="466" type="qcurve"/>
      <point x="671" y="466"/>
      <point x="823" y="618"/>
      <point x="823" y="726" type="qcurve"/>
      <point x="823" y="833"/>
      <point x="672" y="985"/>
      <point x="564" y="985" type="qcurve"/>
      <point x="457" y="985"/>
      <point x="305" y="833"/>
    </contour>
  </outline>
</glyph>
<glyph name="yen" format="2">
  <advance width="1139"/>
  <unicode hex="00A5"/>
  <outline>
    <contour>
      <point x="477" y="0" type="line"/>
      <point x="477" y="325" type="line"/>
      <point x="62" y="325" type="line"/>
      <point x="62" y="464" type="line"/>
      <point x="477" y="464" type="line"/>
      <point x="477" y="607" type="line"/>
      <point x="62" y="607" type="line"/>
      <point x="62" y="755" type="line"/>
      <point x="403" y="755" type="line"/>
      <point x="-3" y="1466" type="line"/>
      <point x="197" y="1466" type="line"/>
      <point x="487" y="950" type="line"/>
      <point x="536" y="862"/>
      <point x="563" y="796" type="qcurve"/>
      <point x="586" y="849"/>
      <point x="645" y="959" type="qcurve"/>
      <point x="919" y="1466" type="line"/>
      <point x="1133" y="1466" type="line"/>
      <point x="728" y="755" type="line"/>
      <point x="1069" y="755" type="line"/>
      <point x="1069" y="607" type="line"/>
      <point x="657" y="607" type="line"/>
      <point x="657" y="464" type="line"/>
      <point x="1069" y="464" type="line"/>
      <point x="1069" y="325" type="line"/>
      <point x="657" y="325" type="line"/>
      <point x="657" y="0" type="line"/>
    </contour>
  </outline>
</glyph>
<glyph name="brokenbar" format="2">
  <advance width="532"/>
  <unicode hex="00A6"/>
  <outline>
    <contour>
      <point x="345" y="1491" type="line"/>
      <point x="345" y="701" type="line"/>
      <point x="188" y="701" type="line"/>
      <point x="188" y="1491" type="line"/>
    </contour>
    <contour>
      <point x="345" y="360" type="line"/>
      <point x="345" y="-431" type="line"/>
      <point x="188" y="-431" type="line"/>
      <point x="188" y="360" type="line"/>
    </contour>
  </outline>
</glyph>
<glyph name="section" format="2">
  <advance width="1139"/>
  <unicode hex="00A7"/>
  <outline>
    <contour>
      <point x="143" y="-70" type="qcurve"/>
      <point x="324" y="-44" type="line"/>
      <point x="352" y="-174"/>
      <point x="474" y="-279"/>
      <point x="579" y="-279" type="qcurve"/>
      <point x="681" y="-279"/>
      <point x="796" y="-175"/>
      <point x="796" y="-105" type="qcurve"/>
      <point x="796" y="-54"/>
      <point x="760" y="-11" type="qcurve"/>
      <point x="698" y="64"/>
      <point x="420" y="234" type="qcurve"/>
      <point x="272" y="325"/>
      <point x="155" y="428"/>
      <point x="81" y="568"/>
      <point x="81" y="644" type="qcurve"/>
      <point x="81" y="740"/>
      <point x="201" y="896"/>
      <point x="306" y="927" type="qcurve"/>
      <point x="235" y="995"/>
      <point x="177" y="1110"/>
      <point x="177" y="1175" type="qcurve"/>
      <point x="177" y="1303"/>
      <point x="377" y="1491"/>
      <point x="542" y="1491" type="qcurve"/>
      <point x="729" y="1491"/>
      <point x="939" y="1313"/>
      <point x="960" y="1144" type="qcurve"/>
      <point x="773" y="1125" type="line"/>
      <point x="752" y="1247"/>
      <point x="647" y="1343"/>
      <point x="558" y="1343" type="qcurve"/>
      <point x="466" y="1343"/>
      <point x="353" y="1244"/>
      <point x="353" y="1184" type="qcurve"/>
      <point x="353" y="1132"/>
      <point x="389" y="1088" type="qcurve"/>
      <point x="445" y="1020"/>
      <point x="695" y="868" type="qcurve"/>
      <point x="852" y="772"/>
      <point x="907" y="727" type="qcurve"/>
      <point x="978" y="667"/>
      <point x="1045" y="539"/>
      <point x="1045" y="464" type="qcurve"/>
      <point x="1045" y="351"/>
      <point x="972" y="271" type="qcurve"/>
      <point x="930" y="225"/>
      <point x="818" y="178" type="qcurve"/>
      <point x="898" y="117"/>
      <point x="977" y="-23"/>
      <point x="977" y="-103" type="qcurve"/>
      <point x="977" y="-191"/>
      <point x="877" y="-348"/>
      <point x="689" y="-431"/>
      <point x="580" y="-431" type="qcurve"/>
      <point x="389" y="-431"/>
      <point x="165" y="-240"/>
    </contour>
    <contour>
      <point x="728" y="244" type="qcurve"/>
      <point x="802" y="282"/>
      <point x="875" y="383"/>
      <point x="875" y="431" type="qcurve"/>
      <point x="875" y="488"/>
      <point x="823" y="551" type="qcurve"/>
      <point x="770" y="614"/>
      <point x="598" y="720" type="qcurve"/>
      <point x="461" y="804"/>
      <point x="394" y="858" type="qcurve"/>
      <point x="313" y="812"/>
      <point x="244" y="720"/>
      <point x="244" y="664" type="qcurve"/>
      <point x="244" y="601"/>
      <point x="290" y="544" type="qcurve"/>
      <point x="336" y="487"/>
      <point x="497" y="392" type="qcurve"/>
      <point x="631" y="313"/>
    </contour>
  </outline>
</glyph>
<glyph name="dieresis" format="2">
  <advance width="682"/>
  <unicode hex="00A8"/>
  <outline>
    <contour>
      <point x="61" y="1270" type="line"/>
      <point x="61" y="1475" type="line"/>
      <point x="249" y="1475" type="line"/>
      <point x="249" y="1270" type="line"/>
    </contour>
    <contour>
      <point x="434" y="1270" type="line"/>
      <point x="434" y="1475" type="line"/>
      <point x="622" y="1475" type="line"/>
      <point x="622" y="1270" type="line"/>
    </contour>
  </outline>
</glyph>
<glyph name="copyright" format="2">
  <advance width="1509"/>
  <unicode hex="00A9"/>
  <outline>
    <contour>
      <point x="758" y="1491" type="qcurve"/>
      <point x="948" y="1491"/>
      <point x="1310" y="1296"/>
      <point x="1512" y="933"/>
      <point x="1512" y="736" type="qcurve"/>
      <point x="1512" y="541"/>
      <point x="1313" y="181"/>
      <point x="954" y="-18"/>
      <point x="758" y="-18" type="qcurve"/>
      <point x="562" y="-18"/>
      <point x="203" y="181"/>
      <point x="3" y="541"/>
      <point x="3" y="736" type="qcurve"/>
      <point x="3" y="933"/>
      <point x="206" y="1296"/>
      <point x="568" y="1491"/>
    </contour>
    <contour>
      <point x="758" y="1366" type="qcurve"/>
      <point x="599" y="1366"/>
      <point x="298" y="1203"/>
      <point x="128" y="900"/>
      <point x="128" y="736" type="qcurve"/>
      <point x="128" y="573"/>
      <point x="295" y="274"/>
      <point x="595" y="107"/>
      <point x="758" y="107" type="qcurve"/>
      <point x="921" y="107"/>
      <point x="1221" y="274"/>
      <point x="1387" y="573"/>
      <point x="1387" y="736" type="qcurve"/>
      <point x="1387" y="900"/>
      <point x="1218" y="1203"/>
      <point x="916" y="1366"/>
    </contour>
    <contour>
      <point x="1000" y="614" type="qcurve"/>
      <point x="1123" y="578" type="line"/>
      <point x="1093" y="453"/>
      <point x="898" y="304"/>
      <point x="759" y="304" type="qcurve"/>
      <point x="583" y="304"/>
      <point x="363" y="532"/>
      <point x="363" y="734" type="qcurve"/>
      <point x="363" y="866"/>
      <point x="463" y="1061"/>
      <point x="648" y="1160"/>
      <point x="767" y="1160" type="qcurve"/>
      <point x="900" y="1160"/>
      <point x="1076" y="1033"/>
      <point x="1108" y="924" type="qcurve"/>
      <point x="989" y="895" type="line"/>
      <point x="959" y="969"/>
      <point x="842" y="1048"/>
      <point x="763" y="1048" type="qcurve"/>
      <point x="648" y="1048"/>
      <point x="499" y="884"/>
      <point x="499" y="731" type="qcurve"/>
      <point x="499" y="578"/>
      <point x="640" y="421"/>
      <point x="752" y="421" type="qcurve"/>
      <point x="842" y="421"/>
      <point x="978" y="525"/>
    </contour>
  </outline>
</glyph>
<glyph name="ordfeminine" format="2">
  <advance width="758"/>
  <unicode hex="00AA"/>
  <outline>
    <contour>
      <point x="548" y="853" type="qcurve"/>
      <point x="426" y="746"/>
      <point x="292" y="746" type="qcurve"/>
      <point x="179" y="746"/>
      <point x="47" y="869"/>
      <point x="47" y="965" type="qcurve"/>
      <point x="47" y="1013"/>
      <point x="79" y="1085"/>
      <point x="142" y="1141"/>
      <point x="192" y="1158" type="qcurve"/>
      <point x="227" y="1169"/>
      <point x="291" y="1179" type="qcurve"/>
      <point x="438" y="1201" type="line"/>
      <point x="510" y="1215"/>
      <point x="534" y="1221" type="qcurve"/>
      <point x="533" y="1291"/>
      <point x="507" y="1339"/>
      <point x="436" y="1374"/>
      <point x="377" y="1374" type="qcurve"/>
      <point x="298" y="1374"/>
      <point x="220" y="1309"/>
      <point x="211" y="1249" type="qcurve"/>
      <point x="74" y="1283" type="line"/>
      <point x="86" y="1372"/>
      <point x="238" y="1491"/>
      <point x="379" y="1491" type="qcurve"/>
      <point x="543" y="1491"/>
      <point x="611" y="1430" type="qcurve"/>
      <point x="678" y="1368"/>
      <point x="678" y="1249" type="qcurve"/>
      <point x="678" y="1009" type="line"/>
      <point x="677" y="948" type="line"/>
      <point x="677" y="814"/>
      <point x="718" y="764" type="qcurve"/>
      <point x="570" y="764" type="line"/>
      <point x="550" y="804"/>
    </contour>
    <contour>
      <point x="533" y="1104" type="qcurve"/>
      <point x="480" y="1090"/>
      <point x="341" y="1068" type="qcurve"/>
      <point x="251" y="1054"/>
      <point x="224" y="1029" type="qcurve"/>
      <point x="196" y="1003"/>
      <point x="196" y="965" type="qcurve"/>
      <point x="196" y="924"/>
      <point x="264" y="866"/>
      <point x="326" y="866" type="qcurve"/>
      <point x="399" y="866"/>
      <point x="507" y="944"/>
      <point x="525" y="1001" type="qcurve"/>
      <point x="532" y="1021"/>
    </contour>
  </outline>
</glyph>
<glyph name="guillemotleft" format="2">
  <advance width="1139"/>
  <unicode hex="00AB"/>
  <outline>
    <contour>
      <point x="340" y="528" type="line"/>
      <point x="599" y="72" type="line"/>
      <point x="453" y="72" type="line"/>
      <point x="134" y="528" type="line"/>
      <point x="453" y="984" type="line"/>
      <point x="601" y="984" type="line"/>
    </contour>
    <contour>
      <point x="727" y="528" type="line"/>
      <point x="991" y="72" type="line"/>
      <point x="839" y="72" type="line"/>
      <point x="526" y="528" type="line"/>
      <point x="839" y="984" type="line"/>
      <point x="991" y="984" type="line"/>
    </contour>
  </outline>
</glyph>
<glyph name="logicalnot" format="2">
  <advance width="1196"/>
  <unicode hex="00AC"/>
  <outline>
    <contour>
      <point x="1082" y="424" type="line"/>
      <point x="912" y="424" type="line"/>
      <point x="912" y="862" type="line"/>
      <point x="114" y="862" type="line"/>
      <point x="114" y="1030" type="line"/>
      <point x="1082" y="1030" type="line"/>
    </contour>
  </outline>
</glyph>
<glyph name="registered" format="2">
  <advance width="1509"/>
  <unicode hex="00AE"/>
  <outline>
    <contour>
      <point x="758" y="1491" type="qcurve"/>
      <point x="948" y="1491"/>
      <point x="1310" y="1296"/>
      <point x="1512" y="933"/>
      <point x="1512" y="736" type="qcurve"/>
      <point x="1512" y="541"/>
      <point x="1313" y="181"/>
      <point x="954" y="-18"/>
      <point x="758" y="-18" type="qcurve"/>
      <point x="562" y="-18"/>
      <point x="203" y="181"/>
      <point x="3" y="541"/>
      <point x="3" y="736" type="qcurve"/>
      <point x="3" y="933"/>
      <point x="206" y="1296"/>
      <point x="568" y="1491"/>
    </contour>
    <contour>
      <point x="758" y="1366" type="qcurve"/>
      <point x="599" y="1366"/>
      <point x="298" y="1203"/>
      <point x="128" y="900"/>
      <point x="128" y="736" type="qcurve"/>
      <point x="128" y="573"/>
      <point x="295" y="274"/>
      <point x="595" y="107"/>
      <point x="758" y="107" type="qcurve"/>
      <point x="921" y="107"/>
      <point x="1221" y="274"/>
      <point x="1387" y="573"/>
      <point x="1387" y="736" type="qcurve"/>
      <point x="1387" y="900"/>
      <point x="1218" y="1203"/>
      <point x="916" y="1366"/>
    </contour>
    <contour>
      <point x="427" y="319" type="line"/>
      <point x="427" y="1131" type="line"/>
      <point x="706" y="1131" type="line"/>
      <point x="849" y="1131"/>
      <point x="977" y="1086"/>
      <point x="1053" y="974"/>
      <point x="1053" y="911" type="qcurve"/>
      <point x="1053" y="822"/>
      <point x="926" y="690"/>
      <point x="821" y="682" type="qcurve"/>
      <point x="864" y="664"/>
      <point x="890" y="639" type="qcurve"/>
      <point x="939" y="591"/>
      <point x="1010" y="478" type="qcurve"/>
      <point x="1109" y="319" type="line"/>
      <point x="949" y="319" type="line"/>
      <point x="877" y="447" type="line"/>
      <point x="792" y="598"/>
      <point x="740" y="636" type="qcurve"/>
      <point x="704" y="664"/>
      <point x="635" y="664" type="qcurve"/>
      <point x="558" y="664" type="line"/>
      <point x="558" y="319" type="line"/>
    </contour>
    <contour>
      <point x="558" y="776" type="line"/>
      <point x="717" y="776" type="line"/>
      <point x="831" y="776"/>
      <point x="914" y="844"/>
      <point x="914" y="900" type="qcurve"/>
      <point x="914" y="936"/>
      <point x="874" y="993"/>
      <point x="803" y="1021"/>
      <point x="707" y="1021" type="qcurve"/>
      <point x="558" y="1021" type="line"/>
    </contour>
  </outline>
</glyph>
<glyph name="overscore" format="2">
  <advance width="1131"/>
  <unicode hex="00AF"/>
  <outline>
    <contour>
      <point x="-31" y="1566" type="line"/>
      <point x="-31" y="1695" type="line"/>
      <point x="1162" y="1695" type="line"/>
      <point x="1162" y="1566" type="line"/>
    </contour>
  </outline>
</glyph>
<glyph name="degree" format="2">
  <advance width="819"/>
  <unicode hex="00B0"/>
  <outline>
    <contour>
      <point x="128" y="1214" type="qcurve"/>
      <point x="128" y="1329"/>
      <point x="291" y="1491"/>
      <point x="405" y="1491" type="qcurve"/>
      <point x="521" y="1491"/>
      <point x="683" y="1329"/>
      <point x="683" y="1214" type="qcurve"/>
      <point x="683" y="1099"/>
      <point x="520" y="936"/>
      <point x="405" y="936" type="qcurve"/>
      <point x="291" y="936"/>
      <point x="128" y="1098"/>
    </contour>
    <contour>
      <point x="237" y="1214" type="qcurve"/>
      <point x="237" y="1144"/>
      <point x="336" y="1045"/>
      <point x="406" y="1045" type="qcurve"/>
      <point x="475" y="1045"/>
      <point x="574" y="1144"/>
      <point x="574" y="1214" type="qcurve"/>
      <point x="574" y="1284"/>
      <point x="475" y="1383"/>
      <point x="406" y="1383" type="qcurve"/>
      <point x="336" y="1383"/>
      <point x="237" y="1284"/>
    </contour>
  </outline>
</glyph>
<glyph name="plusminus" format="2">
  <advance width="1124"/>
  <unicode hex="00B1"/>
  <outline>
    <contour>
      <point x="477" y="260" type="line"/>
      <point x="477" y="663" type="line"/>
      <point x="78" y="663" type="line"/>
      <point x="78" y="830" type="line"/>
      <point x="477" y="830" type="line"/>
      <point x="477" y="1229" type="line"/>
      <point x="647" y="1229" type="line"/>
      <point x="647" y="830" type="line"/>
      <point x="1046" y="830" type="line"/>
      <point x="1046" y="663" type="line"/>
      <point x="647" y="663" type="line"/>
      <point x="647" y="260" type="line"/>
    </contour>
    <contour>
      <point x="1046" y="0" type="line"/>
      <point x="78" y="0" type="line"/>
      <point x="78" y="168" type="line"/>
      <point x="1046" y="168" type="line"/>
    </contour>
  </outline>
</glyph>
<glyph name="twosuperior" format="2">
  <advance width="682"/>
  <unicode hex="00B2"/>
  <outline>
    <contour>
      <point x="25" y="733" type="line"/>
      <point x="31" y="790"/>
      <point x="72" y="847" type="qcurve"/>
      <point x="135" y="933"/>
      <point x="423" y="1142"/>
      <point x="450" y="1172" type="qcurve"/>
      <point x="487" y="1213"/>
      <point x="487" y="1256" type="qcurve"/>
      <point x="487" y="1304"/>
      <point x="417" y="1366"/>
      <point x="349" y="1366" type="qcurve"/>
      <point x="283" y="1366"/>
      <point x="218" y="1319"/>
      <point x="197" y="1252" type="qcurve"/>
      <point x="46" y="1268" type="line"/>
      <point x="75" y="1379"/>
      <point x="218" y="1484"/>
      <point x="352" y="1484" type="qcurve"/>
      <point x="503" y="1484"/>
      <point x="644" y="1366"/>
      <point x="644" y="1281" type="qcurve"/>
      <point x="644" y="1197"/>
      <point x="585" y="1122" type="qcurve"/>
      <point x="540" y="1066"/>
      <point x="380" y="951" type="qcurve"/>
      <point x="297" y="890"/>
      <point x="262" y="854" type="qcurve"/>
      <point x="648" y="854" type="line"/>
      <point x="648" y="733" type="line"/>
    </contour>
  </outline>
</glyph>
<glyph name="threesuperior" format="2">
  <advance width="682"/>
  <unicode hex="00B3"/>
  <outline>
    <contour>
      <point x="33" y="929" type="qcurve"/>
      <point x="179" y="944" type="line"/>
      <point x="199" y="884"/>
      <point x="231" y="862" type="qcurve"/>
      <point x="274" y="832"/>
      <point x="333" y="832" type="qcurve"/>
      <point x="404" y="832"/>
      <point x="490" y="910"/>
      <point x="490" y="965" type="qcurve"/>
      <point x="490" y="1015"/>
      <point x="418" y="1075"/>
      <point x="331" y="1075" type="qcurve"/>
      <point x="319" y="1075"/>
      <point x="298" y="1073" type="qcurve"/>
      <point x="284" y="1072"/>
      <point x="276" y="1072" type="qcurve"/>
      <point x="298" y="1182" type="line"/>
      <point x="379" y="1181"/>
      <point x="454" y="1241"/>
      <point x="454" y="1284" type="qcurve"/>
      <point x="454" y="1321"/>
      <point x="394" y="1373"/>
      <point x="335" y="1373" type="qcurve"/>
      <point x="279" y="1373"/>
      <point x="216" y="1329"/>
      <point x="193" y="1271" type="qcurve"/>
      <point x="50" y="1294" type="line"/>
      <point x="91" y="1400"/>
      <point x="216" y="1484"/>
      <point x="336" y="1484" type="qcurve"/>
      <point x="480" y="1484"/>
      <point x="611" y="1377"/>
      <point x="611" y="1297" type="qcurve"/>
      <point x="611" y="1242"/>
      <point x="540" y="1156"/>
      <point x="473" y="1137" type="qcurve"/>
      <point x="562" y="1115"/>
      <point x="646" y="1014"/>
      <point x="646" y="946" type="qcurve"/>
      <point x="646" y="853"/>
      <point x="488" y="715"/>
      <point x="342" y="715" type="qcurve"/>
      <point x="202" y="715"/>
      <point x="54" y="826"/>
    </contour>
  </outline>
</glyph>
<glyph name="acute" format="2">
  <advance width="682"/>
  <unicode hex="00B4"/>
  <outline>
    <contour>
      <point x="222" y="1194" type="line"/>
      <point x="355" y="1474" type="line"/>
      <point x="591" y="1474" type="line"/>
      <point x="371" y="1194" type="line"/>
    </contour>
  </outline>
</glyph>
<glyph name="mu1" format="2">
  <advance width="1180"/>
  <unicode hex="00B5"/>
  <outline>
    <contour>
      <point x="1018" y="1062" type="line"/>
      <point x="1018" y="0" type="line"/>
      <point x="857" y="0" type="line"/>
      <point x="857" y="126" type="line"/>
      <point x="805" y="46"/>
      <point x="754" y="16" type="qcurve"/>
      <point x="684" y="-25"/>
      <point x="591" y="-25" type="qcurve"/>
      <point x="508" y="-25"/>
      <point x="444" y="8" type="qcurve"/>
      <point x="396" y="33"/>
      <point x="338" y="107" type="qcurve"/>
      <point x="338" y="-407" type="line"/>
      <point x="160" y="-407" type="line"/>
      <point x="160" y="1062" type="line"/>
      <point x="338" y="1062" type="line"/>
      <point x="338" y="612" type="line"/>
      <point x="338" y="367"/>
      <point x="390" y="222"/>
      <point x="507" y="138"/>
      <point x="583" y="138" type="qcurve"/>
      <point x="663" y="138"/>
      <point x="789" y="226"/>
      <point x="841" y="365"/>
      <point x="841" y="609" type="qcurve"/>
      <point x="841" y="1062" type="line"/>
    </contour>
  </outline>
</glyph>
<glyph name="paragraph" format="2">
  <advance width="1100"/>
  <unicode hex="00B6"/>
  <outline>
    <contour>
      <point x="405" y="-407" type="line"/>
      <point x="405" y="638" type="line"/>
      <point x="218" y="648"/>
      <point x="1" y="871"/>
      <point x="1" y="1044" type="qcurve"/>
      <point x="1" y="1237"/>
      <point x="242" y="1466"/>
      <point x="474" y="1466" type="qcurve"/>
      <point x="1107" y="1466" type="line"/>
      <point x="1107" y="1293" type="line"/>
      <point x="963" y="1293" type="line"/>
      <point x="963" y="-407" type="line"/>
      <point x="793" y="-407" type="line"/>
      <point x="793" y="1293" type="line"/>
      <point x="570" y="1293" type="line"/>
      <point x="570" y="-407" type="line"/>
    </contour>
  </outline>
</glyph>
<glyph name="cedilla" format="2">
  <advance width="682"/>
  <unicode hex="00B8"/>
  <outline>
    <contour>
      <point x="216" y="-154" type="qcurve"/>
      <point x="268" y="23" type="line"/>
      <point x="402" y="23" type="line"/>
      <point x="369" y="-84" type="line"/>
      <point x="454" y="-94"/>
      <point x="540" y="-179"/>
      <point x="540" y="-231" type="qcurve"/>
      <point x="540" y="-306"/>
      <point x="396" y="-421"/>
      <point x="251" y="-421" type="qcurve"/>
      <point x="169" y="-421"/>
      <point x="107" y="-409" type="qcurve"/>
      <point x="118" y="-292" type="line"/>
      <point x="182" y="-296"/>
      <point x="212" y="-296" type="qcurve"/>
      <point x="306" y="-296"/>
      <point x="344" y="-270" type="qcurve"/>
      <point x="373" y="-250"/>
      <point x="373" y="-221" type="qcurve"/>
      <point x="373" y="-203"/>
      <point x="350" y="-175"/>
      <point x="288" y="-155"/>
    </contour>
  </outline>
</glyph>
<glyph name="onesuperior" format="2">
  <advance width="682"/>
  <unicode hex="00B9"/>
  <outline>
    <contour>
      <point x="331" y="733" type="line"/>
      <point x="331" y="1287" type="line"/>
      <point x="229" y="1206"/>
      <point x="107" y="1174" type="qcurve"/>
      <point x="107" y="1297" type="line"/>
      <point x="169" y="1317"/>
      <point x="321" y="1423"/>
      <point x="368" y="1484" type="qcurve"/>
      <point x="476" y="1484" type="line"/>
      <point x="476" y="733" type="line"/>
    </contour>
  </outline>
</glyph>
<glyph name="ordmasculine" format="2">
  <advance width="748"/>
  <unicode hex="00BA"/>
  <outline>
    <contour>
      <point x="373" y="1491" type="qcurve"/>
      <point x="518" y="1491"/>
      <point x="701" y="1291"/>
      <point x="701" y="1115" type="qcurve"/>
      <point x="701" y="940"/>
      <point x="517" y="740"/>
      <point x="374" y="740" type="qcurve"/>
      <point x="229" y="740"/>
      <point x="45" y="936"/>
      <point x="45" y="1111" type="qcurve"/>
      <point x="45" y="1291"/>
      <point x="228" y="1491"/>
    </contour>
    <contour>
      <point x="373" y="1358" type="qcurve"/>
      <point x="292" y="1358"/>
      <point x="193" y="1244"/>
      <point x="193" y="1115" type="qcurve"/>
      <point x="193" y="989"/>
      <point x="294" y="872"/>
      <point x="373" y="872" type="qcurve"/>
      <point x="453" y="872"/>
      <point x="553" y="989"/>
      <point x="553" y="1120" type="qcurve"/>
      <point x="553" y="1242"/>
      <point x="452" y="1358"/>
    </contour>
  </outline>
</glyph>
<glyph name="guillemotright" format="2">
  <advance width="1139"/>
  <unicode hex="00BB"/>
  <outline>
    <contour>
      <point x="791" y="528" type="line"/>
      <point x="530" y="984" type="line"/>
      <point x="678" y="984" type="line"/>
      <point x="997" y="528" type="line"/>
      <point x="678" y="72" type="line"/>
      <point x="531" y="72" type="line"/>
    </contour>
    <contour>
      <point x="404" y="528" type="line"/>
      <point x="140" y="984" type="line"/>
      <point x="291" y="984" type="line"/>
      <point x="605" y="528" type="line"/>
      <point x="291" y="72" type="line"/>
      <point x="140" y="72" type="line"/>
    </contour>
  </outline>
</glyph>
<glyph name="onequarter" format="2">
  <advance width="1708"/>
  <unicode hex="00BC"/>
  <outline>
    <contour>
      <point x="252" y="-57" type="line"/>
      <point x="1354" y="1491" type="line"/>
      <point x="1510" y="1491" type="line"/>
      <point x="409" y="-57" type="line"/>
    </contour>
    <contour>
      <point x="331" y="733" type="line"/>
      <point x="331" y="1287" type="line"/>
      <point x="229" y="1206"/>
      <point x="107" y="1174" type="qcurve"/>
      <point x="107" y="1297" type="line"/>
      <point x="169" y="1317"/>
      <point x="321" y="1423"/>
      <point x="368" y="1484" type="qcurve"/>
      <point x="476" y="1484" type="line"/>
      <point x="476" y="733" type="line"/>
    </contour>
    <contour>
      <point x="1430" y="-31" type="line"/>
      <point x="1430" y="123" type="line"/>
      <point x="1047" y="123" type="line"/>
      <point x="1047" y="246" type="line"/>
      <point x="1452" y="720" type="line"/>
      <point x="1574" y="720" type="line"/>
      <point x="1574" y="231" type="line"/>
      <point x="1678" y="231" type="line"/>
      <point x="1678" y="123" type="line"/>
      <point x="1574" y="123" type="line"/>
      <point x="1574" y="-31" type="line"/>
    </contour>
    <contour>
      <point x="1430" y="231" type="line"/>
      <point x="1430" y="494" type="line"/>
      <point x="1200" y="231" type="line"/>
    </contour>
  </outline>
</glyph>
<glyph name="onehalf" format="2">
  <advance width="1708"/>
  <unicode hex="00BD"/>
  <outline>
    <contour>
      <point x="228" y="-57" type="line"/>
      <point x="1329" y="1491" type="line"/>
      <point x="1486" y="1491" type="line"/>
      <point x="385" y="-57" type="line"/>
    </contour>
    <contour>
      <point x="331" y="733" type="line"/>
      <point x="331" y="1287" type="line"/>
      <point x="229" y="1206"/>
      <point x="107" y="1174" type="qcurve"/>
      <point x="107" y="1297" type="line"/>
      <point x="169" y="1317"/>
      <point x="321" y="1423"/>
      <point x="368" y="1484" type="qcurve"/>
      <point x="476" y="1484" type="line"/>
      <point x="476" y="733" type="line"/>
    </contour>
    <contour>
      <point x="1049" y="-31" type="line"/>
      <point x="1055" y="25"/>
      <point x="1097" y="82" type="qcurve"/>
      <point x="1159" y="169"/>
      <point x="1447" y="377"/>
      <point x="1474" y="408" type="qcurve"/>
      <point x="1511" y="449"/>
      <point x="1511" y="492" type="qcurve"/>
      <point x="1511" y="540"/>
      <point x="1442" y="601"/>
      <point x="1373" y="601" type="qcurve"/>
      <point x="1307" y="601"/>
      <point x="1242" y="554"/>
      <point x="1221" y="488" type="qcurve"/>
      <point x="1070" y="503" type="line"/>
      <point x="1099" y="615"/>
      <point x="1243" y="720"/>
      <point x="1376" y="720" type="qcurve"/>
      <point x="1527" y="720"/>
      <point x="1668" y="602"/>
      <point x="1668" y="517" type="qcurve"/>
      <point x="1668" y="433"/>
      <point x="1609" y="358" type="qcurve"/>
      <point x="1564" y="302"/>
      <point x="1405" y="186" type="qcurve"/>
      <point x="1321" y="125"/>
      <point x="1286" y="90" type="qcurve"/>
      <point x="1672" y="90" type="line"/>
      <point x="1672" y="-31" type="line"/>
    </contour>
  </outline>
</glyph>
<glyph name="threequarters" format="2">
  <advance width="1708"/>
  <unicode hex="00BE"/>
  <outline>
    <contour>
      <point x="252" y="-57" type="line"/>
      <point x="1353" y="1491" type="line"/>
      <point x="1510" y="1491" type="line"/>
      <point x="409" y="-57" type="line"/>
    </contour>
    <contour>
      <point x="33" y="929" type="qcurve"/>
      <point x="179" y="944" type="line"/>
      <point x="199" y="884"/>
      <point x="231" y="862" type="qcurve"/>
      <point x="274" y="832"/>
      <point x="333" y="832" type="qcurve"/>
      <point x="404" y="832"/>
      <point x="490" y="910"/>
      <point x="490" y="965" type="qcurve"/>
      <point x="490" y="1015"/>
      <point x="418" y="1075"/>
      <point x="334" y="1075" type="qcurve"/>
      <point x="284" y="1072"/>
      <point x="276" y="1072" type="qcurve"/>
      <point x="298" y="1182" type="line"/>
      <point x="379" y="1181"/>
      <point x="454" y="1241"/>
      <point x="454" y="1284" type="qcurve"/>
      <point x="454" y="1321"/>
      <point x="394" y="1373"/>
      <point x="335" y="1373" type="qcurve"/>
      <point x="279" y="1373"/>
      <point x="216" y="1329"/>
      <point x="193" y="1271" type="qcurve"/>
      <point x="50" y="1294" type="line"/>
      <point x="91" y="1400"/>
      <point x="216" y="1484"/>
      <point x="336" y="1484" type="qcurve"/>
      <point x="480" y="1484"/>
      <point x="611" y="1377"/>
      <point x="611" y="1297" type="qcurve"/>
      <point x="611" y="1242"/>
      <point x="540" y="1156"/>
      <point x="473" y="1137" type="qcurve"/>
      <point x="562" y="1115"/>
      <point x="646" y="1014"/>
      <point x="646" y="946" type="qcurve"/>
      <point x="646" y="853"/>
      <point x="488" y="715"/>
      <point x="342" y="715" type="qcurve"/>
      <point x="202" y="715"/>
      <point x="54" y="826"/>
    </contour>
    <contour>
      <point x="1429" y="-31" type="line"/>
      <point x="1429" y="123" type="line"/>
      <point x="1047" y="123" type="line"/>
      <point x="1047" y="246" type="line"/>
      <point x="1451" y="720" type="line"/>
      <point x="1574" y="720" type="line"/>
      <point x="1574" y="231" type="line"/>
      <point x="1678" y="231" type="line"/>
      <point x="1678" y="123" type="line"/>
      <point x="1574" y="123" type="line"/>
      <point x="1574" y="-31" type="line"/>
    </contour>
    <contour>
      <point x="1429" y="231" type="line"/>
      <point x="1429" y="494" type="line"/>
      <point x="1200" y="231" type="line"/>
    </contour>
  </outline>
</glyph>
<glyph name="questiondown" format="2">
  <advance width="1251"/>
  <unicode hex="00BF"/>
  <outline>
    <contour>
      <point x="733" y="1062" type="line"/>
      <point x="733" y="857" type="line"/>
      <point x="528" y="857" type="line"/>
      <point x="528" y="1062" type="line"/>
    </contour>
    <contour>
      <point x="721" y="701" type="line"/>
      <point x="722" y="667"/>
      <point x="722" y="650" type="qcurve"/>
      <point x="722" y="540"/>
      <point x="692" y="463" type="qcurve"/>
      <point x="670" y="405"/>
      <point x="621" y="346" type="qcurve"/>
      <point x="585" y="303"/>
      <point x="398" y="139"/>
      <point x="343" y="41"/>
      <point x="343" y="-17" type="qcurve"/>
      <point x="343" y="-123"/>
      <point x="507" y="-281"/>
      <point x="626" y="-281" type="qcurve"/>
      <point x="740" y="-281"/>
      <point x="895" y="-137"/>
      <point x="919" y="15" type="qcurve"/>
      <point x="1103" y="-6" type="line"/>
      <point x="1078" y="-209"/>
      <point x="831" y="-429"/>
      <point x="629" y="-429" type="qcurve"/>
      <point x="413" y="-429"/>
      <point x="158" y="-195"/>
      <point x="158" y="-29" type="qcurve"/>
      <point x="158" y="68"/>
      <point x="247" y="228"/>
      <point x="378" y="344" type="qcurve"/>
      <point x="467" y="423"/>
      <point x="521" y="497"/>
      <point x="546" y="593"/>
      <point x="548" y="701" type="qcurve"/>
    </contour>
  </outline>
</glyph>
<glyph name="AE" format="2">
  <advance width="2048"/>
  <unicode hex="00C6"/>
  <outline>
    <contour>
      <point x="1" y="0" type="line"/>
      <point x="706" y="1466" type="line"/>
      <point x="1909" y="1466" type="line"/>
      <point x="1909" y="1293" type="line"/>
      <point x="1172" y="1293" type="line"/>
      <point x="1172" y="842" type="line"/>
      <point x="1857" y="842" type="line"/>
      <point x="1857" y="670" type="line"/>
      <point x="1172" y="670" type="line"/>
      <point x="1172" y="173" type="line"/>
      <point x="1936" y="173" type="line"/>
      <point x="1936" y="0" type="line"/>
      <point x="977" y="0" type="line"/>
      <point x="977" y="423" type="line"/>
      <point x="411" y="423" type="line"/>
      <point x="211" y="0" type="line"/>
    </contour>
    <contour>
      <point x="493" y="595" type="line"/>
      <point x="977" y="595" type="line"/>
      <point x="977" y="1293" type="line"/>
      <point x="832" y="1293" type="line"/>
    </contour>
  </outline>
</glyph>
<glyph name="Eth" format="2">
  <advance width="1479"/>
  <unicode hex="00D0"/>
  <outline>
    <contour>
      <point x="158" y="0" type="line"/>
      <point x="158" y="667" type="line"/>
      <point x="-3" y="667" type="line"/>
      <point x="-3" y="799" type="line"/>
      <point x="158" y="799" type="line"/>
      <point x="158" y="1466" type="line"/>
      <point x="664" y="1466" type="line"/>
      <point x="834" y="1466"/>
      <point x="924" y="1445" type="qcurve"/>
      <point x="1050" y="1416"/>
      <point x="1139" y="1340" type="qcurve"/>
      <point x="1255" y="1242"/>
      <point x="1370" y="937"/>
      <point x="1370" y="741" type="qcurve"/>
      <point x="1370" y="517"/>
      <point x="1228" y="194"/>
      <point x="1030" y="48"/>
      <point x="901" y="17" type="qcurve"/>
      <point x="830" y="0"/>
      <point x="687" y="0" type="qcurve"/>
    </contour>
    <contour>
      <point x="352" y="173" type="line"/>
      <point x="665" y="173" type="line"/>
      <point x="811" y="173"/>
      <point x="975" y="227"/>
      <point x="1023" y="275" type="qcurve"/>
      <point x="1092" y="344"/>
      <point x="1170" y="576"/>
      <point x="1170" y="743" type="qcurve"/>
      <point x="1170" y="915"/>
      <point x="1093" y="1121"/>
      <point x="969" y="1245"/>
      <point x="817" y="1293"/>
      <point x="660" y="1293" type="qcurve"/>
      <point x="352" y="1293" type="line"/>
      <point x="352" y="799" type="line"/>
      <point x="756" y="799" type="line"/>
      <point x="756" y="667" type="line"/>
      <point x="352" y="667" type="line"/>
    </contour>
  </outline>
</glyph>
<glyph name="multiply" format="2">
  <advance width="1196"/>
  <unicode hex="00D7"/>
  <outline>
    <contour>
      <point x="161" y="409" type="line"/>
      <point x="476" y="724" type="line"/>
      <point x="162" y="1038" type="line"/>
      <point x="284" y="1160" type="line"/>
      <point x="598" y="846" type="line"/>
      <point x="911" y="1159" type="line"/>
      <point x="1031" y="1038" type="line"/>
      <point x="719" y="725" type="line"/>
      <point x="1033" y="411" type="line"/>
      <point x="911" y="289" type="line"/>
      <point x="597" y="603" type="line"/>
      <point x="282" y="288" type="line"/>
    </contour>
  </outline>
</glyph>
<glyph name="Oslash" format="2">
  <advance width="1593"/>
  <unicode hex="00D8"/>
  <outline>
    <contour>
      <point x="1250" y="1332" type="qcurve"/>
      <point x="1418" y="1520" type="line"/>
      <point x="1517" y="1436" type="line"/>
      <point x="1341" y="1238" type="line"/>
      <point x="1427" y="1110"/>
      <point x="1457" y="1014" type="qcurve"/>
      <point x="1497" y="888"/>
      <point x="1497" y="732" type="qcurve"/>
      <point x="1497" y="507"/>
      <point x="1315" y="155"/>
      <point x="986" y="-25"/>
      <point x="801" y="-25" type="qcurve"/>
      <point x="663" y="-25"/>
      <point x="551" y="14" type="qcurve"/>
      <point x="465" y="44"/>
      <point x="350" y="129" type="qcurve"/>
      <point x="182" y="-59" type="line"/>
      <point x="83" y="25" type="line"/>
      <point x="259" y="222" type="line"/>
      <point x="161" y="371"/>
      <point x="95" y="582"/>
      <point x="95" y="730" type="qcurve"/>
      <point x="95" y="956"/>
      <point x="275" y="1309"/>
      <point x="600" y="1491"/>
      <point x="799" y="1491" type="qcurve"/>
      <point x="933" y="1491"/>
      <point x="1134" y="1420"/>
    </contour>
    <contour>
      <point x="1130" y="1197" type="line"/>
      <point x="1036" y="1271"/>
      <point x="895" y="1325"/>
      <point x="800" y="1325" type="qcurve"/>
      <point x="581" y="1325"/>
      <point x="295" y="1028"/>
      <point x="295" y="733" type="qcurve"/>
      <point x="295" y="617"/>
      <point x="317" y="527" type="qcurve"/>
      <point x="333" y="460"/>
      <point x="384" y="362" type="qcurve"/>
    </contour>
    <contour>
      <point x="1212" y="1094" type="qcurve"/>
      <point x="469" y="262" type="line"/>
      <point x="546" y="199"/>
      <point x="611" y="174" type="qcurve"/>
      <point x="696" y="141"/>
      <point x="795" y="141" type="qcurve"/>
      <point x="1013" y="141"/>
      <point x="1297" y="449"/>
      <point x="1297" y="727" type="qcurve"/>
      <point x="1297" y="935"/>
    </contour>
  </outline>
</glyph>
<glyph name="Thorn" format="2">
  <advance width="1366"/>
  <unicode hex="00DE"/>
  <outline>
    <contour>
      <point x="158" y="0" type="line"/>
      <point x="158" y="1466" type="line"/>
      <point x="352" y="1466" type="line"/>
      <point x="352" y="1168" type="line"/>
      <point x="711" y="1168" type="line"/>
      <point x="857" y="1168"/>
      <point x="935" y="1154" type="qcurve"/>
      <point x="1043" y="1135"/>
      <point x="1189" y="1034"/>
      <point x="1277" y="852"/>
      <point x="1277" y="743" type="qcurve"/>
      <point x="1277" y="557"/>
      <point x="1039" y="298"/>
      <point x="728" y="298" type="qcurve"/>
      <point x="352" y="298" type="line"/>
      <point x="352" y="0" type="line"/>
    </contour>
    <contour>
      <point x="352" y="471" type="line"/>
      <point x="731" y="471" type="line"/>
      <point x="919" y="471"/>
      <point x="1077" y="611"/>
      <point x="1077" y="737" type="qcurve"/>
      <point x="1077" y="828"/>
      <point x="985" y="960"/>
      <point x="909" y="981" type="qcurve"/>
      <point x="860" y="995"/>
      <point x="727" y="995" type="qcurve"/>
      <point x="352" y="995" type="line"/>
    </contour>
  </outline>
</glyph>
<glyph name="germandbls" format="2">
  <advance width="1251"/>
  <unicode hex="00DF"/>
  <outline>
    <contour>
      <point x="153" y="0" type="line"/>
      <point x="153" y="999" type="line"/>
      <point x="153" y="1182"/>
      <point x="242" y="1379"/>
      <point x="450" y="1491"/>
      <point x="580" y="1491" type="qcurve"/>
      <point x="753" y="1491"/>
      <point x="951" y="1318"/>
      <point x="951" y="1204" type="qcurve"/>
      <point x="951" y="1153"/>
      <point x="915" y="1045"/>
      <point x="823" y="884"/>
      <point x="799" y="821"/>
      <point x="799" y="797" type="qcurve"/>
      <point x="799" y="765"/>
      <point x="821" y="734" type="qcurve"/>
      <point x="842" y="702"/>
      <point x="942" y="637" type="qcurve"/>
      <point x="1078" y="548"/>
      <point x="1123" y="494" type="qcurve"/>
      <point x="1187" y="417"/>
      <point x="1187" y="312" type="qcurve"/>
      <point x="1187" y="173"/>
      <point x="982" y="-25"/>
      <point x="822" y="-25" type="qcurve"/>
      <point x="696" y="-25"/>
      <point x="506" y="110"/>
      <point x="459" y="216" type="qcurve"/>
      <point x="614" y="288" type="line"/>
      <point x="664" y="195"/>
      <point x="764" y="123"/>
      <point x="819" y="123" type="qcurve"/>
      <point x="895" y="123"/>
      <point x="1003" y="227"/>
      <point x="1003" y="297" type="qcurve"/>
      <point x="1003" y="353"/>
      <point x="971" y="393" type="qcurve"/>
      <point x="950" y="419"/>
      <point x="859" y="481" type="qcurve"/>
      <point x="693" y="595"/>
      <point x="654" y="652" type="qcurve"/>
      <point x="614" y="709"/>
      <point x="614" y="769" type="qcurve"/>
      <point x="614" y="808"/>
      <point x="641" y="888"/>
      <point x="744" y="1064"/>
      <point x="776" y="1152"/>
      <point x="776" y="1186" type="qcurve"/>
      <point x="776" y="1248"/>
      <point x="667" y="1343"/>
      <point x="576" y="1343" type="qcurve"/>
      <point x="469" y="1343"/>
      <point x="333" y="1211"/>
      <point x="333" y="991" type="qcurve"/>
      <point x="333" y="0" type="line"/>
    </contour>
  </outline>
</glyph>
<glyph name="ae" format="2">
  <advance width="1821"/>
  <unicode hex="00E6"/>
  <outline>
    <contour>
      <point x="1734" y="325" type="line"/>
      <point x="1684" y="158"/>
      <point x="1444" y="-24"/>
      <point x="1266" y="-24" type="qcurve"/>
      <point x="1139" y="-24"/>
      <point x="948" y="72"/>
      <point x="871" y="174" type="qcurve"/>
      <point x="767" y="72"/>
      <point x="554" y="-24"/>
      <point x="431" y="-24" type="qcurve"/>
      <point x="259" y="-24"/>
      <point x="68" y="153"/>
      <point x="68" y="280" type="qcurve"/>
      <point x="68" y="366"/>
      <point x="167" y="517"/>
      <point x="344" y="595"/>
      <point x="538" y="620" type="qcurve"/>
      <point x="688" y="640"/>
      <point x="790" y="669" type="qcurve"/>
      <point x="791" y="694"/>
      <point x="791" y="710" type="qcurve"/>
      <point x="791" y="836"/>
      <point x="686" y="937"/>
      <point x="555" y="937" type="qcurve"/>
      <point x="468" y="937"/>
      <point x="348" y="895"/>
      <point x="291" y="818"/>
      <point x="272" y="733" type="qcurve"/>
      <point x="97" y="754" type="line"/>
      <point x="125" y="871"/>
      <point x="230" y="1008"/>
      <point x="426" y="1086"/>
      <point x="557" y="1086" type="qcurve"/>
      <point x="724" y="1086"/>
      <point x="826" y="1036" type="qcurve"/>
      <point x="885" y="1007"/>
      <point x="925" y="943" type="qcurve"/>
      <point x="989" y="1013"/>
      <point x="1151" y="1086"/>
      <point x="1266" y="1086" type="qcurve"/>
      <point x="1428" y="1086"/>
      <point x="1640" y="929"/>
      <point x="1738" y="671"/>
      <point x="1738" y="546" type="qcurve"/>
      <point x="1738" y="527"/>
      <point x="1736" y="485" type="qcurve"/>
      <point x="969" y="485" type="line"/>
      <point x="971" y="341"/>
      <point x="1038" y="211"/>
      <point x="1185" y="124"/>
      <point x="1273" y="124" type="qcurve"/>
      <point x="1376" y="124"/>
      <point x="1519" y="242"/>
      <point x="1546" y="349" type="qcurve"/>
    </contour>
    <contour>
      <point x="969" y="633" type="qcurve"/>
      <point x="1553" y="633" type="line"/>
      <point x="1539" y="791"/>
      <point x="1387" y="937"/>
      <point x="1265" y="937" type="qcurve"/>
      <point x="1139" y="937"/>
      <point x="978" y="777"/>
    </contour>
    <contour>
      <point x="793" y="533" type="qcurve"/>
      <point x="714" y="499"/>
      <point x="471" y="460" type="qcurve"/>
      <point x="362" y="443"/>
      <point x="318" y="409" type="qcurve"/>
      <point x="259" y="362"/>
      <point x="259" y="286" type="qcurve"/>
      <point x="259" y="215"/>
      <point x="365" y="118"/>
      <point x="466" y="118" type="qcurve"/>
      <point x="581" y="118"/>
      <point x="752" y="232"/>
      <point x="778" y="317" type="qcurve"/>
      <point x="793" y="369"/>
    </contour>
  </outline>
</glyph>
<glyph name="eth" format="2">
  <advance width="1139"/>
  <unicode hex="00F0"/>
  <outline>
    <contour>
      <point x="308" y="1466" type="qcurve"/>
      <point x="525" y="1466" type="line"/>
      <point x="597" y="1412"/>
      <point x="650" y="1364" type="qcurve"/>
      <point x="864" y="1466" type="line"/>
      <point x="909" y="1364" type="line"/>
      <point x="737" y="1281" type="line"/>
      <point x="1057" y="913"/>
      <point x="1057" y="521" type="qcurve"/>
      <point x="1057" y="268"/>
      <point x="779" y="-25"/>
      <point x="564" y="-25" type="qcurve"/>
      <point x="309" y="-25"/>
      <point x="166" y="169" type="qcurve"/>
      <point x="73" y="296"/>
      <point x="73" y="517" type="qcurve"/>
      <point x="73" y="778"/>
      <point x="331" y="1062"/>
      <point x="525" y="1062" type="qcurve"/>
      <point x="583" y="1062"/>
      <point x="671" y="1038"/>
      <point x="737" y="1003" type="qcurve"/>
      <point x="701" y="1076"/>
      <point x="647" y="1157"/>
      <point x="595" y="1216" type="qcurve"/>
      <point x="320" y="1089" type="line"/>
      <point x="276" y="1192" type="line"/>
      <point x="515" y="1301" type="line"/>
      <point x="418" y="1391"/>
    </contour>
    <contour>
      <point x="870" y="529" type="qcurve"/>
      <point x="870" y="721"/>
      <point x="689" y="924"/>
      <point x="557" y="924" type="qcurve"/>
      <point x="427" y="924"/>
      <point x="257" y="721"/>
      <point x="257" y="512" type="qcurve"/>
      <point x="257" y="318"/>
      <point x="432" y="122"/>
      <point x="563" y="122" type="qcurve"/>
      <point x="691" y="122"/>
      <point x="870" y="329"/>
    </contour>
  </outline>
</glyph>
<glyph name="divide" format="2">
  <advance width="1124"/>
  <unicode hex="00F7"/>
  <outline>
    <contour>
      <point x="459" y="922" type="line"/>
      <point x="459" y="1127" type="line"/>
      <point x="664" y="1127" type="line"/>
      <point x="664" y="922" type="line"/>
    </contour>
    <contour>
      <point x="1046" y="639" type="line"/>
      <point x="78" y="639" type="line"/>
      <point x="78" y="807" type="line"/>
      <point x="1046" y="807" type="line"/>
    </contour>
    <contour>
      <point x="459" y="319" type="line"/>
      <point x="459" y="524" type="line"/>
      <point x="664" y="524" type="line"/>
      <point x="664" y="319" type="line"/>
    </contour>
  </outline>
</glyph>
<glyph name="oslash" format="2">
  <advance width="1251"/>
  <unicode hex="00F8"/>
  <outline>
    <contour>
      <point x="919" y="999" type="qcurve"/>
      <point x="1018" y="1127" type="line"/>
      <point x="1114" y="1057" type="line"/>
      <point x="1007" y="919" type="line"/>
      <point x="1070" y="833"/>
      <point x="1093" y="763" type="qcurve"/>
      <point x="1124" y="663"/>
      <point x="1124" y="530" type="qcurve"/>
      <point x="1124" y="230"/>
      <point x="955" y="89" type="qcurve"/>
      <point x="818" y="-24"/>
      <point x="625" y="-24" type="qcurve"/>
      <point x="466" y="-24"/>
      <point x="344" y="56" type="qcurve"/>
      <point x="239" y="-79" type="line"/>
      <point x="145" y="-8" type="line"/>
      <point x="253" y="133" type="line"/>
      <point x="194" y="201"/>
      <point x="169" y="269" type="qcurve"/>
      <point x="129" y="378"/>
      <point x="129" y="516" type="qcurve"/>
      <point x="129" y="817"/>
      <point x="423" y="1086"/>
      <point x="621" y="1086" type="qcurve"/>
      <point x="703" y="1086"/>
      <point x="841" y="1044"/>
    </contour>
    <contour>
      <point x="818" y="867" type="line"/>
      <point x="727" y="937"/>
      <point x="627" y="937" type="qcurve"/>
      <point x="494" y="937"/>
      <point x="314" y="733"/>
      <point x="314" y="531" type="qcurve"/>
      <point x="314" y="381"/>
      <point x="366" y="280" type="qcurve"/>
    </contour>
    <contour>
      <point x="893" y="770" type="qcurve"/>
      <point x="444" y="187" type="line"/>
      <point x="522" y="124"/>
      <point x="620" y="124" type="qcurve"/>
      <point x="759" y="124"/>
      <point x="940" y="328"/>
      <point x="940" y="532" type="qcurve"/>
      <point x="940" y="608"/>
      <point x="928" y="665" type="qcurve"/>
      <point x="920" y="707"/>
    </contour>
  </outline>
</glyph>
<glyph name="thorn" format="2">
  <advance width="1139"/>
  <unicode hex="00FE"/>
  <outline>
    <contour>
      <point x="135" y="-407" type="line"/>
      <point x="135" y="1466" type="line"/>
      <point x="315" y="1466" type="line"/>
      <point x="315" y="950" type="line"/>
      <point x="388" y="1027"/>
      <point x="443" y="1052" type="qcurve"/>
      <point x="515" y="1086"/>
      <point x="607" y="1086" type="qcurve"/>
      <point x="743" y="1086"/>
      <point x="951" y="946"/>
      <point x="1057" y="691"/>
      <point x="1057" y="539" type="qcurve"/>
      <point x="1057" y="375"/>
      <point x="940" y="115"/>
      <point x="717" y="-24"/>
      <point x="595" y="-24" type="qcurve"/>
      <point x="512" y="-24"/>
      <point x="441" y="9" type="qcurve"/>
      <point x="387" y="35"/>
      <point x="315" y="110" type="qcurve"/>
      <point x="315" y="-407" type="line"/>
    </contour>
    <contour>
      <point x="298" y="525" type="qcurve"/>
      <point x="298" y="320"/>
      <point x="464" y="124"/>
      <point x="582" y="124" type="qcurve"/>
      <point x="702" y="124"/>
      <point x="873" y="327"/>
      <point x="873" y="540" type="qcurve"/>
      <point x="873" y="743"/>
      <point x="706" y="945"/>
      <point x="590" y="945" type="qcurve"/>
      <point x="475" y="945"/>
      <point x="298" y="730"/>
    </contour>
  </outline>
</glyph>
<glyph name="dcaron" format="2">
  <advance width="1259"/>
  <unicode hex="010F"/>
  <outline>
    <contour>
      <point x="1078" y="1281" type="line"/>
      <point x="1078" y="1466" type="line"/>
      <point x="1262" y="1466" type="line"/>
      <point x="1262" y="1281" type="line"/>
      <point x="1262" y="1180"/>
      <point x="1190" y="1055"/>
      <point x="1112" y="1021" type="qcurve"/>
      <point x="1067" y="1089" type="line"/>
      <point x="1118" y="1112"/>
      <point x="1167" y="1199"/>
      <point x="1169" y="1281" type="qcurve"/>
    </contour>
    <contour>
      <point x="825" y="0" type="line"/>
      <point x="825" y="134" type="line"/>
      <point x="724" y="-24"/>
      <point x="528" y="-24" type="qcurve"/>
      <point x="401" y="-24"/>
      <point x="188" y="116"/>
      <point x="71" y="367"/>
      <point x="71" y="530" type="qcurve"/>
      <point x="71" y="689"/>
      <point x="177" y="948"/>
      <point x="389" y="1086"/>
      <point x="520" y="1086" type="qcurve"/>
      <point x="616" y="1086"/>
      <point x="766" y="1005"/>
      <point x="813" y="940" type="qcurve"/>
      <point x="813" y="1466" type="line"/>
      <point x="992" y="1466" type="line"/>
      <point x="992" y="0" type="line"/>
    </contour>
    <contour>
      <point x="256" y="530" type="qcurve"/>
      <point x="256" y="326"/>
      <point x="428" y="124"/>
      <point x="545" y="124" type="qcurve"/>
      <point x="663" y="124"/>
      <point x="828" y="317"/>
      <point x="828" y="515" type="qcurve"/>
      <point x="828" y="733"/>
      <point x="660" y="937"/>
      <point x="537" y="937" type="qcurve"/>
      <point x="417" y="937"/>
      <point x="256" y="741"/>
    </contour>
  </outline>
</glyph>
<glyph name="dmacron" format="2">
  <advance width="1139"/>
  <unicode hex="0111"/>
  <outline>
    <contour>
      <point x="812" y="1219" type="line"/>
      <point x="466" y="1219" type="line"/>
      <point x="466" y="1351" type="line"/>
      <point x="812" y="1351" type="line"/>
      <point x="812" y="1466" type="line"/>
      <point x="991" y="1466" type="line"/>
      <point x="991" y="1351" type="line"/>
      <point x="1136" y="1351" type="line"/>
      <point x="1136" y="1219" type="line"/>
      <point x="991" y="1219" type="line"/>
      <point x="991" y="0" type="line"/>
      <point x="824" y="0" type="line"/>
      <point x="824" y="134" type="line"/>
      <point x="723" y="-24"/>
      <point x="527" y="-24" type="qcurve"/>
      <point x="400" y="-24"/>
      <point x="187" y="116"/>
      <point x="70" y="367"/>
      <point x="70" y="530" type="qcurve"/>
      <point x="70" y="689"/>
      <point x="176" y="948"/>
      <point x="388" y="1086"/>
      <point x="519" y="1086" type="qcurve"/>
      <point x="615" y="1086"/>
      <point x="765" y="1005"/>
      <point x="812" y="940" type="qcurve"/>
    </contour>
    <contour>
      <point x="255" y="530" type="qcurve"/>
      <point x="255" y="326"/>
      <point x="427" y="124"/>
      <point x="544" y="124" type="qcurve"/>
      <point x="662" y="124"/>
      <point x="827" y="317"/>
      <point x="827" y="515" type="qcurve"/>
      <point x="827" y="733"/>
      <point x="659" y="937"/>
      <point x="536" y="937" type="qcurve"/>
      <point x="416" y="937"/>
      <point x="255" y="741"/>
    </contour>
  </outline>
</glyph>
<glyph name="gcedilla" format="2">
  <advance width="1139"/>
  <unicode hex="0123"/>
  <outline>
    <contour>
      <point x="632" y="1345" type="line"/>
      <point x="632" y="1170" type="line"/>
      <point x="423" y="1170" type="line"/>
      <point x="423" y="1287" type="line"/>
      <point x="423" y="1399"/>
      <point x="497" y="1539"/>
      <point x="591" y="1576" type="qcurve"/>
      <point x="645" y="1493" type="line"/>
      <point x="552" y="1454"/>
      <point x="536" y="1345" type="qcurve"/>
    </contour>
    <contour>
      <point x="102" y="-88" type="qcurve"/>
      <point x="277" y="-114" type="line"/>
      <point x="294" y="-282"/>
      <point x="521" y="-282" type="qcurve"/>
      <point x="642" y="-282"/>
      <point x="781" y="-186"/>
      <point x="819" y="-42"/>
      <point x="819" y="139" type="qcurve"/>
      <point x="702" y="0"/>
      <point x="528" y="0" type="qcurve"/>
      <point x="308" y="0"/>
      <point x="66" y="315"/>
      <point x="66" y="535" type="qcurve"/>
      <point x="66" y="776"/>
      <point x="308" y="1086"/>
      <point x="528" y="1086" type="qcurve"/>
      <point x="714" y="1086"/>
      <point x="836" y="934" type="qcurve"/>
      <point x="836" y="1062" type="line"/>
      <point x="1002" y="1062" type="line"/>
      <point x="1002" y="144" type="line"/>
      <point x="1002" y="-87"/>
      <point x="910" y="-305"/>
      <point x="681" y="-431"/>
      <point x="526" y="-431" type="qcurve"/>
      <point x="312" y="-431"/>
      <point x="98" y="-244"/>
    </contour>
    <contour>
      <point x="251" y="550" type="qcurve"/>
      <point x="251" y="337"/>
      <point x="421" y="149"/>
      <point x="542" y="149" type="qcurve"/>
      <point x="671" y="149"/>
      <point x="834" y="346"/>
      <point x="834" y="548" type="qcurve"/>
      <point x="834" y="718"/>
      <point x="679" y="937"/>
      <point x="539" y="937" type="qcurve"/>
      <point x="409" y="937"/>
      <point x="251" y="730"/>
    </contour>
  </outline>
</glyph>
<glyph name="Hbar" format="2">
  <advance width="1479"/>
  <unicode hex="0126"/>
  <outline>
    <contour>
      <point x="164" y="1099" type="line"/>
      <point x="31" y="1099" type="line"/>
      <point x="31" y="1247" type="line"/>
      <point x="164" y="1247" type="line"/>
      <point x="164" y="1466" type="line"/>
      <point x="358" y="1466" type="line"/>
      <point x="358" y="1247" type="line"/>
      <point x="1120" y="1247" type="line"/>
      <point x="1120" y="1466" type="line"/>
      <point x="1314" y="1466" type="line"/>
      <point x="1314" y="1247" type="line"/>
      <point x="1447" y="1247" type="line"/>
      <point x="1447" y="1099" type="line"/>
      <point x="1314" y="1099" type="line"/>
      <point x="1314" y="0" type="line"/>
      <point x="1120" y="0" type="line"/>
      <point x="1120" y="691" type="line"/>
      <point x="358" y="691" type="line"/>
      <point x="358" y="0" type="line"/>
      <point x="164" y="0" type="line"/>
    </contour>
    <contour>
      <point x="358" y="1099" type="line"/>
      <point x="358" y="864" type="line"/>
      <point x="1120" y="864" type="line"/>
      <point x="1120" y="1099" type="line"/>
    </contour>
  </outline>
</glyph>
<glyph name="hbar" format="2">
  <advance width="1139"/>
  <unicode hex="0127"/>
  <outline>
    <contour>
      <point x="135" y="1199" type="line"/>
      <point x="6" y="1199" type="line"/>
      <point x="6" y="1333" type="line"/>
      <point x="135" y="1333" type="line"/>
      <point x="135" y="1466" type="line"/>
      <point x="315" y="1466" type="line"/>
      <point x="315" y="1333" type="line"/>
      <point x="682" y="1333" type="line"/>
      <point x="682" y="1199" type="line"/>
      <point x="315" y="1199" type="line"/>
      <point x="315" y="940" type="line"/>
      <point x="437" y="1086"/>
      <point x="635" y="1086" type="qcurve"/>
      <point x="772" y="1086"/>
      <point x="1000" y="934"/>
      <point x="1000" y="673" type="qcurve"/>
      <point x="1000" y="0" type="line"/>
      <point x="820" y="0" type="line"/>
      <point x="820" y="673" type="line"/>
      <point x="820" y="931"/>
      <point x="595" y="931" type="qcurve"/>
      <point x="472" y="931"/>
      <point x="315" y="770"/>
      <point x="315" y="581" type="qcurve"/>
      <point x="315" y="0" type="line"/>
      <point x="135" y="0" type="line"/>
    </contour>
  </outline>
</glyph>
<glyph name="Iogonek" format="2">
  <advance width="569"/>
  <unicode hex="012E"/>
  <outline>
    <contour>
      <point x="318" y="0" type="line"/>
      <point x="289" y="-78"/>
      <point x="289" y="-140" type="qcurve"/>
      <point x="289" y="-207"/>
      <point x="371" y="-292"/>
      <point x="433" y="-292" type="qcurve"/>
      <point x="510" y="-292"/>
      <point x="601" y="-246" type="qcurve"/>
      <point x="601" y="-365" type="line"/>
      <point x="482" y="-426"/>
      <point x="378" y="-426" type="qcurve"/>
      <point x="287" y="-426"/>
      <point x="163" y="-308"/>
      <point x="163" y="-205" type="qcurve"/>
      <point x="163" y="-125"/>
      <point x="198" y="1" type="qcurve"/>
      <point x="198" y="1466" type="line"/>
      <point x="392" y="1466" type="line"/>
      <point x="392" y="0" type="line"/>
    </contour>
  </outline>
</glyph>
<glyph name="iogonek" format="2">
  <advance width="455"/>
  <unicode hex="012F"/>
  <outline>
    <contour>
      <point x="136" y="1259" type="line"/>
      <point x="136" y="1466" type="line"/>
      <point x="316" y="1466" type="line"/>
      <point x="316" y="1259" type="line"/>
    </contour>
    <contour>
      <point x="257" y="0" type="line"/>
      <point x="228" y="-78"/>
      <point x="228" y="-140" type="qcurve"/>
      <point x="228" y="-207"/>
      <point x="310" y="-292"/>
      <point x="372" y="-292" type="qcurve"/>
      <point x="449" y="-292"/>
      <point x="540" y="-246" type="qcurve"/>
      <point x="540" y="-365" type="line"/>
      <point x="423" y="-425"/>
      <point x="319" y="-425" type="qcurve"/>
      <point x="218" y="-425"/>
      <point x="102" y="-303"/>
      <point x="102" y="-205" type="qcurve"/>
      <point x="102" y="-140"/>
      <point x="136" y="0" type="qcurve"/>
      <point x="136" y="1062" type="line"/>
      <point x="316" y="1062" type="line"/>
      <point x="316" y="0" type="line"/>
    </contour>
  </outline>
</glyph>
<glyph name="dotlessi" format="2">
  <advance width="569"/>
  <unicode hex="0131"/>
  <outline>
    <contour>
      <point x="198" y="0" type="line"/>
      <point x="198" y="1062" type="line"/>
      <point x="378" y="1062" type="line"/>
      <point x="378" y="0" type="line"/>
    </contour>
  </outline>
</glyph>
<glyph name="jcircumflex" format="2">
  <advance width="455"/>
  <unicode hex="0135"/>
  <outline>
    <contour>
      <point x="230" y="1364" type="line"/>
      <point x="117" y="1194" type="line"/>
      <point x="-88" y="1194" type="line"/>
      <point x="128" y="1474" type="line"/>
      <point x="320" y="1474" type="line"/>
      <point x="544" y="1194" type="line"/>
      <point x="341" y="1194" type="line"/>
    </contour>
    <contour>
      <point x="-94" y="-412" type="qcurve"/>
      <point x="-60" y="-259" type="line"/>
      <point x="-8" y="-273"/>
      <point x="25" y="-273" type="qcurve"/>
      <point x="88" y="-273"/>
      <point x="134" y="-190"/>
      <point x="134" y="-54" type="qcurve"/>
      <point x="134" y="1062" type="line"/>
      <point x="314" y="1062" type="line"/>
      <point x="314" y="-58" type="line"/>
      <point x="314" y="-255"/>
      <point x="197" y="-431"/>
      <point x="47" y="-431" type="qcurve"/>
      <point x="-26" y="-431"/>
    </contour>
  </outline>
</glyph>
<glyph name="kgreenlandic" format="2">
  <advance width="1024"/>
  <unicode hex="0138"/>
  <outline>
    <contour>
      <point x="134" y="0" type="line"/>
      <point x="134" y="1062" type="line"/>
      <point x="314" y="1062" type="line"/>
      <point x="314" y="630" type="line"/>
      <point x="740" y="1062" type="line"/>
      <point x="973" y="1062" type="line"/>
      <point x="567" y="668" type="line"/>
      <point x="1014" y="0" type="line"/>
      <point x="792" y="0" type="line"/>
      <point x="441" y="543" type="line"/>
      <point x="314" y="421" type="line"/>
      <point x="314" y="0" type="line"/>
    </contour>
  </outline>
</glyph>
<glyph name="Lcaron" format="2">
  <advance width="1139"/>
  <unicode hex="013D"/>
  <outline>
    <contour>
      <point x="712" y="1261" type="line"/>
      <point x="712" y="1466" type="line"/>
      <point x="917" y="1466" type="line"/>
      <point x="917" y="1261" type="line"/>
      <point x="917" y="1148"/>
      <point x="837" y="1009"/>
      <point x="750" y="971" type="qcurve"/>
      <point x="700" y="1048" type="line"/>
      <point x="757" y="1073"/>
      <point x="812" y="1170"/>
      <point x="814" y="1261" type="qcurve"/>
    </contour>
    <contour>
      <point x="150" y="0" type="line"/>
      <point x="150" y="1466" type="line"/>
      <point x="344" y="1466" type="line"/>
      <point x="344" y="173" type="line"/>
      <point x="1066" y="173" type="line"/>
      <point x="1066" y="0" type="line"/>
    </contour>
  </outline>
</glyph>
<glyph name="lcaron" format="2">
  <advance width="597"/>
  <unicode hex="013E"/>
  <outline>
    <contour>
      <point x="412" y="1281" type="line"/>
      <point x="412" y="1466" type="line"/>
      <point x="596" y="1466" type="line"/>
      <point x="596" y="1281" type="line"/>
      <point x="596" y="1180"/>
      <point x="524" y="1055"/>
      <point x="446" y="1021" type="qcurve"/>
      <point x="401" y="1089" type="line"/>
      <point x="452" y="1112"/>
      <point x="501" y="1199"/>
      <point x="503" y="1281" type="qcurve"/>
    </contour>
    <contour>
      <point x="136" y="0" type="line"/>
      <point x="136" y="1466" type="line"/>
      <point x="316" y="1466" type="line"/>
      <point x="316" y="0" type="line"/>
    </contour>
  </outline>
</glyph>
<glyph name="Lslash" format="2">
  <advance width="1139"/>
  <unicode hex="0141"/>
  <outline>
    <contour>
      <point x="145" y="565" type="line"/>
      <point x="0" y="442" type="line"/>
      <point x="0" y="609" type="line"/>
      <point x="145" y="733" type="line"/>
      <point x="145" y="1466" type="line"/>
      <point x="339" y="1466" type="line"/>
      <point x="339" y="898" type="line"/>
      <point x="671" y="1179" type="line"/>
      <point x="671" y="1012" type="line"/>
      <point x="339" y="731" type="line"/>
      <point x="339" y="173" type="line"/>
      <point x="1067" y="173" type="line"/>
      <point x="1067" y="0" type="line"/>
      <point x="145" y="0" type="line"/>
    </contour>
  </outline>
</glyph>
<glyph name="lslash" format="2">
  <advance width="455"/>
  <unicode hex="0142"/>
  <outline>
    <contour>
      <point x="133" y="574" type="line"/>
      <point x="3" y="464" type="line"/>
      <point x="3" y="622" type="line"/>
      <point x="133" y="732" type="line"/>
      <point x="133" y="1466" type="line"/>
      <point x="312" y="1466" type="line"/>
      <point x="312" y="884" type="line"/>
      <point x="447" y="999" type="line"/>
      <point x="447" y="842" type="line"/>
      <point x="312" y="727" type="line"/>
      <point x="312" y="0" type="line"/>
      <point x="133" y="0" type="line"/>
    </contour>
  </outline>
</glyph>
<glyph name="Eng" format="2">
  <advance width="1481"/>
  <unicode hex="014A"/>
  <outline>
    <contour>
      <point x="165" y="1466" type="line"/>
      <point x="361" y="1466" type="line"/>
      <point x="361" y="1284" type="line"/>
      <point x="476" y="1416"/>
      <point x="702" y="1491"/>
      <point x="827" y="1491" type="qcurve"/>
      <point x="1008" y="1491"/>
      <point x="1237" y="1329"/>
      <point x="1373" y="1024"/>
      <point x="1373" y="754" type="qcurve"/>
      <point x="1373" y="360"/>
      <point x="1113" y="-25"/>
      <point x="893" y="-25" type="qcurve"/>
      <point x="766" y="-25"/>
      <point x="645" y="47" type="qcurve"/>
      <point x="732" y="200" type="line"/>
      <point x="828" y="148"/>
      <point x="893" y="148" type="qcurve"/>
      <point x="970" y="148"/>
      <point x="1100" y="277"/>
      <point x="1176" y="540"/>
      <point x="1176" y="749" type="qcurve"/>
      <point x="1176" y="1328"/>
      <point x="771" y="1328" type="qcurve"/>
      <point x="638" y="1328"/>
      <point x="437" y="1203"/>
      <point x="361" y="1010"/>
      <point x="361" y="801" type="qcurve"/>
      <point x="361" y="0" type="line"/>
      <point x="165" y="0" type="line"/>
    </contour>
  </outline>
</glyph>
<glyph name="eng" format="2">
  <advance width="1139"/>
  <unicode hex="014B"/>
  <outline>
    <contour>
      <point x="1002" y="653" type="qcurve"/>
      <point x="1002" y="-58" type="line"/>
      <point x="1002" y="-255"/>
      <point x="885" y="-431"/>
      <point x="735" y="-431" type="qcurve"/>
      <point x="662" y="-431"/>
      <point x="594" y="-412" type="qcurve"/>
      <point x="628" y="-259" type="line"/>
      <point x="681" y="-273"/>
      <point x="713" y="-273" type="qcurve"/>
      <point x="778" y="-273"/>
      <point x="822" y="-185"/>
      <point x="822" y="-54" type="qcurve"/>
      <point x="822" y="646" type="line"/>
      <point x="822" y="794"/>
      <point x="718" y="930"/>
      <point x="599" y="930" type="qcurve"/>
      <point x="482" y="930"/>
      <point x="319" y="780"/>
      <point x="319" y="580" type="qcurve"/>
      <point x="319" y="0" type="line"/>
      <point x="139" y="0" type="line"/>
      <point x="139" y="1062" type="line"/>
      <point x="301" y="1062" type="line"/>
      <point x="301" y="911" type="line"/>
      <point x="418" y="1086"/>
      <point x="639" y="1086" type="qcurve"/>
      <point x="769" y="1086"/>
      <point x="945" y="974"/>
      <point x="1002" y="809"/>
    </contour>
  </outline>
</glyph>
<glyph name="OE" format="2">
  <advance width="2048"/>
  <unicode hex="0152"/>
  <outline>
    <contour>
      <point x="1983" y="173" type="line"/>
      <point x="1983" y="0" type="line"/>
      <point x="1121" y="0" type="line"/>
      <point x="1121" y="212" type="line"/>
      <point x="986" y="-25"/>
      <point x="721" y="-25" type="qcurve"/>
      <point x="420" y="-25"/>
      <point x="265" y="207" type="qcurve"/>
      <point x="129" y="412"/>
      <point x="129" y="735" type="qcurve"/>
      <point x="129" y="1057"/>
      <point x="413" y="1491"/>
      <point x="721" y="1491" type="qcurve"/>
      <point x="985" y="1491"/>
      <point x="1121" y="1268" type="qcurve"/>
      <point x="1121" y="1466" type="line"/>
      <point x="1952" y="1466" type="line"/>
      <point x="1952" y="1293" type="line"/>
      <point x="1302" y="1293" type="line"/>
      <point x="1302" y="845" type="line"/>
      <point x="1901" y="845" type="line"/>
      <point x="1901" y="673" type="line"/>
      <point x="1302" y="673" type="line"/>
      <point x="1302" y="173" type="line"/>
    </contour>
    <contour>
      <point x="720" y="1334" type="qcurve"/>
      <point x="619" y="1334"/>
      <point x="427" y="1204"/>
      <point x="329" y="939"/>
      <point x="329" y="720" type="qcurve"/>
      <point x="329" y="417"/>
      <point x="560" y="131"/>
      <point x="720" y="131" type="qcurve"/>
      <point x="881" y="131"/>
      <point x="1110" y="416"/>
      <point x="1110" y="745" type="qcurve"/>
      <point x="1110" y="1051"/>
      <point x="879" y="1334"/>
    </contour>
  </outline>
</glyph>
<glyph name="oe" format="2">
  <advance width="1933"/>
  <unicode hex="0153"/>
  <outline>
    <contour>
      <point x="978" y="175" type="qcurve"/>
      <point x="902" y="76"/>
      <point x="704" y="-24"/>
      <point x="582" y="-24" type="qcurve"/>
      <point x="357" y="-24"/>
      <point x="82" y="262"/>
      <point x="82" y="518" type="qcurve"/>
      <point x="82" y="687"/>
      <point x="199" y="954"/>
      <point x="438" y="1086"/>
      <point x="584" y="1086" type="qcurve"/>
      <point x="722" y="1086"/>
      <point x="927" y="971"/>
      <point x="978" y="883" type="qcurve"/>
      <point x="1042" y="976"/>
      <point x="1243" y="1086"/>
      <point x="1367" y="1086" type="qcurve"/>
      <point x="1587" y="1086"/>
      <point x="1859" y="784"/>
      <point x="1857" y="483" type="qcurve"/>
      <point x="1073" y="483" type="line"/>
      <point x="1076" y="317"/>
      <point x="1255" y="124"/>
      <point x="1389" y="124" type="qcurve"/>
      <point x="1488" y="124"/>
      <point x="1631" y="235"/>
      <point x="1663" y="346" type="qcurve"/>
      <point x="1843" y="320" type="line"/>
      <point x="1800" y="155"/>
      <point x="1565" y="-24"/>
      <point x="1386" y="-24" type="qcurve"/>
      <point x="1252" y="-24"/>
      <point x="1040" y="81"/>
    </contour>
    <contour>
      <point x="267" y="533" type="qcurve"/>
      <point x="267" y="347"/>
      <point x="338" y="250" type="qcurve"/>
      <point x="430" y="124"/>
      <point x="577" y="124" type="qcurve"/>
      <point x="706" y="124"/>
      <point x="890" y="336"/>
      <point x="890" y="535" type="qcurve"/>
      <point x="890" y="733"/>
      <point x="709" y="938"/>
      <point x="577" y="938" type="qcurve"/>
      <point x="490" y="938"/>
      <point x="344" y="840"/>
      <point x="267" y="648"/>
    </contour>
    <contour>
      <point x="1080" y="631" type="qcurve"/>
      <point x="1667" y="631" type="line"/>
      <point x="1655" y="782"/>
      <point x="1496" y="938"/>
      <point x="1378" y="938" type="qcurve"/>
      <point x="1258" y="938"/>
      <point x="1091" y="774"/>
    </contour>
  </outline>
</glyph>
<glyph name="Tcedilla" format="2">
  <advance width="1251"/>
  <unicode hex="0162"/>
  <outline>
    <contour>
      <point x="531" y="0" type="line"/>
      <point x="531" y="1293" type="line"/>
      <point x="48" y="1293" type="line"/>
      <point x="48" y="1466" type="line"/>
      <point x="1210" y="1466" type="line"/>
      <point x="1210" y="1293" type="line"/>
      <point x="725" y="1293" type="line"/>
      <point x="725" y="0" type="line"/>
    </contour>
    <contour>
      <point x="523" y="-326" type="line"/>
      <point x="523" y="-121" type="line"/>
      <point x="728" y="-121" type="line"/>
      <point x="728" y="-326" type="line"/>
      <point x="728" y="-506"/>
      <point x="561" y="-579" type="qcurve"/>
      <point x="511" y="-503" type="line"/>
      <point x="571" y="-476"/>
      <point x="601" y="-425" type="qcurve"/>
      <point x="621" y="-392"/>
      <point x="625" y="-326" type="qcurve"/>
    </contour>
  </outline>
</glyph>
<glyph name="tcedilla" format="2">
  <advance width="569"/>
  <unicode hex="0163"/>
  <outline>
    <contour>
      <point x="528" y="161" type="qcurve"/>
      <point x="554" y="2" type="line"/>
      <point x="478" y="-14"/>
      <point x="418" y="-14" type="qcurve"/>
      <point x="320" y="-14"/>
      <point x="212" y="48"/>
      <point x="168" y="149"/>
      <point x="168" y="311" type="qcurve"/>
      <point x="168" y="922" type="line"/>
      <point x="36" y="922" type="line"/>
      <point x="36" y="1062" type="line"/>
      <point x="168" y="1062" type="line"/>
      <point x="168" y="1325" type="line"/>
      <point x="347" y="1433" type="line"/>
      <point x="347" y="1062" type="line"/>
      <point x="528" y="1062" type="line"/>
      <point x="528" y="922" type="line"/>
      <point x="347" y="922" type="line"/>
      <point x="347" y="301" type="line"/>
      <point x="347" y="224"/>
      <point x="366" y="180"/>
      <point x="409" y="154"/>
      <point x="449" y="154" type="qcurve"/>
      <point x="479" y="154"/>
    </contour>
    <contour>
      <point x="275" y="-305" type="line"/>
      <point x="275" y="-121" type="line"/>
      <point x="460" y="-121" type="line"/>
      <point x="460" y="-305" type="line"/>
      <point x="460" y="-375"/>
      <point x="387" y="-498"/>
      <point x="309" y="-532" type="qcurve"/>
      <point x="265" y="-463" type="line"/>
      <point x="360" y="-421"/>
      <point x="367" y="-305" type="qcurve"/>
    </contour>
  </outline>
</glyph>
<glyph name="tcaron" format="2">
  <advance width="768"/>
  <unicode hex="0165"/>
  <outline>
    <contour>
      <point x="581" y="1281" type="line"/>
      <point x="581" y="1466" type="line"/>
      <point x="765" y="1466" type="line"/>
      <point x="765" y="1281" type="line"/>
      <point x="765" y="1180"/>
      <point x="693" y="1055"/>
      <point x="615" y="1021" type="qcurve"/>
      <point x="570" y="1089" type="line"/>
      <point x="621" y="1112"/>
      <point x="670" y="1199"/>
      <point x="672" y="1281" type="qcurve"/>
    </contour>
    <contour>
      <point x="527" y="161" type="qcurve"/>
      <point x="553" y="2" type="line"/>
      <point x="477" y="-14"/>
      <point x="417" y="-14" type="qcurve"/>
      <point x="319" y="-14"/>
      <point x="211" y="48"/>
      <point x="167" y="149"/>
      <point x="167" y="311" type="qcurve"/>
      <point x="167" y="922" type="line"/>
      <point x="35" y="922" type="line"/>
      <point x="35" y="1062" type="line"/>
      <point x="167" y="1062" type="line"/>
      <point x="167" y="1325" type="line"/>
      <point x="346" y="1433" type="line"/>
      <point x="346" y="1062" type="line"/>
      <point x="527" y="1062" type="line"/>
      <point x="527" y="922" type="line"/>
      <point x="346" y="922" type="line"/>
      <point x="346" y="301" type="line"/>
      <point x="346" y="224"/>
      <point x="365" y="180"/>
      <point x="408" y="154"/>
      <point x="448" y="154" type="qcurve"/>
      <point x="478" y="154"/>
    </contour>
  </outline>
</glyph>
<glyph name="Tbar" format="2">
  <advance width="1251"/>
  <unicode hex="0166"/>
  <outline>
    <contour>
      <point x="531" y="629" type="line"/>
      <point x="201" y="629" type="line"/>
      <point x="201" y="761" type="line"/>
      <point x="531" y="761" type="line"/>
      <point x="531" y="1293" type="line"/>
      <point x="48" y="1293" type="line"/>
      <point x="48" y="1466" type="line"/>
      <point x="1210" y="1466" type="line"/>
      <point x="1210" y="1293" type="line"/>
      <point x="725" y="1293" type="line"/>
      <point x="725" y="761" type="line"/>
      <point x="1053" y="761" type="line"/>
      <point x="1053" y="629" type="line"/>
      <point x="725" y="629" type="line"/>
      <point x="725" y="0" type="line"/>
      <point x="531" y="0" type="line"/>
    </contour>
  </outline>
</glyph>
<glyph name="tbar" format="2">
  <advance width="569"/>
  <unicode hex="0167"/>
  <outline>
    <contour>
      <point x="145" y="514" type="line"/>
      <point x="12" y="514" type="line"/>
      <point x="12" y="646" type="line"/>
      <point x="145" y="646" type="line"/>
      <point x="145" y="922" type="line"/>
      <point x="13" y="922" type="line"/>
      <point x="13" y="1062" type="line"/>
      <point x="145" y="1062" type="line"/>
      <point x="145" y="1325" type="line"/>
      <point x="325" y="1433" type="line"/>
      <point x="325" y="1062" type="line"/>
      <point x="505" y="1062" type="line"/>
      <point x="505" y="922" type="line"/>
      <point x="325" y="922" type="line"/>
      <point x="325" y="646" type="line"/>
      <point x="497" y="646" type="line"/>
      <point x="497" y="514" type="line"/>
      <point x="325" y="514" type="line"/>
      <point x="325" y="301" type="line"/>
      <point x="325" y="216"/>
      <point x="362" y="154"/>
      <point x="426" y="154" type="qcurve"/>
      <point x="458" y="154"/>
      <point x="505" y="161" type="qcurve"/>
      <point x="531" y="2" type="line"/>
      <point x="458" y="-14"/>
      <point x="397" y="-14" type="qcurve"/>
      <point x="291" y="-14"/>
      <point x="176" y="58"/>
      <point x="145" y="175"/>
      <point x="145" y="311" type="qcurve"/>
    </contour>
  </outline>
</glyph>
<glyph name="Uogonek" format="2">
  <advance width="1479"/>
  <unicode hex="0172"/>
  <outline>
    <contour>
      <point x="786" y="-24" type="qcurve"/>
      <point x="766" y="-95"/>
      <point x="766" y="-137" type="qcurve"/>
      <point x="766" y="-208"/>
      <point x="848" y="-292"/>
      <point x="910" y="-292" type="qcurve"/>
      <point x="987" y="-292"/>
      <point x="1078" y="-246" type="qcurve"/>
      <point x="1078" y="-365" type="line"/>
      <point x="960" y="-426"/>
      <point x="859" y="-426" type="qcurve"/>
      <point x="761" y="-426"/>
      <point x="640" y="-306"/>
      <point x="640" y="-205" type="qcurve"/>
      <point x="640" y="-135"/>
      <point x="668" y="-22" type="qcurve"/>
      <point x="399" y="1"/>
      <point x="161" y="283"/>
      <point x="161" y="619" type="qcurve"/>
      <point x="161" y="1466" type="line"/>
      <point x="355" y="1466" type="line"/>
      <point x="355" y="620" type="line"/>
      <point x="355" y="429"/>
      <point x="428" y="244"/>
      <point x="605" y="150"/>
      <point x="721" y="150" type="qcurve"/>
      <point x="940" y="150"/>
      <point x="1120" y="346"/>
      <point x="1120" y="620" type="qcurve"/>
      <point x="1120" y="1466" type="line"/>
      <point x="1314" y="1466" type="line"/>
      <point x="1314" y="619" type="line"/>
      <point x="1314" y="426"/>
      <point x="1236" y="168"/>
      <point x="996" y="-12"/>
    </contour>
  </outline>
</glyph>
<glyph name="uogonek" format="2">
  <advance width="1139"/>
  <unicode hex="0173"/>
  <outline>
    <contour>
      <point x="952" y="0" type="line"/>
      <point x="923" y="-78"/>
      <point x="923" y="-140" type="qcurve"/>
      <point x="923" y="-207"/>
      <point x="1005" y="-292"/>
      <point x="1067" y="-292" type="qcurve"/>
      <point x="1143" y="-292"/>
      <point x="1235" y="-246" type="qcurve"/>
      <point x="1235" y="-365" type="line"/>
      <point x="1118" y="-425"/>
      <point x="1014" y="-425" type="qcurve"/>
      <point x="916" y="-425"/>
      <point x="797" y="-305"/>
      <point x="797" y="-205" type="qcurve"/>
      <point x="797" y="-138"/>
      <point x="823" y="-33" type="qcurve"/>
      <point x="831" y="0" type="line"/>
      <point x="831" y="156" type="line"/>
      <point x="707" y="-24"/>
      <point x="493" y="-24" type="qcurve"/>
      <point x="367" y="-24"/>
      <point x="190" y="88"/>
      <point x="131" y="255"/>
      <point x="131" y="404" type="qcurve"/>
      <point x="131" y="1062" type="line"/>
      <point x="311" y="1062" type="line"/>
      <point x="311" y="473" type="line"/>
      <point x="311" y="334"/>
      <point x="337" y="215"/>
      <point x="447" y="131"/>
      <point x="530" y="131" type="qcurve"/>
      <point x="621" y="131"/>
      <point x="764" y="227"/>
      <point x="812" y="371"/>
      <point x="812" y="493" type="qcurve"/>
      <point x="812" y="1062" type="line"/>
      <point x="992" y="1062" type="line"/>
      <point x="992" y="0" type="line"/>
    </contour>
  </outline>
</glyph>
<glyph name="longs" format="2">
  <advance width="455"/>
  <unicode hex="017F"/>
  <outline>
    <contour>
      <point x="137" y="0" type="line"/>
      <point x="137" y="1175" type="line"/>
      <point x="137" y="1290"/>
      <point x="191" y="1417"/>
      <point x="325" y="1491"/>
      <point x="431" y="1491" type="qcurve"/>
      <point x="510" y="1491"/>
      <point x="598" y="1473" type="qcurve"/>
      <point x="572" y="1316" type="line"/>
      <point x="518" y="1326"/>
      <point x="466" y="1326" type="qcurve"/>
      <point x="376" y="1326"/>
      <point x="317" y="1247"/>
      <point x="317" y="1160" type="qcurve"/>
      <point x="317" y="0" type="line"/>
    </contour>
  </outline>
</glyph>
<glyph name="florin" format="2">
  <advance width="1139"/>
  <unicode hex="0192"/>
  <outline>
    <contour>
      <point x="46" y="-405" type="qcurve"/>
      <point x="81" y="-250" type="line"/>
      <point x="182" y="-272"/>
      <point x="233" y="-272" type="qcurve"/>
      <point x="287" y="-272"/>
      <point x="345" y="-216"/>
      <point x="361" y="-120" type="qcurve"/>
      <point x="538" y="922" type="line"/>
      <point x="337" y="922" type="line"/>
      <point x="361" y="1062" type="line"/>
      <point x="562" y="1062" type="line"/>
      <point x="586" y="1195" type="line"/>
      <point x="608" y="1315"/>
      <point x="631" y="1360" type="qcurve"/>
      <point x="662" y="1422"/>
      <point x="777" y="1492"/>
      <point x="870" y="1492" type="qcurve"/>
      <point x="950" y="1492"/>
      <point x="1085" y="1454" type="qcurve"/>
      <point x="1050" y="1301" type="line"/>
      <point x="947" y="1325"/>
      <point x="896" y="1325" type="qcurve"/>
      <point x="840" y="1325"/>
      <point x="784" y="1270"/>
      <point x="765" y="1165" type="qcurve"/>
      <point x="746" y="1062" type="line"/>
      <point x="950" y="1062" type="line"/>
      <point x="925" y="922" type="line"/>
      <point x="721" y="922" type="line"/>
      <point x="530" y="-170" type="line"/>
      <point x="504" y="-318"/>
      <point x="382" y="-431"/>
      <point x="270" y="-431" type="qcurve"/>
      <point x="176" y="-431"/>
    </contour>
  </outline>
</glyph>
<glyph name="Ohorn" format="2">
  <advance width="1756"/>
  <unicode hex="01A0"/>
  <outline>
    <contour>
      <point x="299" y="711" type="qcurve"/>
      <point x="299" y="451"/>
      <point x="442" y="293" type="qcurve"/>
      <point x="580" y="141"/>
      <point x="799" y="141" type="qcurve"/>
      <point x="1023" y="141"/>
      <point x="1160" y="295" type="qcurve"/>
      <point x="1301" y="455"/>
      <point x="1301" y="732" type="qcurve"/>
      <point x="1301" y="1102"/>
      <point x="1064" y="1252" type="qcurve"/>
      <point x="947" y="1325"/>
      <point x="802" y="1325" type="qcurve"/>
      <point x="579" y="1325"/>
      <point x="448" y="1184" type="qcurve"/>
      <point x="299" y="1024"/>
    </contour>
    <contour>
      <point x="1515" y="1273" type="line"/>
      <point x="1515" y="1482" type="line"/>
      <point x="1708" y="1482" type="line"/>
      <point x="1708" y="1317" type="line"/>
      <point x="1708" y="1193"/>
      <point x="1670" y="1127" type="qcurve"/>
      <point x="1618" y="1036"/>
      <point x="1475" y="960" type="qcurve"/>
      <point x="1501" y="852"/>
      <point x="1501" y="731" type="qcurve"/>
      <point x="1501" y="507"/>
      <point x="1320" y="156"/>
      <point x="991" y="-25"/>
      <point x="800" y="-25" type="qcurve"/>
      <point x="594" y="-25"/>
      <point x="267" y="174"/>
      <point x="99" y="521"/>
      <point x="99" y="714" type="qcurve"/>
      <point x="99" y="1074"/>
      <point x="295" y="1286" type="qcurve"/>
      <point x="486" y="1492"/>
      <point x="801" y="1492" type="qcurve"/>
      <point x="1028" y="1492"/>
      <point x="1379" y="1245"/>
      <point x="1452" y="1037" type="qcurve"/>
      <point x="1543" y="1086"/>
      <point x="1580" y="1142" type="qcurve"/>
      <point x="1610" y="1187"/>
      <point x="1609" y="1273" type="qcurve"/>
    </contour>
  </outline>
</glyph>
<glyph name="ohorn" format="2">
  <advance width="1343"/>
  <unicode hex="01A1"/>
  <outline>
    <contour>
      <point x="253" y="531" type="qcurve"/>
      <point x="253" y="334"/>
      <point x="342" y="226" type="qcurve"/>
      <point x="426" y="124"/>
      <point x="566" y="124" type="qcurve"/>
      <point x="706" y="124"/>
      <point x="789" y="226" type="qcurve"/>
      <point x="878" y="335"/>
      <point x="878" y="537" type="qcurve"/>
      <point x="878" y="728"/>
      <point x="788" y="835" type="qcurve"/>
      <point x="704" y="937"/>
      <point x="566" y="937" type="qcurve"/>
      <point x="425" y="937"/>
      <point x="342" y="836" type="qcurve"/>
      <point x="253" y="728"/>
    </contour>
    <contour>
      <point x="1087" y="879" type="line"/>
      <point x="1087" y="1088" type="line"/>
      <point x="1280" y="1088" type="line"/>
      <point x="1280" y="923" type="line"/>
      <point x="1280" y="799"/>
      <point x="1242" y="733" type="qcurve"/>
      <point x="1193" y="647"/>
      <point x="1063" y="575" type="qcurve"/>
      <point x="1063" y="561"/>
      <point x="1063" y="546" type="qcurve"/>
      <point x="1063" y="174"/>
      <point x="823" y="41" type="qcurve"/>
      <point x="705" y="-24"/>
      <point x="566" y="-24" type="qcurve"/>
      <point x="338" y="-24"/>
      <point x="205" y="119" type="qcurve"/>
      <point x="68" y="267"/>
      <point x="68" y="531" type="qcurve"/>
      <point x="68" y="826"/>
      <point x="232" y="968" type="qcurve"/>
      <point x="369" y="1086"/>
      <point x="566" y="1086" type="qcurve"/>
      <point x="785" y="1086"/>
      <point x="924" y="943" type="qcurve"/>
      <point x="1029" y="834"/>
      <point x="1055" y="662" type="qcurve"/>
      <point x="1123" y="704"/>
      <point x="1182" y="794"/>
      <point x="1181" y="879" type="qcurve"/>
    </contour>
  </outline>
</glyph>
<glyph name="Uhorn" format="2">
  <advance width="1749"/>
  <unicode hex="01AF"/>
  <outline>
    <contour>
      <point x="1473" y="1257" type="line"/>
      <point x="1473" y="1466" type="line"/>
      <point x="1666" y="1466" type="line"/>
      <point x="1666" y="1301" type="line"/>
      <point x="1666" y="1144"/>
      <point x="1630" y="1082" type="qcurve"/>
      <point x="1531" y="909"/>
      <point x="1314" y="899" type="qcurve"/>
      <point x="1314" y="619" type="line"/>
      <point x="1314" y="394"/>
      <point x="1264" y="268" type="qcurve"/>
      <point x="1212" y="137"/>
      <point x="1084" y="57" type="qcurve"/>
      <point x="953" y="-25"/>
      <point x="741" y="-25" type="qcurve"/>
      <point x="332" y="-25"/>
      <point x="217" y="252" type="qcurve"/>
      <point x="161" y="386"/>
      <point x="161" y="619" type="qcurve"/>
      <point x="161" y="1466" type="line"/>
      <point x="355" y="1466" type="line"/>
      <point x="355" y="620" type="line"/>
      <point x="355" y="431"/>
      <point x="391" y="338" type="qcurve"/>
      <point x="425" y="249"/>
      <point x="599" y="150"/>
      <point x="724" y="150" type="qcurve"/>
      <point x="943" y="150"/>
      <point x="1029" y="247" type="qcurve"/>
      <point x="1120" y="349"/>
      <point x="1120" y="620" type="qcurve"/>
      <point x="1120" y="1466" type="line"/>
      <point x="1314" y="1466" type="line"/>
      <point x="1314" y="973" type="line"/>
      <point x="1470" y="989"/>
      <point x="1540" y="1097" type="qcurve"/>
      <point x="1567" y="1139"/>
      <point x="1567" y="1257" type="qcurve"/>
    </contour>
  </outline>
</glyph>
<glyph name="uhorn" format="2">
  <advance width="1371"/>
  <unicode hex="01B0"/>
  <outline>
    <contour>
      <point x="1116" y="853" type="line"/>
      <point x="1116" y="1062" type="line"/>
      <point x="1309" y="1062" type="line"/>
      <point x="1309" y="897" type="line"/>
      <point x="1309" y="740"/>
      <point x="1273" y="678" type="qcurve"/>
      <point x="1181" y="518"/>
      <point x="992" y="498" type="qcurve"/>
      <point x="992" y="0" type="line"/>
      <point x="831" y="0" type="line"/>
      <point x="831" y="156" type="line"/>
      <point x="707" y="-24"/>
      <point x="494" y="-24" type="qcurve"/>
      <point x="401" y="-24"/>
      <point x="238" y="47"/>
      <point x="158" y="157"/>
      <point x="142" y="236" type="qcurve"/>
      <point x="131" y="290"/>
      <point x="131" y="404" type="qcurve"/>
      <point x="131" y="1062" type="line"/>
      <point x="311" y="1062" type="line"/>
      <point x="311" y="473" type="line"/>
      <point x="311" y="330"/>
      <point x="322" y="283" type="qcurve"/>
      <point x="357" y="131"/>
      <point x="530" y="131" type="qcurve"/>
      <point x="613" y="131"/>
      <point x="754" y="215"/>
      <point x="812" y="357"/>
      <point x="812" y="493" type="qcurve"/>
      <point x="812" y="1062" type="line"/>
      <point x="992" y="1062" type="line"/>
      <point x="992" y="574" type="line"/>
      <point x="1119" y="596"/>
      <point x="1182" y="693" type="qcurve"/>
      <point x="1210" y="735"/>
      <point x="1210" y="853" type="qcurve"/>
    </contour>
  </outline>
</glyph>
<glyph name="uni0259" format="2">
  <advance width="1139"/>
  <unicode hex="0259"/>
  <unicode hex="04D9"/>
  <outline>
    <contour>
      <point x="1064" y="540" type="qcurve"/>
      <point x="1064" y="294"/>
      <point x="941" y="141" type="qcurve"/>
      <point x="808" y="-24"/>
      <point x="568" y="-24" type="qcurve"/>
      <point x="334" y="-24"/>
      <point x="204" y="139" type="qcurve"/>
      <point x="85" y="289"/>
      <point x="85" y="529" type="qcurve"/>
      <point x="85" y="545"/>
      <point x="86" y="577" type="qcurve"/>
      <point x="878" y="577" type="line"/>
      <point x="869" y="733"/>
      <point x="793" y="829" type="qcurve"/>
      <point x="707" y="938"/>
      <point x="557" y="938" type="qcurve"/>
      <point x="355" y="938"/>
      <point x="277" y="720" type="qcurve"/>
      <point x="91" y="743" type="line"/>
      <point x="184" y="1086"/>
      <point x="558" y="1086" type="qcurve"/>
      <point x="803" y="1086"/>
      <point x="937" y="934" type="qcurve"/>
      <point x="1064" y="789"/>
    </contour>
    <contour>
      <point x="868" y="429" type="qcurve"/>
      <point x="275" y="429" type="line"/>
      <point x="287" y="295"/>
      <point x="343" y="228" type="qcurve"/>
      <point x="429" y="124"/>
      <point x="566" y="124" type="qcurve"/>
      <point x="697" y="124"/>
      <point x="780" y="212" type="qcurve"/>
      <point x="859" y="296"/>
    </contour>
  </outline>
</glyph>
<glyph name="circumflex" format="2">
  <advance width="682"/>
  <unicode hex="02C6"/>
  <outline>
    <contour>
      <point x="344" y="1364" type="line"/>
      <point x="231" y="1194" type="line"/>
      <point x="25" y="1194" type="line"/>
      <point x="241" y="1474" type="line"/>
      <point x="433" y="1474" type="line"/>
      <point x="658" y="1194" type="line"/>
      <point x="454" y="1194" type="line"/>
    </contour>
  </outline>
</glyph>
<glyph name="caron" format="2">
  <advance width="682"/>
  <unicode hex="02C7"/>
  <outline>
    <contour>
      <point x="359" y="1304" type="line"/>
      <point x="469" y="1474" type="line"/>
      <point x="673" y="1474" type="line"/>
      <point x="448" y="1194" type="line"/>
      <point x="256" y="1194" type="line"/>
      <point x="40" y="1474" type="line"/>
      <point x="246" y="1474" type="line"/>
    </contour>
  </outline>
</glyph>
<glyph name="macron" format="2">
  <advance width="682"/>
  <unicode hex="02C9"/>
  <outline>
    <contour>
      <point x="29" y="1227" type="line"/>
      <point x="29" y="1375" type="line"/>
      <point x="653" y="1375" type="line"/>
      <point x="653" y="1227" type="line"/>
    </contour>
  </outline>
</glyph>
<glyph name="breve" format="2">
  <advance width="682"/>
  <unicode hex="02D8"/>
  <outline>
    <contour>
      <point x="514" y="1464" type="qcurve"/>
      <point x="637" y="1464" type="line"/>
      <point x="622" y="1339"/>
      <point x="469" y="1205"/>
      <point x="342" y="1205" type="qcurve"/>
      <point x="214" y="1205"/>
      <point x="61" y="1338"/>
      <point x="46" y="1464" type="qcurve"/>
      <point x="169" y="1464" type="line"/>
      <point x="183" y="1396"/>
      <point x="266" y="1329"/>
      <point x="336" y="1329" type="qcurve"/>
      <point x="417" y="1329"/>
      <point x="500" y="1394"/>
    </contour>
  </outline>
</glyph>
<glyph name="dotaccent" format="2">
  <advance width="682"/>
  <unicode hex="02D9"/>
  <outline>
    <contour>
      <point x="229" y="1194" type="line"/>
      <point x="229" y="1418" type="line"/>
      <point x="452" y="1418" type="line"/>
      <point x="452" y="1194" type="line"/>
    </contour>
  </outline>
</glyph>
<glyph name="ring" format="2">
  <advance width="682"/>
  <unicode hex="02DA"/>
  <outline>
    <contour>
      <point x="162" y="1338" type="qcurve"/>
      <point x="162" y="1411"/>
      <point x="269" y="1517"/>
      <point x="342" y="1517" type="qcurve"/>
      <point x="416" y="1517"/>
      <point x="522" y="1410"/>
      <point x="522" y="1334" type="qcurve"/>
      <point x="522" y="1257"/>
      <point x="416" y="1151"/>
      <point x="343" y="1151" type="qcurve"/>
      <point x="268" y="1151"/>
      <point x="162" y="1258"/>
    </contour>
    <contour>
      <point x="238" y="1337" type="qcurve"/>
      <point x="238" y="1290"/>
      <point x="301" y="1226"/>
      <point x="344" y="1226" type="qcurve"/>
      <point x="387" y="1226"/>
      <point x="450" y="1290"/>
      <point x="450" y="1335" type="qcurve"/>
      <point x="450" y="1380"/>
      <point x="388" y="1444"/>
      <point x="344" y="1444" type="qcurve"/>
      <point x="301" y="1444"/>
      <point x="238" y="1381"/>
    </contour>
  </outline>
</glyph>
<glyph name="ogonek" format="2">
  <advance width="682"/>
  <unicode hex="02DB"/>
  <outline>
    <contour>
      <point x="224" y="24" type="qcurve"/>
      <point x="348" y="24" type="line"/>
      <point x="309" y="-65"/>
      <point x="309" y="-140" type="qcurve"/>
      <point x="309" y="-208"/>
      <point x="391" y="-292"/>
      <point x="453" y="-292" type="qcurve"/>
      <point x="530" y="-292"/>
      <point x="621" y="-246" type="qcurve"/>
      <point x="621" y="-365" type="line"/>
      <point x="569" y="-392"/>
      <point x="447" y="-426"/>
      <point x="402" y="-426" type="qcurve"/>
      <point x="303" y="-426"/>
      <point x="183" y="-306"/>
      <point x="183" y="-205" type="qcurve"/>
      <point x="183" y="-119"/>
    </contour>
  </outline>
</glyph>
<glyph name="tilde" format="2">
  <advance width="682"/>
  <unicode hex="02DC"/>
  <outline>
    <contour>
      <point x="7" y="1219" type="line"/>
      <point x="6" y="1323"/>
      <point x="64" y="1385" type="qcurve"/>
      <point x="121" y="1447"/>
      <point x="210" y="1447" type="qcurve"/>
      <point x="272" y="1447"/>
      <point x="379" y="1393" type="qcurve"/>
      <point x="438" y="1363"/>
      <point x="473" y="1363" type="qcurve"/>
      <point x="505" y="1363"/>
      <point x="539" y="1398"/>
      <point x="546" y="1450" type="qcurve"/>
      <point x="676" y="1450" type="line"/>
      <point x="673" y="1336"/>
      <point x="564" y="1222"/>
      <point x="480" y="1222" type="qcurve"/>
      <point x="417" y="1222"/>
      <point x="314" y="1278" type="qcurve"/>
      <point x="247" y="1314"/>
      <point x="216" y="1314" type="qcurve"/>
      <point x="182" y="1314"/>
      <point x="161" y="1290" type="qcurve"/>
      <point x="139" y="1266"/>
      <point x="140" y="1219" type="qcurve"/>
    </contour>
  </outline>
</glyph>
<glyph name="hungarumlaut" format="2">
  <advance width="682"/>
  <unicode hex="02DD"/>
  <outline>
    <contour>
      <point x="58" y="1194" type="line"/>
      <point x="179" y="1474" type="line"/>
      <point x="413" y="1474" type="line"/>
      <point x="202" y="1194" type="line"/>
    </contour>
    <contour>
      <point x="405" y="1194" type="line"/>
      <point x="532" y="1474" type="line"/>
      <point x="763" y="1474" type="line"/>
      <point x="556" y="1194" type="line"/>
    </contour>
  </outline>
</glyph>
